<?xml version="1.0" encoding="UTF-8"?>
<svg width="802px" height="920px" viewBox="0 0 802 920" version="1.1" xmlns="http://www.w3.org/2000/svg" xmlns:xlink="http://www.w3.org/1999/xlink">
    <!-- Generator: Sketch 51.3 (57544) - http://www.bohemiancoding.com/sketch -->
    <title>Group 2</title>
    <desc>Created with Sketch.</desc>
    <defs>
        <linearGradient x1="26.5873413%" y1="98.4687728%" x2="86.4381232%" y2="0.706233556%" id="linearGradient-1">
            <stop stop-color="#202020" offset="0%"></stop>
            <stop stop-color="#000000" offset="100%"></stop>
        </linearGradient>
        <linearGradient x1="72.6825491%" y1="85.2164671%" x2="75.3856509%" y2="-16.431173%" id="linearGradient-2">
            <stop stop-color="#8D8D8D" stop-opacity="0" offset="0%"></stop>
            <stop stop-color="#000000" offset="100%"></stop>
        </linearGradient>
        <linearGradient x1="50%" y1="32.1187137%" x2="67.2859088%" y2="115.977968%" id="linearGradient-3">
            <stop stop-color="#84F0A8" offset="0%"></stop>
            <stop stop-color="#48B676" offset="100%"></stop>
        </linearGradient>
        <path d="M36.6161779,0 C46.3597448,0 45.5913934,19.6578113 48.7173207,23.0900364 C51.843248,26.5222615 59.4500783,27.1944026 59.4500783,35.166618 C59.4500783,43.1388333 52.1981873,43.1388333 52.1981873,49.7023062 C52.1981873,56.2657791 68.3491062,55.0561165 68.3491062,65.6268107 C68.3491062,76.1975049 56.1840132,79.3030903 56.1840132,85.574955 C56.1840132,91.8468197 62.7587718,94.4842503 62.7587718,108.479081 C62.7587718,122.473913 50.3403641,124.54054 31.3871244,124.54054 C12.4338847,124.54054 0,119.417179 0,105.422348 C0,91.4275165 20.2358605,92.286334 21.6871485,84.4431041 C23.1384364,76.5998743 9.83162789,72.3284334 9.83162789,63.245618 C9.83162789,54.1628026 29.0025513,54.1628026 29.0025513,46.7414049 C29.0025513,39.3200071 13.5534513,35.9525691 13.5534513,28.3822549 C13.5534513,20.8119407 17.1847447,19.4579623 23.968637,16.3898414 C30.7525292,13.3217206 26.872611,0 36.6161779,0 Z" id="path-4"></path>
        <filter x="-33.6%" y="-18.4%" width="167.2%" height="136.9%" filterUnits="objectBoundingBox" id="filter-5">
            <feGaussianBlur stdDeviation="10.5" in="SourceAlpha" result="shadowBlurInner1"></feGaussianBlur>
            <feOffset dx="-24.9" dy="-12.7" in="shadowBlurInner1" result="shadowOffsetInner1"></feOffset>
            <feComposite in="shadowOffsetInner1" in2="SourceAlpha" operator="arithmetic" k2="-1" k3="1" result="shadowInnerInner1"></feComposite>
            <feColorMatrix values="0 0 0 0 0.664540816   0 0 0 0 0.664540816   0 0 0 0 0.664540816  0 0 0 0.43 0" type="matrix" in="shadowInnerInner1"></feColorMatrix>
        </filter>
        <linearGradient x1="100%" y1="100%" x2="27.9339743%" y2="50%" id="linearGradient-6">
            <stop stop-color="#CEE0FB" offset="0%"></stop>
            <stop stop-color="#E4EDFB" offset="100%"></stop>
        </linearGradient>
        <linearGradient x1="149.379226%" y1="-86.5655478%" x2="157.419759%" y2="219.657969%" id="linearGradient-7">
            <stop stop-color="#E5EDFF" offset="0%"></stop>
            <stop stop-color="#6B9AD9" offset="100%"></stop>
        </linearGradient>
        <path d="M190.85886,289.465295 C195.899264,290.370968 200.317018,293.071003 203.427717,296.880781 C205.7871,295.025964 208.762386,293.919698 211.995974,293.919698 C219.660493,293.919698 225.873814,300.134971 225.873814,307.801898 C225.873814,308.618438 225.803339,309.418511 225.668141,310.196365 C225.736621,310.19571 225.805179,310.195381 225.873814,310.195381 C232.314429,310.195381 238.079651,313.087995 241.941987,317.645344 C247.603281,309.934685 256.731732,304.929719 267.028788,304.929719 C284.207884,304.929719 298.134292,318.860503 298.134292,336.044996 C298.134292,336.365282 298.129455,336.684438 298.119848,337.002394 C298.124663,337.002391 298.129477,337.00239 298.134292,337.00239 C309.763219,337.00239 319.190326,346.432459 319.190326,358.065039 C319.190326,369.697619 309.763219,379.127688 298.134292,379.127688 C293.771759,379.127688 289.719096,377.800559 286.357767,375.527884 C283.121759,382.997481 275.685316,388.222923 267.028788,388.222923 C257.051658,388.222923 248.695269,381.281526 246.522651,371.963193 C243.529924,374.544393 239.664425,376.140864 235.429025,376.249575 C230.097087,381.016615 223.059772,383.914654 215.345797,383.914654 C204.440371,383.914654 194.887329,378.122594 189.593291,369.446009 C183.249799,379.302059 172.184517,385.82944 159.595163,385.82944 C147.005809,385.82944 135.940527,379.302059 129.597032,369.446015 C124.302997,378.122594 114.749955,383.914654 103.844529,383.914654 C96.1305538,383.914654 89.0932394,381.016615 83.7613013,376.249575 C79.5259013,376.140864 75.6604024,374.544393 72.6676754,371.963193 C70.4950566,381.281526 62.1386676,388.222923 52.1615375,388.222923 C43.5050104,388.222923 36.0685673,382.997481 32.8325594,375.527884 C29.4712298,377.800559 25.4185667,379.127688 21.0560335,379.127688 C9.42710731,379.127688 0,369.697619 0,358.065039 C0,346.432459 9.42710731,337.00239 21.0560335,337.00239 C21.0608486,337.00239 21.0656633,337.002391 21.0704776,337.002394 C21.0608712,336.684438 21.0560335,336.365282 21.0560335,336.044996 C21.0560335,318.860503 34.982442,304.929719 52.1615375,304.929719 C62.4585939,304.929719 71.5870449,309.934685 77.248339,317.645344 C81.1106754,313.087995 86.8758968,310.195381 93.3165121,310.195381 C93.3851468,310.195381 93.4537047,310.19571 93.5221845,310.196365 C93.3869871,309.418511 93.3165121,308.618438 93.3165121,307.801898 C93.3165121,300.134971 99.5298328,293.919698 107.194352,293.919698 C110.42794,293.919698 113.403226,295.025964 115.762609,296.880781 C118.873308,293.071003 123.291062,290.370968 128.331466,289.465295 C130.887778,285.187946 134.441491,281.575825 138.671294,278.950345 C140.523241,269.210472 149.079923,261.847027 159.35589,261.847027 C169.515466,261.847027 177.994483,269.044612 179.974984,278.620309 C184.444347,281.269378 188.193684,285.00579 190.85886,289.465295 Z" id="path-8"></path>
        <filter x="-7.2%" y="-18.2%" width="114.4%" height="136.3%" filterUnits="objectBoundingBox" id="filter-9">
            <feGaussianBlur stdDeviation="10.5" in="SourceAlpha" result="shadowBlurInner1"></feGaussianBlur>
            <feOffset dx="-24.9" dy="-12.7" in="shadowBlurInner1" result="shadowOffsetInner1"></feOffset>
            <feComposite in="shadowOffsetInner1" in2="SourceAlpha" operator="arithmetic" k2="-1" k3="1" result="shadowInnerInner1"></feComposite>
            <feColorMatrix values="0 0 0 0 0.664540816   0 0 0 0 0.664540816   0 0 0 0 0.664540816  0 0 0 0.43 0" type="matrix" in="shadowInnerInner1"></feColorMatrix>
        </filter>
        <path d="M155.774236,74.1327186 C161.514093,100.123966 165.050003,153.025549 166.381967,232.837466 L166.381967,232.837466 C166.575497,244.433831 157.331672,253.991429 145.735306,254.184958 C145.618511,254.186907 145.501702,254.187882 145.384891,254.187882 L75.7034608,254.187882 C64.1054812,254.187882 54.7034609,244.785862 54.7034609,233.187882 C54.7034609,233.071071 54.7044356,232.954261 54.7063847,232.837466 C56.0383486,153.025549 59.5742589,100.123966 65.3141157,74.1327186 C74.6698424,31.7680716 89.7465291,7.0571654 110.544176,0 C131.341823,7.0571654 146.418509,31.7680716 155.774236,74.1327186 Z" id="path-10"></path>
        <filter x="-20.5%" y="-9.0%" width="141.1%" height="118.1%" filterUnits="objectBoundingBox" id="filter-11">
            <feGaussianBlur stdDeviation="10.5" in="SourceAlpha" result="shadowBlurInner1"></feGaussianBlur>
            <feOffset dx="-24.9" dy="-12.7" in="shadowBlurInner1" result="shadowOffsetInner1"></feOffset>
            <feComposite in="shadowOffsetInner1" in2="SourceAlpha" operator="arithmetic" k2="-1" k3="1" result="shadowInnerInner1"></feComposite>
            <feColorMatrix values="0 0 0 0 0.664540816   0 0 0 0 0.664540816   0 0 0 0 0.664540816  0 0 0 0.43 0" type="matrix" in="shadowInnerInner1"></feColorMatrix>
        </filter>
        <path d="M73.1272948,46.4335679 C82.3162989,20.8241187 94.7885911,5.34626676 110.544176,0 C126.299761,5.34626676 138.772053,20.8241187 147.961053,46.4335679 L73.1272948,46.4335679 Z" id="path-12"></path>
        <filter x="-30.7%" y="-49.4%" width="161.3%" height="198.9%" filterUnits="objectBoundingBox" id="filter-13">
            <feGaussianBlur stdDeviation="10.5" in="SourceAlpha" result="shadowBlurInner1"></feGaussianBlur>
            <feOffset dx="-24.9" dy="-12.7" in="shadowBlurInner1" result="shadowOffsetInner1"></feOffset>
            <feComposite in="shadowOffsetInner1" in2="SourceAlpha" operator="arithmetic" k2="-1" k3="1" result="shadowInnerInner1"></feComposite>
            <feColorMatrix values="0 0 0 0 0.664540816   0 0 0 0 0.664540816   0 0 0 0 0.664540816  0 0 0 0.43 0" type="matrix" in="shadowInnerInner1"></feColorMatrix>
        </filter>
        <linearGradient x1="50%" y1="-142.327103%" x2="50%" y2="170.164832%" id="linearGradient-14">
            <stop stop-color="#CCD0D6" offset="0%"></stop>
            <stop stop-color="#27282B" offset="100%"></stop>
        </linearGradient>
        <rect id="path-15" x="77.9179811" y="51.2618297" width="9.52825582" height="14.7823433"></rect>
        <filter x="-240.9%" y="-155.3%" width="581.7%" height="410.5%" filterUnits="objectBoundingBox" id="filter-16">
            <feGaussianBlur stdDeviation="10.5" in="SourceAlpha" result="shadowBlurInner1"></feGaussianBlur>
            <feOffset dx="-24.9" dy="-12.7" in="shadowBlurInner1" result="shadowOffsetInner1"></feOffset>
            <feComposite in="shadowOffsetInner1" in2="SourceAlpha" operator="arithmetic" k2="-1" k3="1" result="shadowInnerInner1"></feComposite>
            <feColorMatrix values="0 0 0 0 0.664540816   0 0 0 0 0.664540816   0 0 0 0 0.664540816  0 0 0 0.43 0" type="matrix" in="shadowInnerInner1"></feColorMatrix>
        </filter>
        <rect id="path-17" x="101.156677" y="46.4773922" width="9.52825582" height="19.709791"></rect>
        <filter x="-240.9%" y="-116.4%" width="581.7%" height="332.9%" filterUnits="objectBoundingBox" id="filter-18">
            <feGaussianBlur stdDeviation="10.5" in="SourceAlpha" result="shadowBlurInner1"></feGaussianBlur>
            <feOffset dx="-24.9" dy="-12.7" in="shadowBlurInner1" result="shadowOffsetInner1"></feOffset>
            <feComposite in="shadowOffsetInner1" in2="SourceAlpha" operator="arithmetic" k2="-1" k3="1" result="shadowInnerInner1"></feComposite>
            <feColorMatrix values="0 0 0 0 0.664540816   0 0 0 0 0.664540816   0 0 0 0 0.664540816  0 0 0 0.43 0" type="matrix" in="shadowInnerInner1"></feColorMatrix>
        </filter>
        <rect id="path-19" x="112.776025" y="53.3123028" width="9.52825582" height="12.8748804"></rect>
        <filter x="-240.9%" y="-178.3%" width="581.7%" height="456.5%" filterUnits="objectBoundingBox" id="filter-20">
            <feGaussianBlur stdDeviation="10.5" in="SourceAlpha" result="shadowBlurInner1"></feGaussianBlur>
            <feOffset dx="-24.9" dy="-12.7" in="shadowBlurInner1" result="shadowOffsetInner1"></feOffset>
            <feComposite in="shadowOffsetInner1" in2="SourceAlpha" operator="arithmetic" k2="-1" k3="1" result="shadowInnerInner1"></feComposite>
            <feColorMatrix values="0 0 0 0 0.664540816   0 0 0 0 0.664540816   0 0 0 0 0.664540816  0 0 0 0.43 0" type="matrix" in="shadowInnerInner1"></feColorMatrix>
        </filter>
        <rect id="path-21" x="89.5373291" y="38.9589905" width="9.52825582" height="27.1009627"></rect>
        <filter x="-240.9%" y="-84.7%" width="581.7%" height="269.4%" filterUnits="objectBoundingBox" id="filter-22">
            <feGaussianBlur stdDeviation="10.5" in="SourceAlpha" result="shadowBlurInner1"></feGaussianBlur>
            <feOffset dx="-24.9" dy="-12.7" in="shadowBlurInner1" result="shadowOffsetInner1"></feOffset>
            <feComposite in="shadowOffsetInner1" in2="SourceAlpha" operator="arithmetic" k2="-1" k3="1" result="shadowInnerInner1"></feComposite>
            <feColorMatrix values="0 0 0 0 0.664540816   0 0 0 0 0.664540816   0 0 0 0 0.664540816  0 0 0 0.43 0" type="matrix" in="shadowInnerInner1"></feColorMatrix>
        </filter>
        <path d="M25.0172756,11.8768968 C25.9391999,16.0414655 26.5070902,24.5183628 26.7209463,37.3075888 L26.7209435,37.3075889 C26.751969,39.1630048 25.2730084,40.6922676 23.4175926,40.7232931 C23.3988687,40.7236062 23.3801425,40.7237628 23.3614159,40.7237628 L12.1452784,40.7237624 C10.2896018,40.7237624 8.78527871,39.2194393 8.78527871,37.3637628 C8.78527871,37.3450362 8.78543527,37.32631 8.78574836,37.3075861 C8.99960451,24.5183616 9.56749472,16.0414652 10.489419,11.8768968 C11.9919447,5.08960302 14.4132541,1.13063742 17.7533473,0 C21.0934405,1.13063742 23.5147499,5.08960302 25.0172756,11.8768968 Z" id="path-23"></path>
        <filter x="-127.3%" y="-56.4%" width="354.6%" height="212.7%" filterUnits="objectBoundingBox" id="filter-24">
            <feGaussianBlur stdDeviation="10.5" in="SourceAlpha" result="shadowBlurInner1"></feGaussianBlur>
            <feOffset dx="-24.9" dy="-12.7" in="shadowBlurInner1" result="shadowOffsetInner1"></feOffset>
            <feComposite in="shadowOffsetInner1" in2="SourceAlpha" operator="arithmetic" k2="-1" k3="1" result="shadowInnerInner1"></feComposite>
            <feColorMatrix values="0 0 0 0 0.664540816   0 0 0 0 0.664540816   0 0 0 0 0.664540816  0 0 0 0.43 0" type="matrix" in="shadowInnerInner1"></feColorMatrix>
        </filter>
        <linearGradient x1="164.418688%" y1="-12.3574314%" x2="63.0097787%" y2="116.472018%" id="linearGradient-25">
            <stop stop-color="#545454" offset="0%"></stop>
            <stop stop-color="#000000" offset="100%"></stop>
        </linearGradient>
        <linearGradient x1="11.0331907%" y1="50%" x2="65.699256%" y2="-14.2541213%" id="linearGradient-26">
            <stop stop-color="#FDAE6B" offset="0%"></stop>
            <stop stop-color="#FAE539" offset="100%"></stop>
        </linearGradient>
        <path d="M51.9623898,14.5824015 C59.4737779,14.5824015 64.8363673,12.3442804 68.0501578,7.86803811 C90.3295249,10.108628 104.113389,16.8465206 109.401749,28.081716 C114.04977,37.9565001 115.058089,40.8337946 123.655834,56.2417853 C127.706228,63.5004822 120.249681,71.6523239 101.286192,80.6973104 C112.336136,102.995304 120.727443,115.429433 126.460112,117.999697 C128.404932,119.847491 128.404932,125.729333 127.697784,128.140603 C126.372861,132.658398 107.119583,159.894186 97.4144948,156.35209 C90.9444363,153.990693 76.9172367,148.443171 55.3328961,139.709524 L6.20111784,93.8976649 L0.0542715071,44.2313422 C2.68918859,35.2717712 6.70992616,25.388791 12.1164842,14.5824015 C19.1975522,0.429075762 28.7003818,-3.01750487 40.6249732,4.24265964 C40.6718627,11.1358209 44.4510016,14.5824015 51.9623898,14.5824015 Z" id="path-27"></path>
        <linearGradient x1="17.9914607%" y1="112.50961%" x2="86.8704834%" y2="0%" id="linearGradient-29">
            <stop stop-color="#8D8D8D" stop-opacity="0" offset="0%"></stop>
            <stop stop-color="#000000" offset="100%"></stop>
        </linearGradient>
    </defs>
    <g id="Welcome" stroke="none" stroke-width="1" fill="none" fill-rule="evenodd">
        <g id="Client-Sign-Up" transform="translate(-798.000000, 0.000000)">
            <g id="Group-2" transform="translate(798.000000, 0.000000)">
                <rect id="Rectangle" fill="url(#linearGradient-1)" x="2" y="0" width="800" height="920"></rect>
                <g id="Group" transform="translate(102.000000, 342.000000)">
                    <g id="Background" transform="translate(0.000000, 57.413249)" fill="url(#linearGradient-2)">
                        <path d="M317.546743,320.086751 C506.5,290.586751 635.093486,338.299298 635.093486,217.936366 C635.093486,97.5734348 492.922967,0 317.546743,0 C142.17052,0 0,97.5734348 0,217.936366 C0,338.299298 128.593486,349.586751 317.546743,320.086751 Z"></path>
                    </g>
                    <ellipse id="Shadow" fill="#505050" opacity="0.2" cx="213.932702" cy="463.378278" rx="149.684543" ry="7.48973915"></ellipse>
                    <ellipse id="Shadow" fill="#505050" opacity="0.2" cx="559.743428" cy="504.000034" rx="43.743428" ry="9.00003392"></ellipse>
                    <ellipse id="Shadow" fill="#505050" opacity="0.2" cx="177.707676" cy="506.625623" rx="64.2481598" ry="12.4615854"></ellipse>
                    <g id="leaves" transform="translate(471.000000, 304.000000)">
                        <g id="Leaves" transform="translate(57.660469, 91.694892) rotate(-17.000000) translate(-57.660469, -91.694892) translate(23.485915, 6.258509)" fill-rule="nonzero">
                            <path d="M36.6161779,0 C46.3597448,0 45.5913934,23.0394439 48.7173207,27.0620972 C51.843248,31.0847504 59.4500783,31.8725165 59.4500783,41.2161512 C59.4500783,50.559786 52.1981873,50.559786 52.1981873,58.2523395 C52.1981873,65.944893 68.3491062,64.5271384 68.3491062,76.916255 C68.3491062,89.3053716 56.1840132,92.945195 56.1840132,100.295976 C56.1840132,107.646758 62.7587718,110.737892 62.7587718,127.140182 C62.7587718,143.542473 50.3403641,145.964611 31.3871244,145.964611 C12.4338847,145.964611 0,139.959905 0,123.557615 C0,107.155324 20.2358605,108.16188 21.6871485,98.9694191 C23.1384364,89.7769585 9.83162789,84.7707236 9.83162789,74.1254379 C9.83162789,63.4801523 29.0025513,63.4801523 29.0025513,54.7820895 C29.0025513,46.0840267 13.5534513,42.1373055 13.5534513,33.2647089 C13.5534513,24.3921124 17.1847447,22.805216 23.968637,19.209302 C30.7525292,15.6133879 26.872611,0 36.6161779,0 Z" id="Leaf" fill="url(#linearGradient-3)"></path>
                            <path d="M32.2539433,137.891623 C31.8654022,137.992053 31.4817705,137.699964 31.397078,137.239226 C31.3123855,136.778487 31.5587034,136.32357 31.9472445,136.22314 C41.2785472,133.811191 45.8454748,127.993902 45.8454748,118.632171 C45.8454748,118.160614 46.1678455,117.778341 46.56551,117.778341 C46.9631744,117.778341 47.2855452,118.160614 47.2855452,118.632171 C47.2855452,128.852211 42.2091953,135.318396 32.2539433,137.891623 Z" id="Leaves-base" fill="#5ACE87"></path>
                            <path d="M37.0585984,103.139545 C36.6781052,103.285799 36.2690256,103.04094 36.1448937,102.592638 C36.0207618,102.144335 36.2285837,101.662352 36.6090769,101.516099 C42.7738971,99.1464664 45.836185,93.3458089 45.836185,83.9026583 C45.836185,83.4311022 46.1606353,83.0488304 46.5608651,83.0488304 C46.9610948,83.0488304 47.2855452,83.4311022 47.2855452,83.9026583 C47.2855452,94.0412288 43.8631481,100.524014 37.0585984,103.139545 Z" id="Leaves-base" fill="#5ACE87" transform="translate(41.697253, 93.115355) rotate(25.000000) translate(-41.697253, -93.115355) "></path>
                            <path d="M42.7754905,50.8073739 C42.5157071,50.9060967 42.2364063,50.7408147 42.1516547,50.438206 C42.0669031,50.1355974 42.2087944,49.8102539 42.4685778,49.711531 C45.602502,48.520577 47.1557256,45.611795 47.1557256,40.8424422 C47.1557256,40.5241369 47.3772454,40.2660996 47.650504,40.2660996 C47.9237625,40.2660996 48.1452824,40.5241369 48.1452824,40.8424422 C48.1452824,46.0812106 46.3461927,49.4504355 42.7754905,50.8073739 Z" id="Leaves-base" fill="#5ACE87" transform="translate(45.136202, 45.551025) rotate(25.000000) translate(-45.136202, -45.551025) "></path>
                            <path d="M33.3183815,44.7674589 C33.0585981,44.8661818 32.7792973,44.7008997 32.6945457,44.3982911 C32.6097941,44.0956824 32.7516854,43.7703389 33.0114688,43.671616 C36.145393,42.4806621 37.6986166,39.5718801 37.6986166,34.8025272 C37.6986166,34.484222 37.9201364,34.2261847 38.1933949,34.2261847 C38.4666535,34.2261847 38.6881733,34.484222 38.6881733,34.8025272 C38.6881733,40.0412956 36.8890837,43.4105205 33.3183815,44.7674589 Z" id="Leaves-base" fill="#5ACE87" transform="translate(35.679093, 39.511110) scale(-1, 1) rotate(25.000000) translate(-35.679093, -39.511110) "></path>
                            <path d="M23.2963456,91.5630757 C22.9184398,91.70921 22.5121422,91.4645517 22.3888544,91.0166162 C22.2655666,90.5686808 22.4719753,90.0870921 22.849881,89.9409578 C28.45029,87.7753081 31.2305091,82.477232 31.2305091,73.8354347 C31.2305091,73.3642645 31.552753,72.9823055 31.950261,72.9823055 C32.3477691,72.9823055 32.670013,73.3642645 32.670013,73.8354347 C32.670013,83.1720829 29.5321336,89.1517281 23.2963456,91.5630757 Z" id="Leaves-base" fill="#5ACE87" transform="translate(27.511590, 82.293841) scale(-1, 1) rotate(25.000000) translate(-27.511590, -82.293841) "></path>
                            <path d="M16.4184481,131.325849 C16.0405423,131.471983 15.6342447,131.227325 15.5109569,130.77939 C15.3876691,130.331454 15.5940778,129.849865 15.9719835,129.703731 C21.5723925,127.538081 24.3526116,122.240005 24.3526116,113.598208 C24.3526116,113.127038 24.6748555,112.745079 25.0723636,112.745079 C25.4698716,112.745079 25.7921155,113.127038 25.7921155,113.598208 C25.7921155,122.934856 22.6542361,128.914501 16.4184481,131.325849 Z" id="Leaves-base" fill="#5ACE87" transform="translate(20.633692, 122.056614) scale(-1, 1) rotate(25.000000) translate(-20.633692, -122.056614) "></path>
                            <path d="M32.8559035,169.496713 C32.8559035,170.121283 32.4206837,170.627597 31.8838128,170.627597 C31.3469419,170.627597 30.182654,170.121283 30.182654,169.496713 C30.9588459,165.697742 31.3503453,160.429346 31.3571521,153.691525 C31.3673622,143.584793 26.1914136,126.757179 27.2159836,115.59389 C28.2405535,104.430602 38.2792148,83.2074572 40.840791,66.319073 C42.9250573,52.5775769 39.0582881,40.2362948 37.7411721,32.0562691 C36.4240561,23.8762434 37.0810612,14.0931349 37.2561473,14.0931349 C37.4656244,14.0931349 36.836843,24.1294749 38.2792148,32.0562691 C39.7215866,39.9830633 42.9986826,50.4403515 42.5072481,62.176759 C41.5924277,84.0244396 29.7447499,103.01236 29.7447499,117.290216 C29.7447499,131.568071 33.8778906,140.504132 34.4985873,153.126083 C34.9123852,161.540718 34.3648239,166.997594 32.8559035,169.496713 Z" id="Leaves-base" fill="#42B16D"></path>
                        </g>
                        <g id="Leaves" transform="translate(111.707437, 106.313903) scale(-1, 1) rotate(-28.000000) translate(-111.707437, -106.313903) translate(77.207437, 33.313903)" fill-rule="nonzero">
                            <g id="Leaf">
                                <use fill="#EDEDED" xlink:href="#path-4"></use>
                                <use fill="black" fill-opacity="1" filter="url(#filter-5)" xlink:href="#path-4"></use>
                            </g>
                            <path d="M32.2539433,117.65247 C31.8654022,117.73816 31.4817705,117.488943 31.397078,117.09583 C31.3123855,116.702716 31.5587034,116.31457 31.9472445,116.228881 C41.2785472,114.170948 45.8454748,109.207496 45.8454748,101.21984 C45.8454748,100.817496 46.1678455,100.491332 46.56551,100.491332 C46.9631744,100.491332 47.2855452,100.817496 47.2855452,101.21984 C47.2855452,109.939826 42.2091953,115.456931 32.2539433,117.65247 Z" id="Leaves-base" fill="#C0C2C4"></path>
                            <path d="M37.0585984,88.0011563 C36.6781052,88.1259437 36.2690256,87.9170244 36.1448937,87.534522 C36.0207618,87.1520197 36.2285837,86.7407801 36.6090769,86.6159927 C42.7738971,84.5941652 45.836185,79.6449038 45.836185,71.5877791 C45.836185,71.185436 46.1606353,70.8592725 46.5608651,70.8592725 C46.9610948,70.8592725 47.2855452,71.185436 47.2855452,71.5877791 C47.2855452,80.2382529 43.8631481,85.7695218 37.0585984,88.0011563 Z" id="Leaves-base" fill="#C0C2C4" transform="translate(41.697253, 79.448275) rotate(25.000000) translate(-41.697253, -79.448275) "></path>
                            <path d="M42.7754905,43.3500813 C42.5157071,43.434314 42.2364063,43.2932914 42.1516547,43.0350984 C42.0669031,42.7769053 42.2087944,42.4993144 42.4685778,42.4150816 C45.602502,41.3989308 47.1557256,38.9170877 47.1557256,34.8477603 C47.1557256,34.5761746 47.3772454,34.3560109 47.650504,34.3560109 C47.9237625,34.3560109 48.1452824,34.5761746 48.1452824,34.8477603 C48.1452824,39.3176044 46.3461927,42.1923086 42.7754905,43.3500813 Z" id="Leaves-base" fill="#C0C2C4" transform="translate(45.136202, 38.865237) rotate(25.000000) translate(-45.136202, -38.865237) "></path>
                            <path d="M33.3183815,38.1966797 C33.0585981,38.2809124 32.7792973,38.1398897 32.6945457,37.8816967 C32.6097941,37.6235037 32.7516854,37.3459127 33.0114688,37.26168 C36.145393,36.2455292 37.6986166,33.763686 37.6986166,29.6943587 C37.6986166,29.422773 37.9201364,29.2026093 38.1933949,29.2026093 C38.4666535,29.2026093 38.6881733,29.422773 38.6881733,29.6943587 C38.6881733,34.1642027 36.8890837,37.038907 33.3183815,38.1966797 Z" id="Leaves-base" fill="#C0C2C4" transform="translate(35.679093, 33.711836) scale(-1, 1) rotate(25.000000) translate(-35.679093, -33.711836) "></path>
                            <path d="M23.2963456,78.1238327 C22.9184398,78.248518 22.5121422,78.0397697 22.3888544,77.6575802 C22.2655666,77.2753908 22.4719753,76.8644877 22.849881,76.7398025 C28.45029,74.8920177 31.2305091,70.3715709 31.2305091,62.9981803 C31.2305091,62.5961664 31.552753,62.2702698 31.950261,62.2702698 C32.3477691,62.2702698 32.670013,62.5961664 32.670013,62.9981803 C32.670013,70.9644345 29.5321336,76.0664126 23.2963456,78.1238327 Z" id="Leaves-base" fill="#C0C2C4" transform="translate(27.511590, 70.215097) scale(-1, 1) rotate(25.000000) translate(-27.511590, -70.215097) "></path>
                            <path d="M16.4184481,112.050393 C16.0405423,112.175079 15.6342447,111.96633 15.5109569,111.584141 C15.3876691,111.201952 15.5940778,110.791049 15.9719835,110.666363 C21.5723925,108.818578 24.3526116,104.298132 24.3526116,96.9247411 C24.3526116,96.5227272 24.6748555,96.1968305 25.0723636,96.1968305 C25.4698716,96.1968305 25.7921155,96.5227272 25.7921155,96.9247411 C25.7921155,104.890995 22.6542361,109.992973 16.4184481,112.050393 Z" id="Leaves-base" fill="#C0C2C4" transform="translate(20.633692, 104.141658) scale(-1, 1) rotate(25.000000) translate(-20.633692, -104.141658) "></path>
                            <path d="M32.8559035,144.618699 C32.8559035,145.151597 32.4206837,145.583596 31.8838128,145.583596 C31.3469419,145.583596 30.182654,145.151597 30.182654,144.618699 C30.9588459,141.377325 31.3503453,136.882202 31.3571521,131.13333 C31.3673622,122.510021 26.1914136,108.152293 27.2159836,98.6275055 C28.2405535,89.1027175 38.2792148,70.9946167 40.840791,56.5850385 C42.9250573,44.8604613 39.0582881,34.3305807 37.7411721,27.3511848 C36.4240561,20.3717889 37.0810612,12.0246038 37.2561473,12.0246038 C37.4656244,12.0246038 36.836843,20.5878521 38.2792148,27.3511848 C39.7215866,34.1145175 42.9986826,43.0369289 42.5072481,53.0507159 C41.5924277,71.6916859 29.7447499,87.8926394 29.7447499,100.074851 C29.7447499,112.257063 33.8778906,119.881526 34.4985873,130.650881 C34.9123852,137.830451 34.3648239,142.48639 32.8559035,144.618699 Z" id="Leaves-base" fill="#C0C2C4"></path>
                        </g>
                        <g id="vase" transform="translate(49.894848, 159.936909)">
                            <polygon id="Vase-base" fill="url(#linearGradient-6)" points="1.16252295 1.14746256 59.2886707 1.14746256 46.371749 37.8662646 14.0794447 37.8662646"></polygon>
                            <rect id="Vase-base" fill="url(#linearGradient-7)" fill-rule="nonzero" x="0" y="0" width="59.2886707" height="11.4746256"></rect>
                        </g>
                    </g>
                    <g id="Rocket" transform="translate(162.670873, 0.000000)" fill-rule="nonzero">
                        <g id="Smoke">
                            <use fill="#EDEDED" xlink:href="#path-8"></use>
                            <use fill="black" fill-opacity="1" filter="url(#filter-9)" xlink:href="#path-8"></use>
                        </g>
                        <g transform="translate(48.811714, 0.000000)" id="Rocket-base">
                            <path d="M14.3563865,191.957327 C23.9273108,179.91013 38.2836973,171.931854 57.4255459,168.022498 L57.4255459,240.305681 L0,240.305681 C1.06258605e-15,220.120642 4.78546216,204.004524 14.3563865,191.957327 Z" fill="#6E6E6E"></path>
                            <path d="M177.0621,191.957327 C186.633024,179.91013 200.989411,171.931854 220.131259,168.022498 L220.131259,240.305681 L162.705713,240.305681 C162.705713,220.120642 167.491176,204.004524 177.0621,191.957327 Z" fill="#6E6E6E" transform="translate(191.418486, 204.164090) scale(-1, 1) translate(-191.418486, -204.164090) "></path>
                            <g>
                                <use fill="#EDEDED" xlink:href="#path-10"></use>
                                <use fill="black" fill-opacity="1" filter="url(#filter-11)" xlink:href="#path-10"></use>
                            </g>
                            <path d="M61.3985429,207.436679 L90.1051675,207.436679 L90.1051675,212.221116 L61.3985429,212.221116 L61.3985429,207.436679 Z M61.3985429,215.220259 L78.4665998,215.220259 L78.4665998,220.004696 L61.3985429,220.004696 L61.3985429,215.220259 Z" fill="#545454"></path>
                            <g>
                                <use fill="#6E6E6E" xlink:href="#path-12"></use>
                                <use fill="black" fill-opacity="1" filter="url(#filter-13)" xlink:href="#path-12"></use>
                            </g>
                            <path d="M110.544176,126.854593 C94.4222555,126.854593 81.3528567,113.781087 81.3528567,97.6541015 C81.3528567,81.5271156 94.4222555,68.4536104 110.544176,68.4536104 C126.666096,68.4536104 139.735495,81.5271156 139.735495,97.6541015 C139.735495,113.781087 126.666096,126.854593 110.544176,126.854593 Z" fill="#545454"></path>
                            <path d="M110.544176,121.591711 C123.759117,121.591711 134.472614,110.874849 134.472614,97.6541015 C134.472614,84.4333545 123.759117,73.7164916 110.544176,73.7164916 C97.3292347,73.7164916 86.6157379,84.4333545 86.6157379,97.6541015 C86.6157379,110.874849 97.3292347,121.591711 110.544176,121.591711 Z" fill="#FFFFFF"></path>
                            <path d="M68.9106551,254.187882 L154.570428,254.187882 L151.434387,262.100548 C149.319183,267.437503 144.16015,270.942262 138.419316,270.942262 L85.0617672,270.942262 C79.3209333,270.942262 74.1619001,267.437503 72.0466957,262.100548 L68.9106551,254.187882 Z" fill="#6E6E6E"></path>
                            <path d="M110.06563,167.543802 L110.06563,167.543802 C113.561747,167.543802 116.454567,170.263612 116.6699,173.753091 L121.072193,245.092647 L99.0590667,245.092647 L103.46136,173.753091 C103.676692,170.263612 106.569513,167.543802 110.06563,167.543802 Z" fill="#545454"></path>
                        </g>
                    </g>
                    <g id="Group-5" transform="translate(78.601472, 226.235542)" fill-rule="nonzero">
                        <g id="Group-3" transform="translate(0.006960, 0.000000)">
                            <g id="Table" transform="translate(0.000000, 93.031953)" fill="url(#linearGradient-14)">
                                <path d="M29.6713075,133.724777 L29.6713075,12.4382774 L16.7861112,12.4382774 L29.6713075,133.724777 Z M14.3533123,10.2523659 L31.8595925,10.2523659 L31.8595925,142.500012 C31.8595925,143.405446 31.1247961,144.139446 30.2183788,144.139446 C29.2852174,144.139446 28.5024443,143.436111 28.4039679,142.509166 L14.3533123,10.2523659 Z" id="Table-base" transform="translate(23.106452, 77.195906) scale(-1, 1) translate(-23.106452, -77.195906) "></path>
                                <path d="M253.970523,133.724777 L253.970523,12.4382774 L241.085327,12.4382774 L253.970523,133.724777 Z M238.652528,10.2523659 L256.158808,10.2523659 L256.158808,142.500012 C256.158808,143.405446 255.424012,144.139446 254.517594,144.139446 C253.584433,144.139446 252.80166,143.436111 252.703183,142.509166 L238.652528,10.2523659 Z" id="Table-base"></path>
                                <rect id="Table-base" x="0.676530868" y="0.415764148" width="268.611987" height="10.9295575"></rect>
                            </g>
                            <g id="Imac" transform="translate(69.607509, 0.000000)">
                                <rect id="Imac-base" fill="#545454" x="53.6129832" y="78.6928143" width="30.0889192" height="18.0337699"></rect>
                                <rect id="Imac-base" fill="#000000" x="0" y="0" width="136.220743" height="79.2392921"></rect>
                                <g id="Display" transform="translate(5.467928, 4.784437)">
                                    <rect id="Display-base" fill="#E4E4E4" x="0.00278407765" y="0.680341334" width="125.279318" height="68.3097346"></rect>
                                    <g id="Display-base">
                                        <use fill="#EDEDED" xlink:href="#path-15"></use>
                                        <use fill="black" fill-opacity="1" filter="url(#filter-16)" xlink:href="#path-15"></use>
                                    </g>
                                    <g id="Display-base">
                                        <use fill="#EDEDED" xlink:href="#path-17"></use>
                                        <use fill="black" fill-opacity="1" filter="url(#filter-18)" xlink:href="#path-17"></use>
                                    </g>
                                    <g id="Display-base">
                                        <use fill="#EDEDED" xlink:href="#path-19"></use>
                                        <use fill="black" fill-opacity="1" filter="url(#filter-20)" xlink:href="#path-19"></use>
                                    </g>
                                    <g id="Display-base">
                                        <use fill="#EDEDED" xlink:href="#path-21"></use>
                                        <use fill="black" fill-opacity="1" filter="url(#filter-22)" xlink:href="#path-21"></use>
                                    </g>
                                    <g id="Display-base" transform="translate(77.917981, 4.100946)">
                                        <rect fill="#D4D4D4" x="0.020261424" y="0" width="44.2906401" height="30.7570978"></rect>
                                        <path d="M3.0318627,24.4162092 L8.20475382,15.5533607 C8.65018832,14.7901862 9.62995951,14.532607 10.393134,14.9780415 C10.5226367,15.0536271 10.6408713,15.1470418 10.7443673,15.2555439 L14.5674379,19.2635336 C15.177352,19.9029489 16.1901337,19.9268643 16.829549,19.3169501 C16.8863354,19.2627837 16.9390597,19.2045127 16.987295,19.1426091 L25.1719919,8.63863062 C25.7151213,7.94159571 26.7204732,7.81683064 27.4175081,8.35996004 C27.5558787,8.46777836 27.6755772,8.59761738 27.7718125,8.74428014 L31.2618983,14.0631739 C31.7466791,14.8019803 32.7385924,15.0079087 33.4773988,14.5231279 C33.6431507,14.4143669 33.7872465,14.2757488 33.9023466,14.1143343 L41.0886279,4.03641324" stroke="#FFFFFF" stroke-width="1.2" stroke-linecap="round" stroke-linejoin="round"></path>
                                        <path d="M3.0318627,24.4162092 L14.2080641,15.4782899 C14.753982,15.0417042 15.5201261,15.0100519 16.1001961,15.4001188 L20.4090338,18.2975879 C21.0488575,18.727836 21.9045293,18.6405729 22.4443293,18.0900245 L26.5733,13.8788386 C27.1735963,13.2665893 28.1498206,13.2363896 28.786813,13.8103633 L33.5153591,18.0711062 C34.125809,18.6211632 35.0536807,18.6193795 35.6620112,18.0669795 L41.4804176,12.7835228" stroke="#FFFFFF" stroke-width="1.2" stroke-linecap="round" stroke-linejoin="round"></path>
                                    </g>
                                    <g id="Display-base" transform="translate(15.036803, 4.100946)">
                                        <path d="M30.6518512,46.3756019 C31.4613379,46.5207008 32.1708272,46.9532768 32.6704042,47.5636463 C33.0493202,47.2664836 33.5271498,47.0892473 34.0464626,47.0892473 C35.2773811,47.0892473 36.2752378,48.0850041 36.2752378,49.3133323 C36.2752378,49.4441511 36.2639195,49.5723319 36.2422069,49.6969529 C36.2532047,49.6968479 36.2642151,49.6967952 36.2752378,49.6967952 C37.3095978,49.6967952 38.2354899,50.1602245 38.8557795,50.8903632 C39.7649809,49.6550288 41.2310062,48.8531768 42.8847091,48.8531768 C45.6436644,48.8531768 47.8802397,51.0850454 47.8802397,53.8381949 C47.8802397,53.8895083 47.8794628,53.9406406 47.87792,53.9915808 C47.8786932,53.9915803 47.8794664,53.99158 47.8802397,53.99158 C49.7478403,53.99158 51.2618297,55.5023834 51.2618297,57.3660538 C51.2618297,59.2297242 49.7478403,60.7405275 47.8802397,60.7405275 C47.1796187,60.7405275 46.5287628,60.5279065 45.9889347,60.1637983 C45.4692332,61.3605119 44.2749436,62.1976866 42.8847091,62.1976866 C41.2823863,62.1976866 39.9403538,61.0855965 39.5914321,59.5926947 C39.1108014,60.006232 38.490004,60.2620046 37.8098005,60.2794214 C36.9534936,61.0431549 35.8233039,61.5074534 34.5844428,61.5074534 C32.8330365,61.5074534 31.2988222,60.5795006 30.4486019,59.1894144 C29.4298392,60.7684637 27.6527597,61.8142237 25.6309148,61.8142237 C23.6090699,61.8142237 21.8319905,60.7684637 20.8132278,59.1894144 C19.9630074,60.5795006 18.4287932,61.5074534 16.6773869,61.5074534 C15.4385258,61.5074534 14.3083361,61.0431549 13.4520291,60.2794214 C12.7718257,60.2620046 12.1510282,60.006232 11.6703975,59.5926947 C11.3214759,61.0855965 9.9794434,62.1976866 8.37712059,62.1976866 C6.98688603,62.1976866 5.79259645,61.3605119 5.27289497,60.1637983 C4.73306688,60.5279065 4.08221093,60.7405275 3.38158996,60.7405275 C1.5139894,60.7405275 0,59.2297242 0,57.3660538 C0,55.5023834 1.5139894,53.99158 3.38158996,53.99158 C3.38236326,53.99158 3.3831365,53.9915803 3.38390968,53.9915808 C3.3823669,53.9406406 3.38158996,53.8895083 3.38158996,53.8381949 C3.38158996,51.0850454 5.61816521,48.8531768 8.37712059,48.8531768 C10.0308234,48.8531768 11.4968488,49.6550288 12.4060502,50.8903632 C13.0263397,50.1602245 13.9522318,49.6967952 14.9865919,49.6967952 C14.9976146,49.6967952 15.008625,49.6968479 15.0196228,49.6969529 C14.9979101,49.5723319 14.9865919,49.4441511 14.9865919,49.3133323 C14.9865919,48.0850041 15.9844485,47.0892473 17.2153671,47.0892473 C17.7346798,47.0892473 18.2125095,47.2664836 18.5914255,47.5636463 C19.0910024,46.9532768 19.8004917,46.5207008 20.6099785,46.3756019 C21.0205211,45.6903223 21.5912459,45.1116198 22.2705504,44.6909883 C22.5679723,43.130551 23.9421718,41.9508441 25.5924877,41.9508441 C27.2241112,41.9508441 28.5858378,43.1039783 28.9039054,44.638113 C29.6216832,45.0625235 30.2238251,45.6611388 30.6518512,46.3756019 Z" fill="#F2F2F2"></path>
                                        <g id="Group-3" transform="translate(7.839140, 0.000000)">
                                            <path d="M2.30562952,30.7537267 C3.84271587,28.82363 6.14834539,27.5454202 9.22251808,26.9190974 L9.22251808,38.4996778 L0,38.4996778 C1.70650865e-16,35.2658071 0.768543173,32.6838234 2.30562952,30.7537267 Z" id="Display-base" fill="#6E6E6E"></path>
                                            <path d="M28.4360974,30.7537267 C29.9731838,28.82363 32.2788133,27.5454202 35.352986,26.9190974 L35.352986,38.4996778 L26.1304679,38.4996778 C26.1304679,35.2658071 26.8990111,32.6838234 28.4360974,30.7537267 Z" id="Display-base" fill="#6E6E6E" transform="translate(30.741727, 32.709388) scale(-1, 1) translate(-30.741727, -32.709388) "></path>
                                            <g id="Display-base">
                                                <use fill="#EDEDED" xlink:href="#path-23"></use>
                                                <use fill="black" fill-opacity="1" filter="url(#filter-24)" xlink:href="#path-23"></use>
                                            </g>
                                            <path d="M11.7442122,7.43918077 C13.2199623,3.33625846 15.2230071,0.856532175 17.7533473,0 C20.2836875,0.856532175 22.2867323,3.33625846 23.7624817,7.43918077 L11.7442122,7.43918077 Z" id="Display-base" fill="#747474"></path>
                                            <path d="M17.7533473,20.3235351 C15.1641738,20.3235351 13.0652339,18.2290123 13.0652339,15.6452874 C13.0652339,13.0615625 15.1641738,10.9670397 17.7533473,10.9670397 C20.3425208,10.9670397 22.4414607,13.0615625 22.4414607,15.6452874 C22.4414607,18.2290123 20.3425208,20.3235351 17.7533473,20.3235351 Z" id="Display-base" fill="#545454"></path>
                                            <path d="M17.7533473,19.4814741 C19.87786,19.4814741 21.5993997,17.7635572 21.5993997,15.6452874 C21.5993997,13.5270175 19.87786,11.8091007 17.7533473,11.8091007 C15.6288346,11.8091007 13.9072949,13.5270175 13.9072949,15.6452874 C13.9072949,17.7635572 15.6288346,19.4814741 17.7533473,19.4814741 Z" id="Display-base" fill="#FFFFFF"></path>
                                            <path d="M11.0670217,40.7237628 L24.8239445,40.7237628 L24.3188691,41.9950569 C23.9799782,42.8480582 23.1549985,43.4080033 22.2371433,43.4080033 L13.6538229,43.4080033 C12.7359677,43.4080033 11.9109879,42.8480582 11.5720971,41.9950569 L11.0670217,40.7237628 Z" id="Display-base" fill="#6E6E6E"></path>
                                            <path d="M17.676493,26.8424048 L17.676493,26.8424048 C18.2379906,26.8424048 18.7026173,27.2791785 18.7372845,27.8396049 L19.4441423,39.2666037 L15.9088437,39.2666037 L16.6157015,27.8396049 C16.6503687,27.2791785 17.1149953,26.8424048 17.676493,26.8424048 Z" id="Display-base" fill="#545454"></path>
                                        </g>
                                    </g>
                                </g>
                            </g>
                        </g>
                    </g>
                    <g id="Man" transform="translate(71.766562, 169.505783)">
                        <g id="Foot" transform="translate(54.679285, 184.542587)" fill-rule="nonzero">
                            <path d="M85.4412932,110.675121 C85.2503296,109.687658 88.5250021,96.8413206 93.8094396,100.604386 C99.0938772,104.367452 99.6101102,110.353126 103.56749,109.890821 C106.205743,109.582618 107.342042,110.371887 106.976388,112.25863 L100.199095,117.826262 L93.7545612,118.771704 C88.3396916,114.032291 85.5686022,111.33343 85.4412932,110.675121 Z" id="leg" fill="#A6A6A6" transform="translate(96.238261, 109.343863) rotate(67.000000) translate(-96.238261, -109.343863) "></path>
                            <path d="M83.5538981,113.938786 C85.281025,113.162817 87.4497739,117.390247 90.6156096,117.390247 C93.7814454,117.390247 95.7507233,113.551704 96.5597799,113.938786 C98.9250363,115.07041 102.357514,115.620734 106.135256,116.952012 C115.429363,120.227259 116.329499,120.697414 114.977428,125.56425 C114.977428,126.645936 104.420883,127.186779 83.307792,127.186779 C82.453531,124.925026 81.993129,122.812632 81.9265858,120.849598 C81.8267711,117.905046 81.8267711,114.714754 83.5538981,113.938786 Z" id="Shoes" fill="#3378E4" transform="translate(98.684933, 120.515231) rotate(18.000000) translate(-98.684933, -120.515231) "></path>
                            <path d="M22.4742252,102.456504 C22.2832617,101.469041 26.5416957,92.5133675 31.8261332,96.2764331 C37.1105707,100.039499 38.3676456,100.905333 40.6678582,102.09195 C42.2013332,102.883028 43.328872,103.436764 44.0504747,103.753158 L37.2731815,109.32079 L30.2366574,109.372661 C25.1890117,105.420198 22.6015343,103.114812 22.4742252,102.456504 Z" id="leg" fill="#A6A6A6" transform="translate(33.259259, 102.365451) scale(-1, 1) rotate(44.000000) translate(-33.259259, -102.365451) "></path>
                            <path d="M29.763765,102.120346 C32.8384345,101.121325 36.082387,102.440776 36.8914435,102.827858 C38.0404271,103.377573 45.8140686,109.797039 40.5978452,114.234989 C39.3029139,115.336713 34.5132731,116.108494 26.2289228,116.55033 C25.3746619,114.288577 24.9142598,112.176183 24.8477167,110.213149 C24.7479019,107.268597 26.6890955,103.119367 29.763765,102.120346 Z" id="Shoes" fill="#3378E4" transform="translate(33.612595, 109.152200) scale(-1, 1) rotate(18.000000) translate(-33.612595, -109.152200) "></path>
                            <path d="M15.1606888,14.3894589 C44.7644145,0.547476856 62.2291441,-2.91301866 67.5548774,4.00797238 C75.5434775,14.3894589 82.3865284,48.5144871 42.4135907,98.9957522 C39.5320439,101.034653 36.9724481,101.893771 34.7348034,101.573106 C32.4971587,101.252441 30.6329436,99.2118084 29.1421582,95.4512091 L40.185834,50.3627048 L8.98999937,46.1336605 L0.0524059355,26.6258573 L15.1606888,14.3894589 Z" id="Pants" fill="url(#linearGradient-25)"></path>
                            <path d="M76.6748844,14.3894589 C107.979252,10.8700256 126.294302,12.5708044 131.620036,19.4917954 C139.608636,29.873282 135.654538,54.0886985 106.561777,105.254767 C101.012915,106.766277 97.1196616,107.361699 94.8820169,107.041034 C92.6443721,106.720369 90.7801571,104.679737 89.2893717,100.919138 L101.70003,50.3627048 L54.433012,57.115135 L61.5666015,26.6258573 L76.6748844,14.3894589 Z" id="Pants" fill="url(#linearGradient-25)"></path>
                        </g>
                        <g id="Body" transform="translate(7.518402, 82.018927)">
                            <path d="M39.0919008,10.2099129 C51.7570103,16.0021329 59.4629454,17.4501878 62.209706,14.5540779 C64.9564666,11.6579679 66.1671124,9.51670631 65.8416435,8.13029316 C88.4618614,11.2801704 102.44428,18.4727067 107.7889,29.7079021 C114.215287,43.2171339 125.551646,78.2531102 133.199225,83.3510696 C134.571556,81.5480024 141.860399,77.5260405 155.065756,71.2851839 C153.023859,70.2771285 152.00291,68.938241 152.00291,67.2685216 C152.00291,64.7639424 153.279363,65.572885 154.182146,64.6482225 C155.080128,63.7284776 155.506464,62.3069147 156.790325,62.3371304 C157.940118,62.3641909 159.202726,62.6103844 160.479918,62.9774223 C161.122697,63.1621436 162.582775,62.1037218 163.22042,62.3371304 C166.74968,63.6290097 170.060046,66.1241934 170.060046,67.0236542 C170.060046,67.923115 170.521225,69.5282595 168.875318,71.2851839 C168.288738,71.9113291 167.060194,72.6595876 165.189686,73.5299593 C146.589623,95.9185616 134.482304,107.112863 128.867726,107.112863 C120.445861,107.112863 108.01812,89.9873254 104.69036,86.4032433 C102.318332,94.1158573 86.0620603,111.884618 55.9215439,139.709524 L6.26708717,93.8976649 L1.37193762,43.6808958 L41.0571537,4.24265964 L39.0919008,10.2099129 Z" fill="#A6A6A6" fill-rule="nonzero"></path>
                            <mask id="mask-28" fill="white">
                                <use xlink:href="#path-27"></use>
                            </mask>
                            <use fill="url(#linearGradient-26)" xlink:href="#path-27"></use>
                            <path d="M101.99469,81.0538893 C97.0175068,74.9072049 93.4221749,70.2632563 91.2086949,67.1220434 C89.7513211,71.255238 103.280478,115.36198 119.435312,118.377491 C130.2052,120.387833 133.258464,119.57037 128.595104,115.925103 L101.99469,81.0538893 Z" id="Shadow" fill="#FF9600" fill-rule="nonzero" opacity="0.5" mask="url(#mask-28)"></path>
                        </g>
                        <g id="Head" transform="translate(28.023134, 0.000000)" fill-rule="nonzero">
                            <path d="M23.6313489,76.7612742 C21.5185839,83.5921906 19.8188867,88.1129875 18.5322572,90.3236648 C16.6023129,93.6396808 20.0365122,101.982502 28.4424406,101.982502 C34.0463928,101.982502 40.6405603,99.7940076 48.2249428,95.4170195 C45.3824249,90.9306449 43.9611659,86.6997604 43.9611659,82.7243659 C43.9611659,78.7489714 44.7716201,75.3438399 46.3925285,72.5089714 C49.4645887,74.4821471 51.9852487,74.4821471 53.9545083,72.5089714 C56.9083978,69.5492078 69.4235509,34.9657039 35.8879865,26.5001102 C27.7701596,20.6275619 15.3390141,34.9657039 15.3390141,41.3418634 C15.3390141,45.5926364 15.3390141,49.371881 15.3390141,52.6795973 C11.3429726,50.9522445 9.34495176,52.3060839 9.34495176,56.7411154 C9.34495176,61.176147 11.9277561,64.2092237 17.0933647,65.8403457 L23.6313489,76.7612742 Z" id="Face" fill="#A6A6A6"></path>
                            <path d="M21.6691437,4.69308863 C31.4209195,14.4987355 40.1663205,4.00375554 50.0709122,11.9932398 C56.6739733,17.3195626 58.9640079,22.9153805 56.941016,28.7806937 C61.5150458,35.0665862 61.5150458,43.9297811 56.941016,55.3702782 C52.3669862,66.8107754 45.7417877,73.4657247 37.0654205,75.3351261 C24.9192709,69.9846412 17.886043,64.9844251 15.9657368,60.3344778 C15.6480241,59.5651487 17.6546344,59.7932858 19.2300115,56.0804869 C20.8053887,52.367688 21.2403254,48.1148837 18.2176348,47.1141763 C15.381554,46.1752489 12.803871,47.6375151 10.4845856,51.5009748 C10.4845856,42.6498511 10.4845856,38.2242893 10.4845856,38.2242893 C10.4845856,38.2242893 -0.943405499,26.7431256 0.844426643,15.5602751 C2.59630049,4.60234286 11.917368,-5.11255824 21.6691437,4.69308863 Z" id="Hair" fill="#000000" transform="translate(30.513059, 37.988271) scale(-1, 1) translate(-30.513059, -37.988271) "></path>
                        </g>
                        <g id="Chair" transform="translate(0.000000, 127.812829)" fill-rule="nonzero">
                            <polygon id="Chair-base" fill="#9F9F9F" points="105.257624 125.762355 113.459516 125.762355 113.459516 159.253417 105.257624 159.253417"></polygon>
                            <circle id="Wheel" fill="#060606" cx="64.9316509" cy="202.313354" r="6.15141956"></circle>
                            <circle id="Wheel" fill="#060606" cx="151.051525" cy="202.313354" r="6.15141956"></circle>
                            <circle id="Wheel" fill="#060606" cx="109.35857" cy="209.148265" r="6.15141956"></circle>
                            <path d="M101.075948,166.712968 L100.602324,161.619741 C100.592753,161.516823 100.589027,161.413445 100.591163,161.310105 C100.622364,159.800501 101.871433,158.602018 103.381038,158.633219 L115.129803,158.876045 C115.180963,158.877103 115.232083,158.879596 115.283103,158.883523 C116.788578,158.99939 117.915078,160.313746 117.799211,161.819221 L117.462513,166.194007 L154.868559,191.8689 C154.970029,191.938547 155.068373,192.012641 155.163303,192.090967 C156.943859,193.560075 157.196337,196.194448 155.727229,197.975003 C154.042008,200.017488 151.141437,200.570855 148.822624,199.292254 L116.295538,181.356724 L114.514531,204.497684 C114.315468,207.084142 112.192716,209.101147 109.599468,209.167899 C107.030499,209.234026 104.849953,207.297611 104.612009,204.738831 L102.378207,180.717113 L68.691152,199.292254 C66.3723384,200.570855 63.4717676,200.017488 61.7865461,197.975003 C60.3174382,196.194448 60.5699164,193.560075 62.350472,192.090967 C62.4454028,192.012641 62.5437467,191.938547 62.6452162,191.8689 L100.79255,165.6852 L101.075948,166.712968 Z" id="Chair-base" fill="#545454"></path>
                            <path d="M13.1425553,1.22300643 C9.00461134,-1.08741936 2.6802492,1.07602184 0.682613033,3.97555398 C1.32552817,8.07535535 1.73225922,9.84726761 1.74980107,9.94185332 C8.24724777,44.976106 33.4240637,78.7081807 53.0194554,99.8203257 C64.189577,111.855055 73.6578314,121.455557 81.4242186,128.621833 C88.9628362,129.79553 95.9011888,128.991532 102.239276,126.209838 C106.371268,124.396368 112.851136,124.930159 112.666592,119.247704 C112.286209,107.534988 101.880709,101.619132 97.7742891,84.6541886 C93.9218412,68.7384863 98.2550552,36.316823 86.6116494,29.6429381 C74.9682437,22.9690531 60.3861483,34.553492 38.1634995,24.9030502 C22.4436576,18.0765274 17.2804992,3.53343221 13.1425553,1.22300643 Z" id="Chair-base" fill="#444444"></path>
                            <path d="M0.595488454,3.59156895 C5.65443524,43.820029 10.0466874,70.2893655 13.772245,82.9995783 C19.4223813,102.275736 26.6207497,110.391917 34.3907084,118.122009 C42.1606671,125.8521 71.2176518,139.321242 94.431145,140.513674 C114.977052,141.569077 143.669161,135.564343 154.282505,128.963382 C164.895848,122.36242 170.386421,108.210635 158.386618,104.691784 C146.386814,101.172933 107.704654,115.663075 104.060577,114.082146 C83.7851992,105.285971 89.9659024,44.2590687 80.191425,37.787291 C70.9010705,31.6360558 51.0888927,39.5349462 27.2276425,29.0039966 C20.2336534,25.917262 11.3562687,17.4464528 0.595488454,3.59156895 Z" id="Chair-base" fill="url(#linearGradient-14)"></path>
                        </g>
                    </g>
                </g>
                <path d="M801.25842,-2.84217094e-14 L518.247339,9.9832424e-15 L1.75842021,9.9832424e-15 C-9.50343737,154.437034 33.329896,242.49376 130.25842,264.17018 C194.437175,278.522669 323.989792,178.68831 401.50842,177.689916 C499.603194,176.426514 578.75842,248.630757 625.25842,264.17018 C656.25842,274.529794 714.925087,268.223942 801.25842,245.252622 L801.25842,-2.84217094e-14 Z" id="Path-8" fill="url(#linearGradient-29)"></path>
                <circle id="Oval-Copy" fill-opacity="0.1" fill="#FFFFFF" cx="684.5" cy="124.5" r="44.5"></circle>
                <circle id="Oval" fill="#FFFFFF" fill-rule="nonzero" cx="684" cy="124" r="34"></circle>
                <circle id="Oval-6" fill="#FFFFFF" cx="738" cy="20" r="3"></circle>
                <circle id="Oval-6-Copy" fill="#FFFFFF" cx="684" cy="52" r="2"></circle>
                <circle id="Oval-6-Copy-2" fill="#FFFFFF" cx="595" cy="139" r="2"></circle>
                <circle id="Oval-6-Copy-15" fill="#FFFFFF" cx="652" cy="202" r="2"></circle>
                <circle id="Oval-6-Copy-8" fill="#FFFFFF" cx="512" cy="183" r="2"></circle>
                <circle id="Oval-6-Copy-5" fill="#FFFFFF" cx="500" cy="84" r="2"></circle>
                <circle id="Oval-6-Copy-7" fill-opacity="0.4" fill="#FFFFFF" cx="392" cy="30" r="2"></circle>
                <circle id="Oval-6-Copy-10" fill="#FFFFFF" cx="297" cy="149" r="2"></circle>
                <circle id="Oval-6-Copy-12" fill="#FFFFFF" cx="180" cy="143" r="2"></circle>
                <circle id="Oval-6-Copy-6" fill="#FFFFFF" cx="400" cy="107" r="2"></circle>
                <circle id="Oval-6-Copy-3" fill-opacity="0.3" fill="#FFFFFF" cx="534" cy="30" r="2"></circle>
                <circle id="Oval-6-Copy-9" fill-opacity="0.3" fill="#FFFFFF" cx="297" cy="63" r="2"></circle>
                <circle id="Oval-6-Copy-13" fill-opacity="0.3" fill="#FFFFFF" cx="102" cy="94" r="2"></circle>
                <circle id="Oval-6-Copy-11" fill-opacity="0.1" fill="#FFFFFF" cx="166" cy="34" r="2"></circle>
                <circle id="Oval-6-Copy-14" fill-opacity="0.1" fill="#FFFFFF" cx="227" cy="105" r="2"></circle>
                <circle id="Oval-6-Copy-4" fill-opacity="0.3" fill="#FFFFFF" cx="777" cy="139" r="2"></circle>
            </g>
        </g>
    </g>
</svg>