<?xml version="1.0" encoding="UTF-8"?>
<svg width="240px" height="57px" viewBox="0 0 240 57" version="1.1" xmlns="http://www.w3.org/2000/svg" xmlns:xlink="http://www.w3.org/1999/xlink">
    <!-- Generator: Sketch 51.3 (57544) - http://www.bohemiancoding.com/sketch -->
    <title>Group</title>
    <desc>Created with Sketch.</desc>
    <defs></defs>
    <g id="Welcome" stroke="none" stroke-width="1" fill="none" fill-rule="evenodd">
        <g id="Our-Work" transform="translate(-80.000000, -32.000000)" fill="#000000">
            <g id="Group-2">
                <g id="Group" transform="translate(80.000000, 32.000000)">
                    <polygon id="Fill-1" points="51.0664635 19.225352 53.5514421 19.225352 59.4087811 35.8482027 59.4682661 35.7888814 59.3794249 31.3740896 59.3794249 19.225352 61.361485 19.225352 61.361485 38.9888769 58.8765064 38.9888769 53.0189099 22.3366235 52.9599399 22.3956869 53.0485236 26.8700579 53.0485236 38.9888769 51.0664635 38.9888769"></polygon>
                    <path d="M76.0651159,21.8624661 L76.0061459,21.8624661 L73.8167897,31.1072986 L78.2542146,31.1072986 L76.0651159,21.8624661 Z M73.343485,32.8851312 L71.8051159,39.3741041 L69.852412,38.8409864 L74.8522403,19.2252489 L77.2187639,19.2252489 L82.2185923,38.8409864 L80.2658884,39.3741041 L78.7275193,32.8851312 L73.343485,32.8851312 Z" id="Fill-2"></path>
                    <polygon id="Fill-3" points="94.9104206 21.0031846 90.6501631 21.0031846 90.6501631 19.225352 101.063897 19.225352 101.063897 21.0031846 96.8924807 21.0031846 96.8924807 38.9888769 94.9104206 38.9888769"></polygon>
                    <polygon id="Fill-4" points="114.731948 21.0031846 110.471691 21.0031846 110.471691 19.225352 120.885425 19.225352 120.885425 21.0031846 116.714009 21.0031846 116.714009 38.9888769 114.731948 38.9888769"></polygon>
                    <polygon id="Fill-5" points="131.269725 19.225352 140.884403 19.225352 140.884403 21.0031846 133.251785 21.0031846 133.251785 27.5218181 139.553073 27.5218181 139.553073 29.2999086 133.251785 29.2999086 133.251785 37.2110443 140.884403 37.2110443 140.884403 38.9888769 131.269725 38.9888769"></polygon>
                    <path d="M153.221511,28.4109149 L156.120567,28.4109149 C157.836618,28.4109149 158.901682,27.1367973 158.901682,24.4699195 C158.901682,21.8922814 157.658936,21.0032362 155.647262,21.0032362 L153.221511,21.0032362 L153.221511,28.4109149 Z M151.239451,19.2254036 L156.564258,19.2254036 C158.516704,19.2254036 160.972584,20.9142543 160.972584,24.4699195 C160.972584,26.8997701 159.996103,29.2109783 157.570352,30.0404443 L161.65267,38.5148742 L159.877906,39.3742588 L155.440223,30.1887475 L153.221511,30.1887475 L153.221511,38.9889285 L151.239451,38.9889285 L151.239451,19.2254036 Z" id="Fill-6"></path>
                    <path d="M176.149262,37.2111217 C177.924283,37.2111217 179.137416,35.9073434 179.137416,33.0330991 C179.137416,30.0997914 177.687631,29.1220222 175.61673,29.1220222 L173.457245,29.1220222 L173.457245,37.2111217 L176.149262,37.2111217 Z M175.232009,27.3441896 C177.273296,27.3441896 178.220163,26.2774385 178.220163,24.2032575 C178.220163,21.7736647 177.007288,21.003262 174.610893,21.003262 L173.457245,21.003262 L173.457245,27.3441896 L175.232009,27.3441896 Z M169.877588,38.9889543 L169.877588,37.2111217 L171.475185,37.2111217 L171.475185,21.003262 L169.877588,21.003262 L169.877588,19.2254294 L175.912609,19.2254294 C178.072352,19.2254294 180.291064,21.0329226 180.291064,24.2032575 C180.291064,25.8330448 179.640335,27.2255471 178.190549,28.0256104 C180.409262,29.0033796 181.208318,30.6924882 181.208318,33.0630176 C181.208318,37.1814611 178.959734,38.9889543 176.238103,38.9889543 L169.877588,38.9889543 Z" id="Fill-8"></path>
                    <path d="M194.994567,21.8624661 L194.935597,21.8624661 L192.74624,31.1072986 L197.183665,31.1072986 L194.994567,21.8624661 Z M192.272936,32.8851312 L190.734567,39.3741041 L188.781863,38.8409864 L193.781691,19.2252489 L196.148215,19.2252489 L201.148043,38.8409864 L199.195339,39.3741041 L197.65697,32.8851312 L192.272936,32.8851312 Z" id="Fill-10"></path>
                    <path d="M217.626592,23.729229 C217.301099,22.2774054 216.591142,20.8255819 214.904961,20.8255819 C213.040841,20.8255819 212.30127,22.3367267 212.30127,23.9959167 C212.30127,25.5960434 212.626764,26.0997584 215.733116,27.9663149 C218.158867,29.4183964 219.815691,30.6331928 219.815691,33.685143 C219.815691,36.7964145 218.158867,39.2556679 214.845476,39.2556679 C211.354918,39.2556679 210.082558,36.9444597 209.786936,33.8037855 L211.768996,33.5368398 C212.035262,35.7296633 212.508567,37.3888534 214.904961,37.3888534 C216.620755,37.3888534 217.833631,36.2333783 217.833631,33.8628489 C217.833631,31.2555502 216.147451,30.366505 214.105906,29.1813692 C211.827966,27.8479303 210.31921,26.8995638 210.31921,23.9959167 C210.31921,21.3290389 212.094489,18.9587674 214.904961,18.9587674 C217.685562,18.9587674 219.046506,20.9439665 219.549425,23.4328805 L217.626592,23.729229 Z" id="Fill-12"></path>
                    <polygon id="Fill-14" points="230.377648 19.225352 239.992326 19.225352 239.992326 21.0031846 232.359708 21.0031846 232.359708 27.5218181 238.660996 27.5218181 238.660996 29.2999086 232.359708 29.2999086 232.359708 37.2110443 239.992326 37.2110443 239.992326 38.9888769 230.377648 38.9888769"></polygon>
                    <path d="M4.44494421,16.0019891 L4.39653219,15.9692335 L4.46554506,15.9222923 L4.5144721,15.955048 L4.44494421,16.0019891 Z M4.60434335,21.9263783 L4.64580258,16.5975231 L19.0020258,6.89101629 L25.8899227,11.3447538 L34.236103,16.6898579 L34.270867,21.7633738 L38.8210815,18.8532787 L38.7760172,13.057333 L27.8737854,6.07521991 L18.877133,0.257866968 L0.124686695,12.9363692 L0.0706094421,18.8532787 L4.60434335,21.9263783 Z" id="Fill-17"></path>
                    <polygon id="Fill-20" points="7.98843133 38.4144172 8.09143133 38.3449172 8.01943133 38.2964172 7.91593133 38.3654172"></polygon>
                    <path d="M4.44494421,41.3592516 L4.39653219,41.3264959 L4.46554506,41.2795548 L4.5144721,41.3123104 L4.44494421,41.3592516 Z M5.15021459e-05,38.4145955 L0.0760171674,44.2105412 L18.8555021,56.8495819 L38.7935279,44.2105412 L38.8161888,38.4145955 L34.2672618,35.5088851 L34.2497511,40.5401023 L18.9858026,50.2164326 L4.60872103,40.5401023 L4.58193991,35.7270842 L5.15021459e-05,38.4145955 Z" id="Fill-22"></path>
                    <polygon id="Fill-24" points="7.98843133 19.0015068 8.09143133 18.9320068 8.01943133 18.8835068 7.91593133 18.9525068"></polygon>
                </g>
            </g>
        </g>
    </g>
</svg>