<?xml version="1.0" encoding="UTF-8"?>
<svg width="801px" height="920px" viewBox="0 0 801 920" version="1.1" xmlns="http://www.w3.org/2000/svg" xmlns:xlink="http://www.w3.org/1999/xlink">
    <!-- Generator: Sketch 51.3 (57544) - http://www.bohemiancoding.com/sketch -->
    <title>Group 6</title>
    <desc>Created with Sketch.</desc>
    <defs>
        <linearGradient x1="26.5873413%" y1="98.4687728%" x2="86.4381232%" y2="0.706233556%" id="linearGradient-1">
            <stop stop-color="#202020" offset="0%"></stop>
            <stop stop-color="#000000" offset="100%"></stop>
        </linearGradient>
        <linearGradient x1="17.9914607%" y1="112.50961%" x2="86.8704834%" y2="0%" id="linearGradient-2">
            <stop stop-color="#8D8D8D" stop-opacity="0" offset="0%"></stop>
            <stop stop-color="#000000" offset="100%"></stop>
        </linearGradient>
        <linearGradient x1="50%" y1="2.53601647%" x2="50%" y2="81.1545873%" id="linearGradient-3">
            <stop stop-color="#1C1B1B" offset="0%"></stop>
            <stop stop-color="#161616" offset="100%"></stop>
        </linearGradient>
        <linearGradient x1="100%" y1="-2.73359643%" x2="70.9075514%" y2="58.9226058%" id="linearGradient-4">
            <stop stop-color="#F3F7FE" offset="0%"></stop>
            <stop stop-color="#959595" offset="100%"></stop>
        </linearGradient>
        <path d="M11.1111111,3.94745964e-15 L407.222222,0 C413.358719,3.15745702e-14 418.333333,4.97461389 418.333333,11.1111111 L418.333333,41.6666667 C418.333333,42.8939661 417.338411,43.8888889 416.111111,43.8888889 L2.22222222,43.8888889 C0.994922778,43.8888889 1.50300834e-16,42.8939661 0,41.6666667 L0,11.1111111 C-7.51504168e-16,4.97461389 4.97461389,1.12725625e-15 11.1111111,3.94745964e-15 Z" id="path-5"></path>
        <filter x="-5.5%" y="-52.3%" width="111.0%" height="204.6%" filterUnits="objectBoundingBox" id="filter-6">
            <feGaussianBlur stdDeviation="10.5" in="SourceAlpha" result="shadowBlurInner1"></feGaussianBlur>
            <feOffset dx="-24.9" dy="-12.7" in="shadowBlurInner1" result="shadowOffsetInner1"></feOffset>
            <feComposite in="shadowOffsetInner1" in2="SourceAlpha" operator="arithmetic" k2="-1" k3="1" result="shadowInnerInner1"></feComposite>
            <feColorMatrix values="0 0 0 0 0.664540816   0 0 0 0 0.664540816   0 0 0 0 0.664540816  0 0 0 0.43 0" type="matrix" in="shadowInnerInner1"></feColorMatrix>
        </filter>
        <linearGradient x1="50%" y1="-142.327103%" x2="50%" y2="170.164832%" id="linearGradient-7">
            <stop stop-color="#CCD0D6" offset="0%"></stop>
            <stop stop-color="#27282B" offset="100%"></stop>
        </linearGradient>
        <linearGradient x1="50%" y1="19.6859798%" x2="-33.8592349%" y2="202.698743%" id="linearGradient-8">
            <stop stop-color="#EEF3FF" offset="0%"></stop>
            <stop stop-color="#6B9AD9" offset="100%"></stop>
        </linearGradient>
        <linearGradient x1="-17.0498548%" y1="74.518003%" x2="4.85382204%" y2="-47.1761978%" id="linearGradient-9">
            <stop stop-color="#000000" offset="0%"></stop>
            <stop stop-color="#464748" offset="100%"></stop>
        </linearGradient>
        <linearGradient x1="60.7312459%" y1="0%" x2="50%" y2="100%" id="linearGradient-10">
            <stop stop-color="#FFFFFF" offset="0%"></stop>
            <stop stop-color="#E5EEFF" offset="100%"></stop>
        </linearGradient>
        <path d="M15.644958,1.92454278 C26.5115811,-4.38638512 38.9485033,11.1527199 41.8660814,17.4574652 C44.7836594,23.7622106 53.0609971,23.8328571 49.6136,52.3951094 C47.3153352,71.4366108 48.1778129,81.7309769 52.2010332,83.2782076 C59.4323505,82.2498028 61.3143021,86.6029946 57.8468882,96.337783 C52.6457673,110.939966 45.8037993,110.766338 32.7141232,112.38815 C19.6244472,114.009962 10.1115378,109.616397 4.74843727,103.324976 C-0.614663215,97.0335565 11.4816223,84.3207763 4.74843727,72.3075843 C2.14762197,67.6672701 0.226532736,39.1954505 0.226532736,29.8950261 C0.226532736,20.5946016 4.77833476,8.23547068 15.644958,1.92454278 Z" id="path-11"></path>
        <linearGradient x1="85.0973284%" y1="109.304399%" x2="4.85382204%" y2="-47.1761978%" id="linearGradient-13">
            <stop stop-color="#000000" offset="0%"></stop>
            <stop stop-color="#464748" offset="100%"></stop>
        </linearGradient>
        <linearGradient x1="69.4657764%" y1="75.602262%" x2="69.4657764%" y2="14.0380158%" id="linearGradient-14">
            <stop stop-color="#F4AF92" offset="0%"></stop>
            <stop stop-color="#EC906C" offset="100%"></stop>
        </linearGradient>
        <linearGradient x1="211.687101%" y1="0%" x2="50%" y2="85.4739868%" id="linearGradient-15">
            <stop stop-color="#545454" offset="0%"></stop>
            <stop stop-color="#000000" offset="100%"></stop>
        </linearGradient>
        <linearGradient x1="0%" y1="71.6702355%" x2="106.166257%" y2="56.8915662%" id="linearGradient-16">
            <stop stop-color="#FDAE6B" offset="0%"></stop>
            <stop stop-color="#FAE539" offset="100%"></stop>
        </linearGradient>
        <path d="M95.728632,21.0541696 C91.5555808,32.0086917 88.724158,39.7815541 87.2343637,44.3727568 C84.998166,51.2642027 84.1302534,56.9477747 84.6306259,61.4234727 C86.1312379,74.8460447 90.306206,79.2421963 86.689311,111.349858 C85.2752602,123.902576 77.335814,141.573806 75.8037656,155.570348 C73.4171016,177.374518 79.2858907,184.917541 77.8157895,188.523798 C75.8037656,193.459428 54.3298526,188.923743 43.5835971,200.121602 C40.1227688,193.459428 53.2709751,169.968878 53.2709751,166.380795 C53.2709751,162.792712 53.7186947,135.846167 64.7612302,116.079642 C72.1229204,102.901958 74.9357741,83.6257906 73.1997912,58.2511395 C54.6984049,54.7034434 41.1663049,50.0773158 32.6034912,44.3727568 C24.0406776,38.6681977 13.1728472,26.3608947 0,7.45084758 C1.96534638,2.48361586 4.21914215,-2.78249767e-14 6.7613873,-2.84217094e-14 C10.574755,-2.84217094e-14 36.4115613,23.3847253 56.3873027,26.2214951 C64.7612302,27.4106827 71.4856435,22.4755122 77.8157895,21.0541696 C87.8863922,18.7929615 95.2202161,18.8787471 96.4408774,18.4623113 C97.7661711,18.0101795 98.4223605,18.3482848 98.4094459,19.4766273 L95.728632,21.0541696 Z" id="path-17"></path>
        <linearGradient x1="75.3021383%" y1="-7.54250636%" x2="36.8647295%" y2="23.3552821%" id="linearGradient-19">
            <stop stop-color="#B6B3B3" offset="0%"></stop>
            <stop stop-color="#D2D2D2" offset="100%"></stop>
        </linearGradient>
        <linearGradient x1="34.2329692%" y1="5.04199562%" x2="78.6018941%" y2="100%" id="linearGradient-20">
            <stop stop-color="#59E46F" offset="0%"></stop>
            <stop stop-color="#5CDB8E" offset="41.9797688%"></stop>
            <stop stop-color="#149654" offset="100%"></stop>
        </linearGradient>
        <linearGradient x1="100%" y1="100%" x2="27.9339743%" y2="50%" id="linearGradient-21">
            <stop stop-color="#CEE0FB" offset="0%"></stop>
            <stop stop-color="#E4EDFB" offset="100%"></stop>
        </linearGradient>
        <path d="M727.944759,836.787123 C729.774617,839.993216 730.799503,843.585325 730.799503,847.378612 C730.799503,860.92249 717.733064,871.901988 701.614692,871.901988 C685.496321,871.901988 672.429882,860.92249 672.429882,847.378612 C672.429882,843.364523 673.577567,839.575661 675.612367,836.231171 C688.541152,838.277998 714.274976,838.146129 727.944759,836.787123 Z" id="path-22"></path>
        <linearGradient x1="50%" y1="0%" x2="50%" y2="100%" id="linearGradient-24">
            <stop stop-color="#99BAE9" offset="0%"></stop>
            <stop stop-color="#BCD0F2" offset="100%"></stop>
        </linearGradient>
        <path d="M701.817365,831.367485 C716.480618,831.367485 728.367462,834.180393 728.367462,837.650322 C728.367462,841.120251 716.480618,843.933159 701.817365,843.933159 C687.154112,843.933159 675.267213,841.120251 675.267213,837.650322 C675.267213,834.180393 687.154112,831.367485 701.817365,831.367485 Z" id="path-25"></path>
        <linearGradient x1="34.2329692%" y1="5.04199562%" x2="78.6018941%" y2="100%" id="linearGradient-27">
            <stop stop-color="#B1FFBE" offset="0%"></stop>
            <stop stop-color="#5CDB8E" offset="44.420721%"></stop>
            <stop stop-color="#149654" offset="100%"></stop>
        </linearGradient>
        <path d="M699.587941,832.178139 C698.13801,822.144378 694.149372,807.655121 682.158117,792.048974 C675.094443,782.855933 675.071389,760.468832 674.051259,757.999974 C679.593995,759.906015 689.550964,764.819228 699.587941,778.672611 C710.109531,793.19474 703.434787,822.811089 699.587941,832.178139 Z" id="path-28"></path>
        <filter x="-36.9%" y="-15.5%" width="173.7%" height="131.0%" filterUnits="objectBoundingBox" id="filter-30">
            <feGaussianBlur stdDeviation="6.5" in="SourceAlpha" result="shadowBlurInner1"></feGaussianBlur>
            <feOffset dx="0" dy="-10" in="shadowBlurInner1" result="shadowOffsetInner1"></feOffset>
            <feComposite in="shadowOffsetInner1" in2="SourceAlpha" operator="arithmetic" k2="-1" k3="1" result="shadowInnerInner1"></feComposite>
            <feColorMatrix values="0 0 0 0 0.221483195   0 0 0 0 0.778539541   0 0 0 0 0.473229813  0 0 0 1 0" type="matrix" in="shadowInnerInner1"></feColorMatrix>
        </filter>
        <linearGradient x1="78.6009371%" y1="-9.30161748%" x2="90.360851%" y2="88.8160124%" id="linearGradient-31">
            <stop stop-color="#B1FFBE" offset="0%"></stop>
            <stop stop-color="#5CDB8E" offset="44.420721%"></stop>
            <stop stop-color="#149654" offset="100%"></stop>
        </linearGradient>
        <path d="M699.632722,842.47728 C695.153274,835.31251 687.238892,825.602886 672.842511,817.73011 C664.362038,813.092491 656.818714,796.027607 655.210306,794.487619 C660.080554,794.078996 669.330077,794.480696 681.64604,801.673406 C694.55654,809.21327 699.419184,834.041492 699.632722,842.47728 Z" id="path-32"></path>
        <filter x="-25.9%" y="-23.9%" width="151.8%" height="147.8%" filterUnits="objectBoundingBox" id="filter-34">
            <feGaussianBlur stdDeviation="6.5" in="SourceAlpha" result="shadowBlurInner1"></feGaussianBlur>
            <feOffset dx="0" dy="-10" in="shadowBlurInner1" result="shadowOffsetInner1"></feOffset>
            <feComposite in="shadowOffsetInner1" in2="SourceAlpha" operator="arithmetic" k2="-1" k3="1" result="shadowInnerInner1"></feComposite>
            <feColorMatrix values="0 0 0 0 0.221483195   0 0 0 0 0.778539541   0 0 0 0 0.473229813  0 0 0 1 0" type="matrix" in="shadowInnerInner1"></feColorMatrix>
        </filter>
        <path d="M702.849788,843.459119 C706.381716,835.747314 713.004875,825.058545 726.322944,815.362754 C734.168197,809.651296 739.467214,791.68658 740.869407,789.945722 C735.965262,790.166906 726.804294,791.759742 715.470211,800.509999 C703.589007,809.682707 701.967628,835.031829 702.849788,843.459119 Z" id="path-35"></path>
        <filter x="-30.1%" y="-21.5%" width="160.2%" height="143.0%" filterUnits="objectBoundingBox" id="filter-37">
            <feGaussianBlur stdDeviation="6.5" in="SourceAlpha" result="shadowBlurInner1"></feGaussianBlur>
            <feOffset dx="0" dy="-10" in="shadowBlurInner1" result="shadowOffsetInner1"></feOffset>
            <feComposite in="shadowOffsetInner1" in2="SourceAlpha" operator="arithmetic" k2="-1" k3="1" result="shadowInnerInner1"></feComposite>
            <feColorMatrix values="0 0 0 0 0.221483195   0 0 0 0 0.778539541   0 0 0 0 0.473229813  0 0 0 1 0" type="matrix" in="shadowInnerInner1"></feColorMatrix>
        </filter>
    </defs>
    <g id="Welcome" stroke="none" stroke-width="1" fill="none" fill-rule="evenodd">
        <g id="Sign-In" transform="translate(-799.000000, 0.000000)">
            <g id="Group-6" transform="translate(799.000000, 0.000000)">
                <g id="Group-2">
                    <rect id="Rectangle" fill="url(#linearGradient-1)" x="1" y="0" width="800" height="920"></rect>
                    <path d="M800.25842,0 L517.247339,3.84049518e-14 L0.758420214,0 L1,608.5 C15.8118071,598.977543 28.9784738,591.810876 40.5,587 C232.841349,506.68682 345.405226,429.263402 443.5,428 C478.572526,427.548287 424.638517,584.778997 490.5,635.5 C514.219407,653.766703 617.5,671.5 642,675.5 C666.5,679.5 701.5,684.5 756.5,689.5 C765.848111,690.349828 780.681444,691.396495 801,692.64 L800.25842,245.252622 L800.25842,0 Z" id="Path-8" fill="url(#linearGradient-2)" opacity="0.380189732"></path>
                    <circle id="Oval-Copy" fill-opacity="0.1" fill="#FFFFFF" cx="683.5" cy="124.5" r="44.5"></circle>
                    <circle id="Oval" fill="#FFFFFF" fill-rule="nonzero" cx="683" cy="124" r="34"></circle>
                    <circle id="Oval-6" fill="#FFFFFF" cx="737" cy="20" r="3"></circle>
                    <circle id="Oval-6-Copy" fill="#FFFFFF" cx="683" cy="52" r="2"></circle>
                    <circle id="Oval-6-Copy-2" fill="#FFFFFF" cx="594" cy="139" r="2"></circle>
                    <circle id="Oval-6-Copy-15" fill="#FFFFFF" cx="651" cy="202" r="2"></circle>
                    <circle id="Oval-6-Copy-8" fill="#FFFFFF" cx="511" cy="183" r="2"></circle>
                    <circle id="Oval-6-Copy-5" fill="#FFFFFF" cx="499" cy="84" r="2"></circle>
                    <circle id="Oval-6-Copy-7" fill-opacity="0.4" fill="#FFFFFF" cx="391" cy="30" r="2"></circle>
                    <circle id="Oval-6-Copy-10" fill="#FFFFFF" cx="296" cy="149" r="2"></circle>
                    <circle id="Oval-6-Copy-12" fill="#FFFFFF" cx="179" cy="143" r="2"></circle>
                    <circle id="Oval-6-Copy-6" fill="#FFFFFF" cx="399" cy="107" r="2"></circle>
                    <circle id="Oval-6-Copy-3" fill-opacity="0.3" fill="#FFFFFF" cx="533" cy="30" r="2"></circle>
                    <circle id="Oval-6-Copy-9" fill-opacity="0.3" fill="#FFFFFF" cx="296" cy="63" r="2"></circle>
                    <circle id="Oval-6-Copy-13" fill-opacity="0.3" fill="#FFFFFF" cx="101" cy="94" r="2"></circle>
                    <circle id="Oval-6-Copy-11" fill-opacity="0.1" fill="#FFFFFF" cx="165" cy="34" r="2"></circle>
                    <circle id="Oval-6-Copy-14" fill-opacity="0.1" fill="#FFFFFF" cx="226" cy="105" r="2"></circle>
                    <circle id="Oval-6-Copy-4" fill-opacity="0.3" fill="#FFFFFF" cx="776" cy="139" r="2"></circle>
                    <path d="M635,333 L639,333 L639,314 L635,314 L635,333 Z M635,361 L639,361 L639,342 L635,342 L635,361 Z M616,333 L620,333 L620,314 L616,314 L616,333 Z M597,333 L601,333 L601,314 L597,314 L597,333 Z M597,361 L601,361 L601,342 L597,342 L597,361 Z M578,361 L582,361 L582,342 L578,342 L578,361 Z M559,333 L563,333 L563,314 L559,314 L559,333 Z M559,361 L563,361 L563,342 L559,342 L559,361 Z M540,333 L544,333 L544,314 L540,314 L540,333 Z M521,361 L525,361 L525,342 L521,342 L521,361 Z M502,333 L506,333 L506,314 L502,314 L502,333 Z M502,361 L506,361 L506,342 L502,342 L502,361 Z M542,295 L601,295 L601,287 L542,287 L542,295 Z M617.965517,294.881188 L617.965517,285.425743 L624.595862,285.425743 C624.428966,258.950495 602.793103,235.913248 574.344828,234.445762 L574.344828,206 L566.758621,206 L566.758621,234.589485 C542.103448,236.970366 520.463793,258.950495 520.30069,285.425743 L525.034483,285.425743 L525.034483,294.881188 L489,294.881188 L489,397 L654,397 L654,294.881188 L617.965517,294.881188 Z" id="Fill-453" fill="url(#linearGradient-3)"></path>
                    <g id="Group-Copy" transform="translate(365.000000, 158.000000)">
                        <polygon id="Fill-269" fill="#1C1B1B" points="0 306 115 306 115 0 0 0"></polygon>
                        <polygon id="Fill-336" fill="#1C1C1C" opacity="0.074609375" points="10 56 27 56 27 39 10 39"></polygon>
                        <polygon id="Fill-337" fill="#000000" opacity="0.074609375" points="36 56 49 56 49 39 36 39"></polygon>
                        <polygon id="Fill-338" fill="#000000" opacity="0.074609375" points="85 56 98 56 98 39 85 39"></polygon>
                        <polygon id="Fill-339" fill="#000000" opacity="0.074609375" points="10 80 27 80 27 63 10 63"></polygon>
                        <polygon id="Fill-340" fill="#000000" opacity="0.074609375" points="36 80 49 80 49 63 36 63"></polygon>
                        <polygon id="Fill-341" fill="#000000" opacity="0.074609375" points="61 80 74 80 74 63 61 63"></polygon>
                        <polygon id="Fill-342" fill="#000000" opacity="0.074609375" points="85 80 98 80 98 63 85 63"></polygon>
                        <polygon id="Fill-343" fill="#000000" opacity="0.074609375" points="36 103 49 103 49 86 36 86"></polygon>
                        <polygon id="Fill-344" fill="#000000" opacity="0.074609375" points="61 103 74 103 74 86 61 86"></polygon>
                        <polygon id="Fill-345" fill="#000000" opacity="0.074609375" points="85 103 98 103 98 86 85 86"></polygon>
                        <polygon id="Fill-346" fill="#000000" opacity="0.074609375" points="10 127 27 127 27 110 10 110"></polygon>
                        <polygon id="Fill-347" fill="#000000" opacity="0.074609375" points="36 127 49 127 49 110 36 110"></polygon>
                        <polygon id="Fill-348" fill="#000000" opacity="0.074609375" points="85 127 98 127 98 110 85 110"></polygon>
                        <polygon id="Fill-349" fill="#000000" opacity="0.074609375" points="10 150 27 150 27 133 10 133"></polygon>
                        <polygon id="Fill-350" fill="#000000" opacity="0.074609375" points="36 150 49 150 49 133 36 133"></polygon>
                        <polygon id="Fill-351" fill="#000000" opacity="0.074609375" points="61 150 74 150 74 133 61 133"></polygon>
                        <polygon id="Fill-352" fill="#000000" opacity="0.074609375" points="85 150 98 150 98 133 85 133"></polygon>
                        <polygon id="Fill-353" fill="#000000" opacity="0.074609375" points="36 174 49 174 49 157 36 157"></polygon>
                        <polygon id="Fill-354" fill="#000000" opacity="0.074609375" points="61 174 74 174 74 157 61 157"></polygon>
                        <polygon id="Fill-355" fill="#000000" opacity="0.074609375" points="85 174 98 174 98 157 85 157"></polygon>
                        <polygon id="Fill-356" fill="#000000" opacity="0.074609375" points="10 197 27 197 27 180 10 180"></polygon>
                        <polygon id="Fill-357" fill="#000000" opacity="0.074609375" points="61 197 74 197 74 180 61 180"></polygon>
                        <polygon id="Fill-358" fill="#000000" opacity="0.074609375" points="85 197 98 197 98 180 85 180"></polygon>
                        <polygon id="Fill-359" fill="#000000" opacity="0.074609375" points="10 220 27 220 27 203 10 203"></polygon>
                        <polygon id="Fill-360" fill="#000000" opacity="0.074609375" points="36 220 49 220 49 203 36 203"></polygon>
                        <polygon id="Fill-361" fill="#000000" opacity="0.074609375" points="61 220 74 220 74 203 61 203"></polygon>
                        <polygon id="Fill-362" fill="#000000" opacity="0.074609375" points="85 220 98 220 98 203 85 203"></polygon>
                    </g>
                    <g id="Group-Copy-2" transform="translate(88.000000, 202.000000)">
                        <polygon id="Fill-269" fill="#1C1B1B" points="0 306 115 306 115 0 0 0"></polygon>
                        <polygon id="Fill-336" fill="#1C1C1C" opacity="0.074609375" points="10 56 27 56 27 39 10 39"></polygon>
                        <polygon id="Fill-337" fill="#000000" opacity="0.074609375" points="36 56 49 56 49 39 36 39"></polygon>
                        <polygon id="Fill-338" fill="#131313" opacity="0.074609375" points="85 56 98 56 98 39 85 39"></polygon>
                        <polygon id="Fill-339" fill="#131313" opacity="0.074609375" points="10 80 27 80 27 63 10 63"></polygon>
                        <polygon id="Fill-340" fill="#131313" opacity="0.074609375" points="36 80 49 80 49 63 36 63"></polygon>
                        <polygon id="Fill-341" fill="#131313" opacity="0.074609375" points="61 80 74 80 74 63 61 63"></polygon>
                        <polygon id="Fill-342" fill="#131313" opacity="0.074609375" points="85 80 98 80 98 63 85 63"></polygon>
                        <polygon id="Fill-343" fill="#131313" opacity="0.074609375" points="36 103 49 103 49 86 36 86"></polygon>
                        <polygon id="Fill-344" fill="#131313" opacity="0.074609375" points="61 103 74 103 74 86 61 86"></polygon>
                        <polygon id="Fill-345" fill="#131313" opacity="0.074609375" points="85 103 98 103 98 86 85 86"></polygon>
                        <polygon id="Fill-346" fill="#131313" opacity="0.074609375" points="10 127 27 127 27 110 10 110"></polygon>
                        <polygon id="Fill-347" fill="#131313" opacity="0.074609375" points="36 127 49 127 49 110 36 110"></polygon>
                        <polygon id="Fill-348" fill="#131313" opacity="0.074609375" points="85 127 98 127 98 110 85 110"></polygon>
                        <polygon id="Fill-349" fill="#131313" opacity="0.074609375" points="10 150 27 150 27 133 10 133"></polygon>
                        <polygon id="Fill-350" fill="#131313" opacity="0.074609375" points="36 150 49 150 49 133 36 133"></polygon>
                        <polygon id="Fill-351" fill="#131313" opacity="0.074609375" points="61 150 74 150 74 133 61 133"></polygon>
                        <polygon id="Fill-352" fill="#131313" opacity="0.074609375" points="85 150 98 150 98 133 85 133"></polygon>
                        <polygon id="Fill-353" fill="#131313" opacity="0.074609375" points="36 174 49 174 49 157 36 157"></polygon>
                        <polygon id="Fill-354" fill="#131313" opacity="0.074609375" points="61 174 74 174 74 157 61 157"></polygon>
                        <polygon id="Fill-355" fill="#131313" opacity="0.074609375" points="85 174 98 174 98 157 85 157"></polygon>
                        <polygon id="Fill-356" fill="#131313" opacity="0.074609375" points="10 197 27 197 27 180 10 180"></polygon>
                        <polygon id="Fill-357" fill="#131313" opacity="0.074609375" points="61 197 74 197 74 180 61 180"></polygon>
                        <polygon id="Fill-358" fill="#131313" opacity="0.074609375" points="85 197 98 197 98 180 85 180"></polygon>
                        <polygon id="Fill-359" fill="#131313" opacity="0.074609375" points="10 220 27 220 27 203 10 203"></polygon>
                        <polygon id="Fill-360" fill="#131313" opacity="0.074609375" points="36 220 49 220 49 203 36 203"></polygon>
                        <polygon id="Fill-361" fill="#131313" opacity="0.074609375" points="61 220 74 220 74 203 61 203"></polygon>
                        <polygon id="Fill-362" fill="#131313" opacity="0.074609375" points="85 220 98 220 98 203 85 203"></polygon>
                    </g>
                    <path d="M321,206 L331,206 L331,185 L321,185 L321,206 Z M321,238 L331,238 L331,217 L321,217 L321,238 Z M321,270 L331,270 L331,249 L321,249 L321,270 Z M321,303 L331,303 L331,282 L321,282 L321,303 Z M321,334 L331,334 L331,313 L321,313 L321,334 Z M321,366 L331,366 L331,345 L321,345 L321,366 Z M321,399 L331,399 L331,378 L321,378 L321,399 Z M302,206 L312,206 L312,185 L302,185 L302,206 Z M302,270 L312,270 L312,249 L302,249 L302,270 Z M302,303 L312,303 L312,282 L302,282 L302,303 Z M302,334 L312,334 L312,313 L302,313 L302,334 Z M302,366 L312,366 L312,345 L302,345 L302,366 Z M302,399 L312,399 L312,378 L302,378 L302,399 Z M282,206 L292,206 L292,185 L282,185 L282,206 Z M282,238 L292,238 L292,217 L282,217 L282,238 Z M282,270 L292,270 L292,249 L282,249 L282,270 Z M282,303 L292,303 L292,282 L282,282 L282,303 Z M282,334 L292,334 L292,313 L282,313 L282,334 Z M282,399 L292,399 L292,378 L282,378 L282,399 Z M263,206 L273,206 L273,185 L263,185 L263,206 Z M263,238 L273,238 L273,217 L263,217 L263,238 Z M263,303 L273,303 L273,282 L263,282 L263,303 Z M263,366 L273,366 L273,345 L263,345 L263,366 Z M263,399 L273,399 L273,378 L263,378 L263,399 Z M244,206 L254,206 L254,185 L244,185 L244,206 Z M244,238 L254,238 L254,217 L244,217 L244,238 Z M244,270 L254,270 L254,249 L244,249 L244,270 Z M244,303 L254,303 L254,282 L244,282 L244,303 Z M244,334 L254,334 L254,313 L244,313 L244,334 Z M244,366 L254,366 L254,345 L244,345 L244,366 Z M244,399 L254,399 L254,378 L244,378 L244,399 Z M263,169 L273,169 L273,148 L263,148 L263,169 Z M282,164.8 L282,148 L292,148 L292,169 L282,169 L282,164.8 Z M302,169 L312,169 L312,148 L302,148 L302,169 Z M325,172.012658 L325,137.78481 L292.857143,137.78481 L292.857143,95 L282.142857,95 L282.142857,137.78481 L252.142857,137.78481 L252.142857,172.012658 L235,172.012658 L235,433 L340,433 L340,172.012658 L325,172.012658 Z" id="Fill-169" fill="#1C1B1B"></path>
                </g>
                <g id="Group" transform="translate(1.000000, 434.000000)">
                    <path d="M0.488122471,174.170266 C63.2584661,132.835263 145.536365,116.167924 247.321819,124.168247 C400,136.168731 417.5,234 800,258.644832 L800,486.110202 L0,486.110202 L0.488122471,174.170266 Z" id="Background-base" fill="url(#linearGradient-4)" opacity="0.118359375"></path>
                    <g id="Window" transform="translate(82.222222, 0.000000)" fill-rule="nonzero">
                        <path d="M11.1111111,0 L407.222222,0 C413.358719,-1.12725625e-15 418.333333,4.97461389 418.333333,11.1111111 L418.333333,297.222222 C418.333333,298.449522 417.338411,299.444444 416.111111,299.444444 L2.22222222,299.444444 C0.994922778,299.444444 1.50300834e-16,298.449522 0,297.222222 L0,11.1111111 C-7.51504168e-16,4.97461389 4.97461389,1.12725625e-15 11.1111111,0 Z" id="Window-base" fill="#E4E4E4"></path>
                        <g id="Chart-bar" transform="translate(221.444444, 87.111111)">
                            <path d="M2.22222222,14.7777778 L20,14.7777778 C21.2272994,14.7777778 22.2222222,15.7727006 22.2222222,17 L22.2222222,45.8888889 C22.2222222,47.1161883 21.2272994,48.1111111 20,48.1111111 L2.22222222,48.1111111 C0.994922778,48.1111111 0,47.1161883 0,45.8888889 L0,17 C0,15.7727006 0.994922778,14.7777778 2.22222222,14.7777778 Z" id="Chart-bar-base" stroke="#545454" stroke-width="4" stroke-linecap="round" stroke-linejoin="round"></path>
                            <path d="M33.5555556,33.4444444 L51.3333333,33.4444444 C52.5606328,33.4444444 53.5555556,34.4393672 53.5555556,35.6666667 L53.5555556,47.8888889 C53.5555556,49.1161883 52.5606328,50.1111111 51.3333333,50.1111111 L33.5555556,50.1111111 C32.3282561,50.1111111 31.3333333,49.1161883 31.3333333,47.8888889 L31.3333333,35.6666667 C31.3333333,34.4393672 32.3282561,33.4444444 33.5555556,33.4444444 Z" id="Chart-bar-base" fill="#545454"></path>
                            <path d="M61.8888889,16.7777778 L79.6666667,16.7777778 C80.8939661,16.7777778 81.8888889,17.7727006 81.8888889,19 L81.8888889,47.8888889 C81.8888889,49.1161883 80.8939661,50.1111111 79.6666667,50.1111111 L61.8888889,50.1111111 C60.6615894,50.1111111 59.6666667,49.1161883 59.6666667,47.8888889 L59.6666667,19 C59.6666667,17.7727006 60.6615894,16.7777778 61.8888889,16.7777778 Z" id="Chart-bar-base" fill="#545454"></path>
                            <path d="M89.6666667,0.111111111 L107.444444,0.111111111 C108.671744,0.111111111 109.666667,1.10603389 109.666667,2.33333333 L109.666667,47.8888889 C109.666667,49.1161883 108.671744,50.1111111 107.444444,50.1111111 L89.6666667,50.1111111 C88.4393672,50.1111111 87.4444444,49.1161883 87.4444444,47.8888889 L87.4444444,2.33333333 C87.4444444,1.10603389 88.4393672,0.111111111 89.6666667,0.111111111 Z" id="Chart-bar-base" fill="#545454"></path>
                        </g>
                        <g id="UI" transform="translate(27.777778, 81.666667)">
                            <path d="M119.444444,0 L147.222222,0 C148.449522,-2.2545125e-16 149.444444,0.994922778 149.444444,2.22222222 L149.444444,30 C149.444444,31.2272994 148.449522,32.2222222 147.222222,32.2222222 L119.444444,32.2222222 C118.217145,32.2222222 117.222222,31.2272994 117.222222,30 L117.222222,2.22222222 C117.222222,0.994922778 118.217145,2.2545125e-16 119.444444,0 Z" id="UI-base" fill="#6E6E6E"></path>
                            <path d="M2.77777778,0 L80.5555556,0 C81.782855,-8.9459383e-15 82.7777778,0.994922778 82.7777778,2.22222222 L82.7777778,30 C82.7777778,31.2272994 81.782855,32.2222222 80.5555556,32.2222222 L2.77777778,32.2222222 C1.55047833,32.2222222 0.555555556,31.2272994 0.555555556,30 L0.555555556,2.22222222 C0.555555556,0.994922778 1.55047833,2.2545125e-16 2.77777778,0 Z" id="UI-base" stroke="#B2B2B2" stroke-width="2" stroke-linecap="round" stroke-linejoin="round" stroke-dasharray="10,10"></path>
                            <path d="M2.77777778,44.4444444 L97.2222222,44.4444444 C98.4495217,44.4444444 99.4444444,45.4393672 99.4444444,46.6666667 L99.4444444,74.4444444 C99.4444444,75.6717439 98.4495217,76.6666667 97.2222222,76.6666667 L2.77777778,76.6666667 C1.55047833,76.6666667 0.555555556,75.6717439 0.555555556,74.4444444 L0.555555556,46.6666667 C0.555555556,45.4393672 1.55047833,44.4444444 2.77777778,44.4444444 Z" id="UI-base" fill="#6E6E6E"></path>
                            <path d="M119.444444,48.8888889 L147.222222,48.8888889 C148.449522,48.8888889 149.444444,49.8838117 149.444444,51.1111111 L149.444444,78.8888889 C149.444444,80.1161883 148.449522,81.1111111 147.222222,81.1111111 L119.444444,81.1111111 C118.217145,81.1111111 117.222222,80.1161883 117.222222,78.8888889 L117.222222,51.1111111 C117.222222,49.8838117 118.217145,48.8888889 119.444444,48.8888889 Z" id="UI-base" fill="#B2B2B2"></path>
                            <path d="M119.444444,97.7777778 L147.222222,97.7777778 C148.449522,97.7777778 149.444444,98.7727006 149.444444,100 L149.444444,127.777778 C149.444444,129.005077 148.449522,130 147.222222,130 L119.444444,130 C118.217145,130 117.222222,129.005077 117.222222,127.777778 L117.222222,100 C117.222222,98.7727006 118.217145,97.7777778 119.444444,97.7777778 Z" id="UI-base" fill="#6E6E6E"></path>
                            <path d="M119.444444,146.666667 L147.222222,146.666667 C148.449522,146.666667 149.444444,147.661589 149.444444,148.888889 L149.444444,176.666667 C149.444444,177.893966 148.449522,178.888889 147.222222,178.888889 L119.444444,178.888889 C118.217145,178.888889 117.222222,177.893966 117.222222,176.666667 L117.222222,148.888889 C117.222222,147.661589 118.217145,146.666667 119.444444,146.666667 Z" id="UI-base" stroke="#B2B2B2" stroke-width="2" stroke-linecap="round" stroke-linejoin="round" stroke-dasharray="10,10"></path>
                            <path d="M2.22222222,89.4444444 L98.3333333,89.4444444 C99.5606328,89.4444444 100.555556,90.4393672 100.555556,91.6666667 L100.555556,188.888889 C100.555556,190.116188 99.5606328,191.111111 98.3333333,191.111111 L2.22222222,191.111111 C0.994922778,191.111111 0,190.116188 0,188.888889 L0,91.6666667 C0,90.4393672 0.994922778,89.4444444 2.22222222,89.4444444 Z" id="UI-base" fill="#B2B2B2"></path>
                        </g>
                        <g id="Titlebar">
                            <g id="Titlebar-base">
                                <use fill="#EDEDED" xlink:href="#path-5"></use>
                                <use fill="black" fill-opacity="1" filter="url(#filter-6)" xlink:href="#path-5"></use>
                            </g>
                            <g id="Titlebar-button" transform="translate(13.888889, 15.000000)">
                                <circle fill="#F43939" cx="6.94444444" cy="6.94444444" r="6.94444444"></circle>
                                <circle fill="#F5A623" cx="28.6111111" cy="6.94444444" r="6.94444444"></circle>
                                <circle fill="#0CCB56" cx="50.2777778" cy="6.94444444" r="6.94444444"></circle>
                            </g>
                        </g>
                        <g id="Chart" transform="translate(229.444444, 168.888889)" stroke="#B2B2B2" stroke-linecap="round" stroke-linejoin="round" stroke-width="4">
                            <path d="M0,0.555555556 L149.762326,0.555555556" id="Path-52"></path>
                            <path d="M0,18.3333333 L149.762326,18.3333333" id="Path-52-Copy"></path>
                            <path d="M0,36.1111111 L149.762326,36.1111111" id="Path-52-Copy-2"></path>
                            <path d="M0,53.8888889 L149.762326,53.8888889" id="Path-52-Copy-3"></path>
                            <path d="M0,71.6666667 L149.762326,71.6666667" id="Path-52-Copy-4"></path>
                            <path d="M0,89.4444444 L149.762326,89.4444444" id="Path-52-Copy-5"></path>
                        </g>
                    </g>
                    <g id="Table" transform="translate(242.222222, 271.111111)" fill="url(#linearGradient-7)" fill-rule="nonzero">
                        <polygon id="Table-base" points="0 0 272.777778 0 272.777778 11.1111111 0 11.1111111"></polygon>
                        <path d="M12.7777778,135.523442 L25.8628052,12.2222222 L12.7777778,12.2222222 L12.7777778,135.523442 Z M28.3333333,10 L14.064772,144.453751 C13.9647684,145.396093 13.1698556,146.111111 12.2222222,146.111111 C11.3017476,146.111111 10.5555556,145.364919 10.5555556,144.444444 L10.5555556,10 L28.3333333,10 Z" id="Table-base"></path>
                        <path d="M253.888889,135.523442 L253.888889,12.2222222 L240.803861,12.2222222 L253.888889,135.523442 Z M238.333333,10 L256.111111,10 L256.111111,144.444444 C256.111111,145.364919 255.364919,146.111111 254.444444,146.111111 C253.496811,146.111111 252.701898,145.396093 252.601895,144.453751 L238.333333,10 Z" id="Table-base"></path>
                    </g>
                    <g id="Imac" transform="translate(312.222222, 176.111111)" fill-rule="nonzero">
                        <path d="M2.22222222,0 L136.111111,0 C137.338411,-2.2545125e-16 138.333333,0.994922778 138.333333,2.22222222 L138.333333,78.3333333 C138.333333,79.5606328 137.338411,80.5555556 136.111111,80.5555556 L2.22222222,80.5555556 C0.994922778,80.5555556 6.43733289e-16,79.5606328 4.93432455e-16,78.3333333 L0,2.22222222 C-1.50300834e-16,0.994922778 0.994922778,2.2545125e-16 2.22222222,0 Z" id="Imac-base" fill="#000000"></path>
                        <polygon id="Imac-base" fill="#B7C8FF" points="54.4444444 80 85 80 85 98.3333333 54.4444444 98.3333333"></polygon>
                        <polygon id="Imac-base" fill="#FFFFFF" points="5.55555556 5.55555556 132.777778 5.55555556 132.777778 75 5.55555556 75"></polygon>
                    </g>
                    <g id="Girl" transform="translate(129.444444, 196.111111)">
                        <g id="Note" transform="translate(70.000000, 77.777778)" fill-rule="nonzero">
                            <path d="M37.2048895,0.482547565 L65.6180671,12.3439055 C66.7506397,12.816709 67.2854883,14.1181235 66.8126848,15.2506961 C66.7511281,15.3981515 66.673847,15.5385375 66.5821821,15.6694187 L32.5118346,64.3158419 C31.9128226,65.171125 30.7991392,65.4939982 29.8355467,65.091737 L1.42236915,53.2303791 C0.289796509,52.7575756 -0.245052064,51.4561611 0.227751425,50.3235885 C0.289308112,50.1761331 0.36658924,50.0357471 0.45825407,49.9048659 L34.5286016,1.25844273 C35.1276136,0.403159596 36.241297,0.0802864485 37.2048895,0.482547565 Z" id="Note-base" fill="url(#linearGradient-8)"></path>
                            <path d="M48.9266715,1.99197012 C50.0192031,1.06203858 51.6861358,0.708344397 52.9804313,1.21033802 C54.3245131,1.7316413 54.8208127,3.00277535 54.2478721,4.21354508 L55.5498175,4.75710086 C56.682376,5.22993841 57.2171854,6.53136898 56.7443478,7.6639274 C56.6330495,7.93051331 56.4708398,8.17284055 56.266798,8.37734551 L53.3956087,11.2550514 C52.7524806,11.8996391 51.7811978,12.086667 50.9446917,11.7269942 L43.4347547,8.49794382 C42.3072604,8.01315468 41.786245,6.70614071 42.2710341,5.5786464 C42.3631849,5.36432751 42.4885086,5.16585584 42.6424009,4.99052327 L45.2006525,2.07585624 C45.8299428,1.35889323 46.8466223,1.12355983 47.7269428,1.49108932 L48.9266715,1.99197012 Z M50.6926325,4.21981435 C51.334368,4.46817041 52.1950994,4.21473994 52.6151299,3.65376154 C53.0351603,3.09278315 52.8554329,2.43668794 52.2136973,2.18833188 C51.5719618,1.93997582 50.7112304,2.19340629 50.2911999,2.75438469 C49.8711695,3.31536308 50.0508969,3.97145829 50.6926325,4.21981435 Z" id="Combined-Shape" fill="#000000"></path>
                        </g>
                        <g id="Pen" transform="translate(115.252490, 98.849002) scale(-1, 1) rotate(83.000000) translate(-115.252490, -98.849002) translate(113.030268, 88.293446)" fill="#000000" fill-rule="nonzero">
                            <path d="M1.57445174,2.11273404 C2.44399743,2.11273404 3.14890348,2.8176401 3.14890348,3.68718578 L3.14890348,18.2223311 L0,18.2223311 L0,3.68718578 C-1.06488634e-16,2.8176401 0.704906055,2.11273404 1.57445174,2.11273404 Z" id="Pen-base"></path>
                            <path d="M3.84865981,2.90500931 C4.04189218,2.90500931 4.19853797,3.0616551 4.19853797,3.25488747 L4.19853797,8.101058 C4.19853797,8.29429037 4.04189218,8.45093616 3.84865981,8.45093616 C3.65542744,8.45093616 3.49878165,8.29429037 3.49878165,8.101058 L3.49878165,3.25488747 C3.49878165,3.0616551 3.65542744,2.90500931 3.84865981,2.90500931 Z" id="Pen-base"></path>
                            <path d="M1.57445174,0 C2.05753268,-8.87405284e-17 2.44914715,0.391614475 2.44914715,0.874695411 L2.44914715,2.03031389 C2.44914715,2.51339483 2.05753268,2.90500931 1.57445174,2.90500931 C1.0913708,2.90500931 0.699756329,2.51339483 0.699756329,2.03031389 L0.699756329,0.874695411 C0.699756329,0.391614475 1.0913708,8.87405284e-17 1.57445174,0 Z" id="Pen-base"></path>
                            <polygon id="Pen-base" points="0 17.9582393 3.14890348 17.9582393 1.74939082 20.8632487"></polygon>
                        </g>
                        <g id="Foot" transform="translate(0.000000, 149.444444)" fill-rule="nonzero">
                            <path d="M118.01697,66.8032975 C118.09205,66.0107826 122.737086,61.4909331 127.734543,66.7538284 C132.731999,72.0167238 134.060805,73.9040303 136.371634,75.8755678 C137.912187,77.1899262 139.528422,78.0740101 141.220338,78.5278196 L131.690152,79.1306419 L117.962787,77.5514901 C117.948855,70.9143716 117.966916,67.3316407 118.01697,66.8032975 Z" id="Leg" fill="#F2A384"></path>
                            <path d="M66.9415551,59.7101595 L55.5394667,27.2163365 C84.2076746,3.54339353 104.752997,-4.56078487 117.175434,2.90380127 C135.80909,14.1006805 131.974634,66.944143 132.17154,68.4707387 C132.368446,69.9973345 121.271694,74.2021787 119.171786,69.9914682 C117.071878,65.7807577 105.248726,40.4011379 104.049048,31.1001314 C99.0146981,37.7697942 86.6455338,47.3064702 66.9415551,59.7101595 Z" id="Pants" fill="url(#linearGradient-9)"></path>
                            <polygon id="Leg" fill="#F2A384" points="36.2463055 82.5064007 21.123618 79.075261 17.0556555 80.4114854 23.2094472 72.3139291 33.9714625 70.0955625"></polygon>
                            <path d="M117.961965,71.5749097 C119.935084,70.5928314 122.412724,75.9431363 126.029464,75.9431363 C129.646204,75.9431363 131.895963,71.0850125 132.820252,71.5749097 C135.522388,73.0071121 139.443748,73.7036114 143.759547,75.3884988 C154.377397,79.5337061 155.405738,80.1287416 153.861094,86.2882908 C153.861094,87.6572903 141.800998,88.3417901 117.680807,88.3417901 C116.704875,85.4792776 116.178899,82.8057969 116.102878,80.3213479 C115.988847,76.5946745 115.988847,72.5569881 117.961965,71.5749097 Z" id="Shoes" fill="#3378E4"></path>
                            <path d="M128.838138,66.0415608 C120.092407,92.943795 36.5912309,87.8689251 31.0064414,85.2313066 C27.8196764,83.7262418 31.1358962,70.7559842 32.8933366,70.1231574 C36.9764095,68.6529065 93.919155,63.5946193 82.9852587,66.0415608 C72.0513625,68.4885022 23.1433251,61.6595582 24.6989529,36.3259333 C25.7257887,19.6037619 27.6174739,15.1003688 38.653597,17.8205092 C44.3368936,19.221306 58.0769752,25.2618515 63.5826978,26.8328836 C99.4552671,37.0689528 136.793072,41.5718511 128.838138,66.0415608 Z" id="Pants" fill="url(#linearGradient-9)"></path>
                            <path d="M30.0493095,70.8963197 C29.6443549,72.784641 25.1593688,71.2538497 23.1483141,73.6505314 C21.1372595,76.047213 23.3103615,80.4111728 22.4511342,80.7339369 C19.9392047,81.6775295 17.267869,83.8641569 13.6805817,85.7276257 C4.8550373,90.3121838 3.86385041,90.6417197 0.381417025,85.9753419 C-0.583468961,85.1657064 5.63999169,76.7691039 19.051799,60.7855344 C21.6119872,61.831729 23.7887502,63.0642981 25.5820879,64.4832417 C28.2720945,66.611657 30.454264,69.0079984 30.0493095,70.8963197 Z" id="Shoes" fill="#3378E4"></path>
                        </g>
                        <g id="Body" transform="translate(22.222222, 71.666667)">
                            <mask id="mask-12" fill="white">
                                <use xlink:href="#path-11"></use>
                            </mask>
                            <use fill="url(#linearGradient-10)" fill-rule="nonzero" xlink:href="#path-11"></use>
                            <path d="M19.2616061,5.74245062 C23.7401145,4.71997461 38.9963608,5.53140099 40.4220614,19.2662046 C41.3725285,28.4227403 43.5307704,37.5660119 46.8967872,46.6960194 C50.2016602,54.8863567 60.8532466,59.8133503 78.8515466,61.4770002 C82.3598192,61.2674727 84.4695977,62.9459803 85.1808822,66.512523 C85.8921667,70.0790657 85.4367019,73.4948676 83.8144879,76.7599285 C53.8159574,82.7323262 34.3280057,82.7323262 25.3506328,76.7599285 C11.8845734,67.8013321 3.84724574,41.4440189 5.92238,26.2599071 C7.99751426,11.0757953 14.7830976,6.76492663 19.2616061,5.74245062 Z" id="Shadow" fill="#D3D3D3" fill-rule="nonzero" opacity="0.5" mask="url(#mask-12)"></path>
                        </g>
                        <g id="Head" transform="translate(12.222222, 0.000000)" fill-rule="nonzero">
                            <path d="M55.6176227,53.2258175 C62.9639531,59.6253916 66.0518245,67.1434045 64.8812367,75.7798563 C63.710649,84.416308 57.2394064,88.3322222 45.4675088,87.5275986 L22.50902,56.6554853 L55.6176227,53.2258175 Z" id="hair" fill="url(#linearGradient-13)"></path>
                            <path d="M75.859357,37.9705145 C75.6208593,45.2292521 74.9219851,50.3251792 73.7627343,53.2582959 C72.9770399,55.2462465 74.9730817,55.8511846 73.7627343,57.554842 C73.2184676,58.3209393 69.6612847,60.3143743 69.08616,61.0486874 C63.4969604,68.1849174 56.7740031,73.5969768 55.2035435,72.9456217 C54.0488377,72.4667023 51.5036807,70.6073609 47.5680726,67.3675975 C44.059629,71.5860007 42.5271612,74.6019053 42.9706693,76.415311 C43.6359314,79.1354197 35.3691526,82.9368357 32.2466897,79.6760734 C30.1650477,77.5022318 28.693362,73.8010468 27.8316326,68.5725183 L29.8239663,56.90568 L36.1333793,45.3952498 L45.136647,37.9705145 L71.7410002,36.8013511 L75.859357,37.9705145 Z" id="Face" fill="#F2A384"></path>
                            <path d="M74.684283,38.0757895 C72.7102862,46.9636543 72.3202586,53.090142 73.5142,56.4552527 C71.5698551,58.4848575 69.9243785,60.0708012 68.5777703,61.2130837 C66.6392309,62.8574817 94.2283446,54.01048 94.2283446,39.9727818 C94.2283446,25.9350835 87.9340471,25.3141795 84.3549509,24.1876707 C80.7758547,23.0611619 72.4824676,-1.68372922 50.7698551,0.520549034 C29.0572426,2.72482729 34.6647412,19.4328559 20.1789852,28.5711217 C5.6932291,37.7093875 -5.51302538,54.2203776 3.65589846,67.7843468 C12.8248223,81.348316 23.2478777,82.8778853 37.7886218,78.8866261 C45.9025017,76.6594638 45.2723146,62.4711298 46.0447785,49.387369 C46.1029238,48.4025204 43.4356062,48.6593901 43.2138863,46.1186049 C42.9921663,43.5778198 44.1144429,40.74776 46.0447785,39.9727818 C50.7698551,38.0757895 57.4047126,45.5345551 61.9871104,44.6082746 C72.6591237,42.4510462 76.8915145,40.2735512 74.684283,38.0757895 Z" id="Hair" fill="url(#linearGradient-13)"></path>
                        </g>
                        <g id="Hand" transform="translate(30.555556, 73.888889)" fill-rule="nonzero">
                            <path d="M77.433569,46.5905624 L71.0736141,41.7222358 L80.0948024,34.1308917 L81.8014891,26.7846295 L82.8690672,25.4774327 C84.4010576,25.8027704 85.5077104,25.7117897 86.1890256,25.2044907 C87.3358496,24.3505795 88.9408453,21.9580344 90.2077778,22.331622 C90.401571,22.3887669 91.9615052,22.8824753 92.0845436,23.3178933 C92.2676259,23.9657998 90.9973036,24.6407772 91.2636974,24.8169761 C93.4527263,26.2648496 94.9833009,29.3013424 93.7442638,31.4474177 C92.3085141,33.9342091 89.4494438,36.3822661 85.1670528,38.7915889 L77.433569,46.5905624 Z" fill="#F2A384"></path>
                            <path d="M13.7060505,0.186895065 C18.184559,-0.835580943 30.9106366,2.06064807 32.3363372,15.7954516 C33.7620379,29.5302552 33.3187717,42.9238297 38.284232,48.0422778 C43.2496924,53.1607259 47.1150177,48.7289332 74.8286882,37.9627411 C78.3369608,37.7532136 80.4467394,39.4317212 81.1580238,42.9982639 C81.8693083,46.5648066 81.8693083,48.2461446 81.1580238,48.0422778 C57.983243,69.8068897 41.3075276,78.9348532 31.1308777,75.4261683 C15.8659027,70.1631409 -1.70830981,35.8884634 0.366824445,20.7043516 C2.4419587,5.52023972 9.22754202,1.20937107 13.7060505,0.186895065 Z" id="Sleeve" fill="url(#linearGradient-10)"></path>
                        </g>
                    </g>
                    <g id="Girl" transform="translate(426.000000, 44.000000)">
                        <path d="M67.3668645,289.407453 C74.0500863,299.342823 106.515009,305.025953 164.761633,306.456843 L192.856462,306.456843 L174.989697,268.437091 L123.443935,245.033381 C79.3759996,264.680725 60.6836427,279.472083 67.3668645,289.407453 Z" id="Jacket" fill="#BF8D30" fill-rule="nonzero"></path>
                        <g id="Head" transform="translate(89.823557, 38.307105)">
                            <path d="M31.7735972,52.7021859 C26.8406208,54.960523 24.4526,55.887322 24.6095349,55.4825827 C25.1360577,54.1246665 40.0114473,49.0715707 40.6046088,45.5887596 C40.9634244,43.481935 40.9634244,41.1408097 40.6046088,38.5653838 L53.3254407,46.6408706 C52.1756067,51.4560165 52.5141584,55.4376353 54.3410957,58.585727 C56.1680329,61.7338188 59.7594076,64.5240627 65.1152196,66.9564589 C50.3130601,79.8110329 39.5339221,86.6331914 32.7778057,87.4229345 C22.6436312,88.6075491 23.7197132,80.5205744 31.7492269,68.6260809 C37.102236,60.6964186 37.1103594,55.3884536 31.7735972,52.7021859 Z" id="neck" fill="url(#linearGradient-14)"></path>
                            <path d="M54.2093823,8.97041373 C72.5169582,37.1633835 75.6523224,39.9767785 73.763117,48.9771107 C69.878798,67.4823302 15.9712508,86.5778034 9.46922489,70.5155067 C2.96719903,54.4532101 17.8700839,62.791383 17.1509052,48.9771107 C16.8871592,43.9109722 11.2338944,32.8937282 0.191110564,15.9253787 C27.6056282,-1.95133916 45.6117188,-4.26966083 54.2093823,8.97041373 Z" id="Hair" fill="url(#linearGradient-13)" fill-rule="nonzero"></path>
                            <path d="M10.9721898,13.5456022 L15.6241468,13.4651789 C24.2359577,11.6202017 32.5808359,12.9125744 40.6587814,17.342297 C48.7367269,21.7720196 52.0302895,26.8618469 50.5394692,32.611779 L53.8927538,46.600526 C52.7378338,51.4351953 53.0737072,55.4319567 54.9003741,58.5908102 C56.727041,61.7496637 60.3205123,64.5479147 65.6807879,66.9855633 C50.8511516,79.9013677 40.053968,86.7582923 33.2892372,87.5563373 C23.1421411,88.7534048 24.2257521,80.6343048 32.2739769,68.6875547 C37.63946,60.7230547 37.6516982,55.3945461 32.3106912,52.702029 C27.2630215,55.0306672 24.0655937,56.2864183 22.7184077,56.4692821 C20.8861654,56.7179864 15.3689776,49.0826491 11.5302733,39.9374348 C11.1352733,38.9963987 7.96921989,35.8796149 7.61560795,34.9135496 C6.82924104,32.7652008 8.6422216,32.6207552 8.38198025,30.2904005 C8.18381354,28.5158989 6.53838128,26.1486757 6.9243469,23.2209081 C7.16560716,21.3908126 8.51488811,18.1657106 10.9721898,13.5456022 Z" id="Face" fill="#D2D2D2" fill-rule="nonzero"></path>
                        </g>
                        <g id="Foot" transform="translate(71.330472, 194.177396)" fill-rule="nonzero">
                            <path d="M34.9139517,179.585364 L36.6765076,190.550595 C34.5317217,193.469654 31.8834872,194.929183 28.7318042,194.929183 C25.5801211,194.929183 22.7745448,194.193169 20.3150752,192.721142 L18.5494435,180.73615 L34.9139517,179.585364 Z" id="leg" fill="#A6A6A6" transform="translate(27.612976, 187.257273) rotate(-360.000000) translate(-27.612976, -187.257273) "></path>
                            <path d="M89.5807332,179.585364 L91.3432892,190.550595 C89.1985032,193.469654 86.5502688,194.929183 83.3985857,194.929183 C80.2469027,194.929183 77.4413263,194.193169 74.9818567,192.721142 L73.2162251,180.73615 L89.5807332,179.585364 Z" id="leg" fill="#A6A6A6" transform="translate(82.279757, 187.257273) rotate(-360.000000) translate(-82.279757, -187.257273) "></path>
                            <path d="M91.3981462,189.046331 C92.7356264,189.046331 92.7356264,193.571581 92.7938174,197.015677 C92.8150016,198.269488 92.5882231,200.179597 92.1134819,202.746005 C91.918941,203.797682 91.0621106,204.568624 90.0468976,204.605437 C68.5818358,205.383783 55.6477198,205.36276 55.6084184,204.542369 C53.8934608,198.942681 54.8276609,198.338671 64.5618176,193.945978 C68.5184252,192.160495 72.1502972,191.307959 74.6108677,189.842 C75.4525273,189.340556 77.2164382,193.394801 83.03493,193.394801 C88.8534218,193.394801 90.0606659,189.046331 91.3981462,189.046331 Z" id="Shoes" fill="#3378E4" transform="translate(73.855096, 197.110087) rotate(-360.000000) translate(-73.855096, -197.110087) "></path>
                            <path d="M96.8720068,0.44955418 C96.3376596,12.4892961 96.3376596,19.2068055 96.8720068,20.6020825 C97.6735276,22.6949979 92.9736332,48.8073866 82.7723237,98.9392487 C83.6457899,147.854043 90.9195296,174.724347 90.0473135,179.55016 C88.7389893,186.788879 73.5314081,186.788674 71.6860089,181.55721 C70.4557428,178.069567 65.3644239,149.730945 56.4120522,96.541344 L54.840969,54.824174 C48.5809036,65.7551927 39.8250665,80.6450042 28.5734576,99.4936085 C30.4139947,151.37295 37.3938702,178.831914 34.9668548,181.870501 C32.8037928,184.578622 18.5494435,186.490082 17.6940507,181.871036 C9.01839881,146.083316 4.68104147,118.441901 4.68197869,98.9467901 C4.68291591,79.4516794 13.6175687,46.6192675 31.485937,0.44955418 L96.8720068,0.44955418 Z" id="Pants" fill="url(#linearGradient-15)" transform="translate(50.820784, 92.854984) rotate(-360.000000) translate(-50.820784, -92.854984) "></path>
                            <path d="M36.7313646,189.046331 C38.0688449,189.046331 38.0688449,193.571581 38.1270358,197.015677 C38.14822,198.269488 37.9214416,200.179597 37.4467004,202.746005 C37.2521594,203.797682 36.395329,204.568624 35.3801161,204.605437 C13.9150543,205.383783 0.980938235,205.36276 0.941636851,204.542369 C-0.773320757,198.942681 0.160879373,198.338671 9.89503606,193.945978 C13.8516436,192.160495 17.4835156,191.307959 19.9440862,189.842 C20.7857457,189.340556 22.5496566,193.394801 28.3681484,193.394801 C34.1866402,193.394801 35.3938844,189.046331 36.7313646,189.046331 Z" id="Shoes" fill="#3378E4" transform="translate(19.188314, 197.110087) rotate(-360.000000) translate(-19.188314, -197.110087) "></path>
                            <path d="M28.5837082,99.4764367 L28.3681484,99.4139075 L46.5509352,48.0121126 C47.763121,49.0350339 50.5264656,51.305721 54.840969,54.824174 C48.5828048,65.751873 39.8303845,80.6359606 28.5837082,99.4764367 Z" id="Shadow" fill="#1D1D1D" transform="translate(41.604559, 73.744275) rotate(-360.000000) translate(-41.604559, -73.744275) "></path>
                        </g>
                        <path d="M122.718894,106.05196 C119.048728,111.906047 116.504635,115.838063 120.975825,118.009492 C125.447016,120.180921 135.580936,114.968569 151.377586,102.372437 C170.470933,109.634336 172.43082,115.40165 176.342111,119.674378 C180.253402,123.947105 165.829866,203.743945 160.058768,209.023457 C151.682775,216.685976 139.028374,219.345751 123.685033,217.279603 C123.685033,217.279603 123.685033,217.279603 123.685033,217.279603 L123.685033,217.279603 C112.782204,215.811418 105.133913,205.78273 106.602098,194.8799 C106.637065,194.620235 106.677151,194.361285 106.722334,194.103201 C108.579397,183.495622 109.508005,176.930639 109.508141,174.40825 C109.508428,169.088428 106.689549,156.103547 101.051502,135.453608 L113.470757,109.658599 L122.718894,106.05196 Z" id="Body" fill="url(#linearGradient-10)" fill-rule="nonzero" transform="translate(139.028374, 160.163329) rotate(-360.000000) translate(-139.028374, -160.163329) "></path>
                        <g id="Jacket" transform="translate(147.944683, 101.711969)" fill-rule="nonzero">
                            <path d="M4.42685093,101.796973 C12.9981338,130.912741 -0.976278884,164.748544 2.30245646,180.817251 C18.6379634,182.52508 32.9020309,190.821989 45.0946589,205.707976 C50.2484762,199.082277 52.5579831,184.532119 52.0231797,162.057502 C51.2209745,128.345576 43.1759307,126.47073 41.9349589,111.124511 C41.1076444,100.893698 41.1076444,88.1603696 41.9349589,72.9245259 L34.5016237,14.764621 L4.42685093,0.515826376 C-1.28733765,48.6260792 -1.28733765,82.3864616 4.42685093,101.796973 Z" fill="url(#linearGradient-16)"></path>
                            <path d="M41.3492367,89.275299 C34.5759972,82.3814292 27.9008614,72.2493316 22.6977052,57.4166541 C17.6634342,43.0654189 22.9162658,25.3200056 30.1909549,12.7223168 L34.5016237,14.764621 L41.9349589,72.9245259 C41.619214,78.7392927 41.4239732,84.1895504 41.3492367,89.275299 Z" id="Shadow" fill="#EFB84F" opacity="0.5"></path>
                        </g>
                        <g id="Hand" transform="translate(205.667231, 150.906566) scale(-1, 1) rotate(39.000000) translate(-205.667231, -150.906566) translate(171.190836, 80.764935)" fill-rule="nonzero">
                            <path d="M19.1389829,132.016494 L17.2524265,125.948133 C12.4680162,119.270636 10.1712635,115.645825 10.3621686,115.073701 C10.5530736,114.501577 11.8470018,115.227448 14.2439532,117.251314 C13.6138434,112.66283 13.5008282,110.135042 13.9049076,109.66795 C14.3089871,109.200857 15.4210467,110.95162 17.2410864,114.920236 C17.4384271,109.901449 17.8514916,107.275725 18.4802801,107.043063 C19.1090685,106.810401 20.0531238,109.244517 21.3124461,114.345409 C21.8997031,109.848013 22.4990565,107.85562 23.1105061,108.36823 C23.7219558,108.88084 24.2762334,112.433308 24.773339,119.025636 C27.1943318,116.907 28.5433982,116.225407 28.8205384,116.980859 C29.0976785,117.73631 28.3836513,120.369151 26.6784566,124.879382 C28.1065111,143.993084 25.5933532,146.372122 19.1389829,132.016494 Z" fill="#A6A6A6" transform="translate(19.614919, 124.140217) scale(-1, -1) rotate(68.000000) translate(-19.614919, -124.140217) "></path>
                            <path d="M32.4798129,40.1485669 C23.6293127,26.8813981 23.6293127,17.504136 32.4798129,12.0167808 C39.4509872,7.69461727 43.0025341,-0.410024768 44.4344858,0.0815248008 C45.7295112,0.526071376 44.9709915,9.22123867 49.233414,12.0167808 C59.9928259,19.0734227 73.3429009,52.8200111 65.6728909,74.8212325 C51.6045444,115.175914 38.8596889,116.013706 30.988024,121.082979 C25.7402475,124.462494 22.7253601,122.248362 21.9433619,114.440584 C36.7348037,92.7319294 43.5536225,78.5294616 42.3998184,71.8331801 C41.2460143,65.1368986 37.9393458,54.5753609 32.4798129,40.1485669 Z" id="Sleeve" fill="url(#linearGradient-16)"></path>
                        </g>
                        <path d="M16.6970982,92.4436081 L14.8140437,86.3540504 C10.0385141,79.6532285 7.7460246,76.0157564 7.93657528,75.441634 C8.12712596,74.8675116 9.41865241,75.5959179 11.8111546,77.6268528 C11.1822144,73.0223417 11.069409,70.4857242 11.4727384,70.0170004 C11.8760677,69.5482765 12.9860632,71.305154 14.8027246,75.2876328 C14.999699,70.2513156 15.4119968,67.6164197 16.0396181,67.3829451 C16.6672393,67.1494706 17.6095423,69.5920881 18.8665271,74.7107978 C19.4526941,70.1976922 20.0509349,68.1983397 20.6612496,68.7127402 C21.2715642,69.2271408 21.824813,72.7920183 22.3209959,79.4073729 C24.7374949,77.2813363 26.0840572,76.5973632 26.3606829,77.3554535 C26.6373086,78.1135439 25.9246068,80.7555814 24.2225773,85.281566 C25.647981,104.462033 23.139488,106.84938 16.6970982,92.4436081 Z" id="Hand" fill="#A6A6A6" fill-rule="nonzero" transform="translate(17.172151, 84.539819) rotate(-33.000000) translate(-17.172151, -84.539819) "></path>
                        <g id="Jacket" transform="translate(22.455889, 87.842155)">
                            <mask id="mask-18" fill="white">
                                <use xlink:href="#path-17"></use>
                            </mask>
                            <use fill="url(#linearGradient-16)" fill-rule="nonzero" xlink:href="#path-17"></use>
                            <path d="M72.4702314,60.8631203 C72.5517739,56.1997029 73.2961711,52.4114255 74.703423,49.4982882 C76.1106749,46.5851508 76.5052977,44.8684806 75.8872914,44.3482775 C60.5362719,51.91841 47.6858175,53.6350802 37.3359283,49.4982882 C26.9860391,45.3614961 29.5928241,51.0362055 45.1562833,66.5224163 L72.4702314,60.8631203 Z" id="Shadow" fill="#EFB84F" fill-rule="nonzero" opacity="0.5" mask="url(#mask-18)"></path>
                        </g>
                        <path d="M166.464182,78.1631859 C164.362344,79.9973016 195.715128,71.1926815 195.4972,54.7917033 C195.279272,38.390725 181.780084,38.7764454 178.055822,37.5705865 C174.33156,36.3647275 158.622853,11.6942385 136.271447,19.2779878 C125.160989,23.0477252 124.273445,32.463048 114.017312,43.7033921 C109.948229,48.1629574 102.867528,45.7436711 98.6978631,50.3938879 C94.5281981,55.0441046 92.3158976,62.2964863 89.8226932,66.365557 C86.4630844,71.8486557 72.2072006,75.2723492 73.3802896,86.3102929 C74.5533785,97.3482366 86.8349496,101.198955 104.242168,103.602911 C112.286921,104.7139 111.696171,95.2759935 115.521457,92.5855238 C119.973316,89.4543611 126.251803,90.4440398 128.379342,87.6669458 C132.334983,82.5036176 129.923722,81.3088173 131.688307,78.0718835 C132.864697,75.9139276 134.594275,73.9162553 136.877041,72.0788666 C133.085676,70.3326798 132.391892,67.2411024 134.79569,62.8041343 C138.401387,56.1486821 144.554597,59.5043278 144.554597,65.3677606 L147.784229,61.5994971 C151.690541,63.914729 155.600269,65.1748207 159.513414,65.379772 C163.426559,65.5847233 166.712964,65.4434352 169.372629,64.9559075 C169.692973,71.8563612 168.723491,76.2587874 166.464182,78.1631859 Z" id="Face" fill="url(#linearGradient-13)" fill-rule="nonzero" transform="translate(134.405103, 60.762995) scale(-1, 1) rotate(-19.000000) translate(-134.405103, -60.762995) "></path>
                    </g>
                    <g id="Head" transform="translate(322.777778, 158.888889)" fill-rule="nonzero">
                        <path d="M15.3191562,60.170916 C13.6018575,65.723225 12.2203088,69.3978215 11.1745099,71.1947053 C9.60581163,73.8900311 12.3971992,80.671247 19.2297103,80.671247 C23.7847176,80.671247 31.2332042,78.5987817 41.57517,74.4538509 C39.3140902,72.0002888 37.693542,69.2550691 36.7135256,66.2181919 C35.7335092,63.1813146 35.7335092,59.5174029 36.7135256,55.2264567 C41.9514659,42.9651061 44.023288,35.509773 42.928992,32.8604573 C41.8346959,30.2111417 35.9522328,25.6968596 25.2816027,19.317611 C14.1465185,23.9049498 8.57897644,27.9261769 8.57897644,31.3812924 C8.57897644,34.8364078 8.57897644,37.9082554 8.57897644,40.596835 C5.33091188,39.1928073 3.7068796,40.2932357 3.7068796,43.8981203 C3.7068796,47.5030049 5.80623591,49.9683519 10.0049485,51.2941614 L15.3191562,60.170916 Z" id="Neck" fill="#D2D2D2"></path>
                        <path d="M28.8575875,4.36544266 C32.0636702,6.05617972 41.7873559,8.8758658 43.5048533,11.5365997 C45.7656507,15.0390097 46.268326,18.6209521 45.0128793,22.2824271 C48.7307445,27.3917295 48.7307445,34.5959161 45.0128793,43.8949868 C39.4360814,57.843593 35.8125492,59.2514468 28.8575875,60.1228247 C21.9026258,60.9942025 16.8958347,53.3804305 14.5545382,47.7110716 C12.9936739,43.9314991 10.9603631,41.2395178 8.45460566,39.6351278 C7.65296163,33.1839595 7.25213961,29.9583753 7.25213961,29.9583753 C7.25213961,29.9583753 0.111079176,29.2704911 0.111079176,17.089897 C0.111079176,4.90930291 8.45460566,-6.39412935 28.8575875,4.36544266 Z" id="Hair" fill="#000000"></path>
                    </g>
                    <g id="Man" transform="translate(233.888889, 153.333333)">
                        <g id="Foot" transform="translate(106.666667, 153.333333)" fill-rule="nonzero">
                            <path d="M74.0895766,80.0616609 C74.7677525,79.6051684 84.37673,80.1045152 83.2394918,85.2534871 C82.1022537,90.4024589 81.7198382,92.4365188 81.5625398,94.5344125 C81.4576742,95.9330083 80.7548133,97.033861 79.4539571,97.8369705 L73.135796,94.5344125 L71.8850095,89.7202679 C72.9026037,83.5855249 73.6374594,80.3659892 74.0895766,80.0616609 Z" id="Leg" fill="#A6A6A6"></path>
                            <path d="M70.4210408,87.5175252 C72.2926686,87.2246755 72.8678042,92.3200258 75.8131474,93.2770259 C78.7584907,94.2340259 81.9004753,90.7979779 82.5210955,91.4490713 C84.335463,93.3525263 87.3410851,94.9680946 90.4014325,97.5082114 C97.9305848,103.757478 98.6075934,104.523349 95.6889345,109.225914 C95.3198207,110.361929 85.3139554,107.7388 65.6713386,101.356527 C65.648374,98.7229388 65.9408697,96.3652714 66.5488257,94.2835248 C67.4607598,91.1609048 68.549413,87.8103749 70.4210408,87.5175252 Z" id="Shoes" fill="#3378E4"></path>
                            <path d="M32.280055,77.1683947 C32.5773206,77.6251867 32.3661336,80.4341062 31.6464939,85.5951533 L28.6141027,89.5378755 L21.5077925,90.109194 C22.4918036,89.5167597 23.2087819,88.5563484 23.6587275,87.2279599 C24.333646,85.2353772 24.5797719,84.0193433 25.5448022,78.8353354 C26.5098325,73.6513275 31.8341566,76.4832067 32.280055,77.1683947 Z" id="Leg" fill="#A6A6A6"></path>
                            <path d="M31.2133521,84.626031 C33.3267518,84.8178999 34.1712414,85.8428368 35.0438137,88.8931526 C35.6255285,90.9266964 35.8338772,93.2506596 35.6688599,95.8650419 C26.6231779,98.3039132 21.2215622,99.1851921 19.4640128,98.5088784 C12.3842778,95.7845617 18.5983074,86.4973587 19.6495762,85.5333912 C20.389827,84.8546136 22.1945653,83.5630652 25.5951584,82.4581455 C28.9957515,81.3532259 29.0999524,84.4341622 31.2133521,84.626031 Z" id="Shoes" fill="#3378E4"></path>
                            <path d="M62.3229188,11.6960474 C83.7130573,2.08882552 99.0565082,2.08882552 108.353272,11.6960474 C122.298417,26.1068802 89.7308724,77.6916491 87.5158758,84.2067192 C85.3008791,90.7217893 79.1390502,86.5408368 76.8071159,85.9180223 C75.2524931,85.5028126 73.8421987,84.2065202 72.5762329,82.0291452 L82.6638702,40.9358396 L57.3072559,37.4983856 L50.0425966,21.642043 L62.3229188,11.6960474 Z" id="Pants" fill="#000000"></path>
                            <path d="M12.3229188,11.6960474 C36.3854344,0.445000419 50.5811248,-2.36776132 54.9099901,3.25776216 C61.4032881,11.6960474 66.9654603,39.4335703 34.4746365,80.4657781 C32.1324562,82.1230384 30.0519642,82.821347 28.2331607,82.5607038 C26.4143572,82.3000607 24.899085,80.641393 23.687344,77.5847008 L32.6638702,40.9358396 L7.3072559,37.4983856 L0.0425966193,21.642043 L12.3229188,11.6960474 Z" id="Pants" fill="#000000"></path>
                        </g>
                        <g id="Body">
                            <path d="M100.108032,78.2988266 C110.402493,83.0068618 116.666035,84.1838706 118.898658,81.829853 C121.131282,79.4758354 122.11532,77.7353741 121.850772,76.6084691 C141.741587,78.2875556 153.859103,83.6931975 158.203319,92.8253948 C164.719644,106.523691 181.945119,152.199884 189.454574,143.060393 C194.460878,136.967399 197.952525,131.927955 199.929516,127.94206 C196.63774,124.889039 194.991852,123.030666 194.991852,122.366941 C194.991852,121.371353 198.281496,121.318619 199.929516,121.84278 C201.577536,122.366941 201.270215,110.369106 202.308819,109.580277 C203.001222,109.05439 203.88033,111.871834 204.946142,118.032608 C206.525535,111.404452 207.596305,108.223378 208.158454,108.489387 C208.720602,108.755395 208.720602,112.443158 208.158454,119.552674 C210.944072,116.25732 212.549804,114.865064 212.97565,115.375906 C213.401497,115.886749 212.57777,118.217094 210.504471,122.366941 C213.066611,121.428783 214.347681,121.254063 214.347681,121.84278 C214.347681,122.431497 213.066611,123.618642 210.504471,125.404214 L208.158454,129.766659 C202.459277,151.905268 194.179646,163.656114 183.319561,165.019199 C172.459477,166.382284 168.133246,166.382284 170.340868,165.019199 C172.994489,168.661836 173.958505,171.707206 173.232918,174.155311 C172.144537,177.827467 164.840473,196.136512 157.227857,199.223291 C152.152779,201.281143 137.672664,196.059635 113.787511,183.558767 L73.4273503,146.321948 L69.4484724,105.504728 C31.7527015,84.1339232 11.2943512,56.10729 8.0734214,21.4248284 L6.45572134,16.245132 C2.70460827,12.1729737 0.717379368,9.85699552 0.494034631,9.29719729 C0.270689894,8.73739907 1.47210681,9.08379363 4.09828539,10.336381 C2.76811368,6.56394627 2.27627453,4.4783838 2.62276794,4.07969355 C2.96926134,3.6810033 4.24691247,4.86237661 6.45572134,7.62381351 C6.61845598,2.81223713 6.96941268,0.307153771 7.50859143,0.108563429 C8.04777018,-0.0900269127 8.85728663,1.98763092 9.9371408,6.34153693 C10.4407069,2.50274965 10.9546454,0.802127121 11.4789563,1.23966935 C12.0032673,1.67721158 12.4785539,4.70944878 12.9048161,10.336381 C14.9807892,8.52800266 16.137598,7.94622427 16.3752424,8.59104578 C16.6128869,9.2358673 16.0006168,11.4831491 14.5384323,15.3328911 C30.0850187,41.193056 43.188618,56.3779023 53.8492303,60.8874298 C64.5098426,65.3969574 80.3354762,70.0413747 101.326131,74.8206818 L100.108032,78.2988266 Z" fill="url(#linearGradient-19)" fill-rule="nonzero"></path>
                            <path d="M110.466442,86.1111111 C116.848286,87.9157777 123.086354,85.0042626 129.180648,77.3765659 C144.184879,78.5435879 153.859103,83.6931975 158.203319,92.8253948 C162.021517,100.851822 169.516485,119.857213 176.579254,132.381143 C179.906521,138.281161 173.781209,144.907145 158.203319,152.259096 C162.836045,159.272251 167.507009,163.823411 172.21621,165.912574 C173.813817,167.414499 173.813817,172.195381 173.232918,174.155311 C172.144537,177.827467 164.840473,196.136512 157.227857,199.223291 C152.152779,201.281143 137.672664,196.059635 113.787511,183.558767 L73.4273503,146.321948 L68.3779156,105.952142 C55.4898434,101.081562 48.6819634,97.1615389 47.9542754,94.1920733 C42.4916601,71.9008587 54.0640348,59.4719702 63.4279556,63.4329865 C74.0885678,67.9425141 86.847726,71.2810255 101.70543,73.4485208 C101.164261,80.0855811 104.084599,84.3064445 110.466442,86.1111111 Z" fill="url(#linearGradient-20)"></path>
                        </g>
                    </g>
                    <g id="Chair" transform="translate(296.000000, 260.000000)">
                        <polygon id="Chair-base" fill="#9F9F9F" fill-rule="nonzero" points="86.6599965 103.541814 93.4127234 103.541814 93.4127234 131.115449 86.6599965 131.115449"></polygon>
                        <ellipse id="Shadow" fill="#505050" opacity="0.2" cx="90.2481598" cy="168.461585" rx="64.2481598" ry="12.4615854"></ellipse>
                        <circle id="Wheel" fill="#060606" fill-rule="nonzero" cx="53.4590887" cy="166.567266" r="5.06454525"></circle>
                        <circle id="Wheel" fill="#060606" fill-rule="nonzero" cx="124.362722" cy="166.567266" r="5.06454525"></circle>
                        <circle id="Wheel" fill="#060606" fill-rule="nonzero" cx="90.03636" cy="172.194538" r="5.06454525"></circle>
                        <path d="M83.2171673,137.256996 L82.8272264,133.063675 C82.819347,132.978941 82.8162791,132.893829 82.8180375,132.808748 C82.8437256,131.56587 83.872101,130.579144 85.1149783,130.604832 L94.7878923,130.804754 C94.8300131,130.805624 94.8721012,130.807677 94.9141068,130.81091 C96.153584,130.906305 97.0810463,131.988432 96.9856519,133.227909 L96.7084436,136.829729 L127.505337,157.968208 C127.588879,158.025549 127.669846,158.086552 127.748004,158.151039 C129.213959,159.360575 129.421828,161.529489 128.212292,162.995444 C126.824827,164.677049 124.436748,165.132643 122.527638,164.079954 L95.7476579,149.313394 L94.2813309,168.365653 C94.1174399,170.495118 92.3697503,172.155746 90.2346949,172.210703 C88.1196284,172.265147 86.3243557,170.670871 86.1284536,168.564193 L84.2893344,148.786794 L56.5543358,164.079954 C54.6452258,165.132643 52.2571475,164.677049 50.8696822,162.995444 C49.6601463,161.529489 49.8680149,159.360575 51.3339699,158.151039 C51.4121277,158.086552 51.4930955,158.025549 51.5766368,157.968208 L82.9838418,136.410821 L83.2171673,137.256996 Z" id="Chair-base" fill="#545454" fill-rule="nonzero"></path>
                        <path d="M105.207892,81.0329538 C114.269768,78.5446779 126.526128,75.8038337 132.733275,81.0329538 C138.940422,86.262074 136.086745,94.6651882 131.933675,99.3923864 C129.164962,102.543852 116.882269,105.572626 95.085596,108.478707 L93.1489529,92.5362445 C98.409246,90.2909528 102.428892,86.4565226 105.207892,81.0329538 Z" id="Chair-base" fill="#000000" fill-rule="nonzero"></path>
                        <path d="M10.82044,1.0069174 C7.41361586,-0.895286769 2.20668468,0.885903037 0.562004357,3.27312628 C1.09132491,6.64854709 1.42619197,8.10738593 1.44063441,8.1852596 C6.79006839,37.0294241 27.5184746,64.8014883 43.6516203,82.1833971 C52.8481294,92.0917488 60.6434688,99.9959696 67.0376383,105.896059 C73.2442821,106.86238 78.9567197,106.200438 84.1749512,103.910233 C87.5768746,102.417178 92.9118359,102.856655 92.7598986,98.1782149 C92.4467244,88.5349808 83.8797382,83.6643785 80.498868,69.6969154 C77.3270966,56.5933068 80.8946891,29.9001216 71.3085188,24.4054238 C61.7223486,18.9107259 49.7167162,28.4483479 31.4205149,20.5030113 C18.4781607,14.8826446 14.227264,2.90912157 10.82044,1.0069174 Z" id="Chair-base" fill="#444444" fill-rule="nonzero"></path>
                        <path d="M0.490273536,2.95698632 C4.65537147,36.0776107 8.27157091,57.8701662 11.3388718,68.3346528 C15.9907039,84.2049688 21.917216,90.8871283 28.314326,97.2514151 C34.711436,103.615702 58.6344366,114.705025 77.7464131,115.68677 C94.6621311,116.555697 118.284725,111.61192 127.022831,106.177261 C135.760937,100.742602 140.281399,89.0912498 130.401801,86.194133 C120.522204,83.2970163 88.6746688,95.2269429 85.6744526,93.925343 C68.9814649,86.683335 74.0701197,36.4390778 66.0226629,31.1107774 C58.373791,26.046384 42.0621624,32.5496452 22.4168789,23.8793748 C16.658635,21.3380253 9.34976652,14.3638958 0.490273536,2.95698632 Z" id="Chair-base" fill="url(#linearGradient-7)" fill-rule="nonzero"></path>
                    </g>
                </g>
                <path d="M700.804002,861.363006 C716.922315,861.363006 729.988812,864.175941 729.988812,867.645865 C729.988812,871.115803 716.922315,873.92871 700.804002,873.92871 C684.685631,873.92871 671.619133,871.115803 671.619133,867.645865 C671.619133,864.175941 684.685631,861.363006 700.804002,861.363006 Z" id="shadow" fill="#BBCFF2" opacity="0.2"></path>
                <mask id="mask-23" fill="white">
                    <use xlink:href="#path-22"></use>
                </mask>
                <use id="Ellipse-2" fill="url(#linearGradient-21)" xlink:href="#path-22"></use>
                <mask id="mask-26" fill="white">
                    <use xlink:href="#path-25"></use>
                </mask>
                <use id="Ellipse-1" fill="url(#linearGradient-24)" xlink:href="#path-25"></use>
                <mask id="mask-29" fill="white">
                    <use xlink:href="#path-28"></use>
                </mask>
                <g id="Shape-2">
                    <use fill="url(#linearGradient-27)" fill-rule="evenodd" xlink:href="#path-28"></use>
                    <use fill="black" fill-opacity="1" filter="url(#filter-30)" xlink:href="#path-28"></use>
                </g>
                <path d="M691.197381,787.135391 L689.172196,777.551799 L686.45097,778.685577 C688.264512,781.445876 689.841849,784.240756 691.197381,787.135391 Z M697.827247,818.509273 C697.958812,822.70866 697.906037,827.21933 697.684151,832.110209 L700.650199,831.868062 L697.827247,818.509273 Z" id="Shape-3" stroke="#489C71" stroke-width="3" fill-opacity="0" fill="#000000" opacity="0.5" style="mix-blend-mode: multiply;" mask="url(#mask-29)"></path>
                <mask id="mask-33" fill="white">
                    <use xlink:href="#path-32"></use>
                </mask>
                <g id="Shape-2">
                    <use fill="url(#linearGradient-31)" fill-rule="evenodd" xlink:href="#path-32"></use>
                    <use fill="black" fill-opacity="1" filter="url(#filter-34)" xlink:href="#path-32"></use>
                </g>
                <path d="M692.112523,830.018321 L679.696441,812.754763 C684.43155,817.289691 688.406218,822.819894 692.112523,830.018321 Z M679.696441,812.754763 L673.523403,804.171652 L671.490806,806.306854 C674.486102,808.244856 677.197195,810.361175 679.696441,812.754763 Z M692.112523,830.018321 C694.101901,833.882114 696.013962,838.226532 697.924802,843.155642 L700.541145,841.737639 L692.112523,830.018321 Z" id="Shape-3" stroke="#489C71" stroke-width="3" fill-opacity="0" fill="#000000" opacity="0.5" style="mix-blend-mode: multiply;" mask="url(#mask-33)"></path>
                <mask id="mask-36" fill="white">
                    <use xlink:href="#path-35"></use>
                </mask>
                <g id="Shape-2">
                    <use fill="url(#linearGradient-27)" fill-rule="evenodd" xlink:href="#path-35"></use>
                    <use fill="black" fill-opacity="1" filter="url(#filter-37)" xlink:href="#path-35"></use>
                </g>
                <path d="M707.331927,830.057707 C710.107267,822.339424 713.372418,816.275957 717.539689,811.116514 L707.331927,830.057707 Z M717.539689,811.116514 C719.706238,808.434137 722.116625,805.996111 724.828787,803.696932 L722.538369,801.841125 L717.539689,811.116514 Z M707.331927,830.057707 L700.50213,842.730858 L703.279445,843.799631 C704.533967,838.682361 705.864479,834.138714 707.331927,830.057707 Z" id="Shape-3" stroke="#489C71" stroke-width="3" fill-opacity="0" fill="#000000" opacity="0.5" style="mix-blend-mode: multiply;" mask="url(#mask-36)"></path>
            </g>
        </g>
    </g>
</svg>