<?xml version="1.0" encoding="UTF-8"?>
<svg width="15px" height="17px" viewBox="0 0 15 17" version="1.1" xmlns="http://www.w3.org/2000/svg" xmlns:xlink="http://www.w3.org/1999/xlink">
    <!-- Generator: Sketch 51.3 (57544) - http://www.bohemiancoding.com/sketch -->
    <title>IG</title>
    <desc>Created with Sketch.</desc>
    <defs></defs>
    <g id="Welcome" stroke="none" stroke-width="1" fill="none" fill-rule="evenodd">
        <g id="Home--Hamburger-Effect" transform="translate(-1087.000000, -1191.000000)" fill="#000000">
            <g id="Group-2" transform="translate(963.000000, 0.000000)">
                <g id="Media-Icons" transform="translate(124.000000, 1191.000000)">
                    <g id="IG">
                        <path d="M12.1472848,4.47599588 C12.1461901,4.99220988 11.7564947,5.40011111 11.2649967,5.40011111 C10.7745934,5.40011111 10.3870872,4.9945144 10.3838033,4.47714815 C10.3805193,3.95517284 10.7756881,3.54035802 11.2737539,3.54381481 C11.7608733,3.5472716 12.1494741,3.96093416 12.1472848,4.47599588 M7.32863457,11.1522099 C6.00082387,11.1499053 4.91821481,9.99418519 4.91821481,8.57920576 C4.91930947,7.16422634 6.01067572,6.02463786 7.36366337,6.02463786 C8.70570453,6.02463786 9.79050288,7.17459671 9.79050288,8.59879424 C9.78940823,10.0206872 8.69585267,11.1533621 7.32863457,11.1522099 M7.35381152,4.62463786 C5.27178683,4.6234856 3.58712016,6.39797119 3.58821481,8.59418519 C3.58930947,10.776572 5.26959753,12.5499053 7.34505432,12.5533621 C9.43036296,12.5579712 11.1205029,10.7846379 11.1215975,8.59418519 C11.1215975,6.39797119 9.43802551,4.62463786 7.35381152,4.62463786 M13.2255152,12.4669424 C13.0306675,13.8150905 12.177935,14.652786 10.888437,14.801428 C9.70402551,14.9373951 4.41248642,15.0122922 3.31345761,14.6885062 C2.26149877,14.3808519 1.6605358,13.6192058 1.48648642,12.5049671 C1.31900494,11.441428 1.27740823,6.12488477 1.48429712,4.70183951 C1.67805021,3.36290947 2.52859342,2.52867078 3.81152346,2.37657202 C5.1119679,2.22332099 9.79597613,2.2071893 11.0416881,2.40998765 C12.3224288,2.61393827 13.1160502,3.51385597 13.2561654,4.87352675 C13.3875235,6.14216872 13.4247416,11.1026626 13.2255152,12.4669424 M14.5785029,4.7398642 C14.4799844,3.72126337 14.1088979,2.82249794 13.3908074,2.10118107 C12.6344041,1.34068724 11.7105193,1.0053786 10.6968733,0.950069959 C8.97060988,0.850975309 4.87223951,0.787600823 3.43167984,1.03533745 C1.78751523,1.31648971 0.709284774,2.32817695 0.253910288,4.0381358 C-0.0963777778,5.35286831 -0.0263201646,11.4149259 0.177284774,12.7169835 C0.456420576,14.4949259 1.45474156,15.6356667 3.12846173,16.0896584 C4.2876963,16.4042263 9.98097202,16.3627449 11.2595235,16.1461193 C12.9496634,15.8580535 14.0388403,14.8129506 14.4767004,13.0534444 C14.8138527,11.7029918 14.6956305,5.95780658 14.5785029,4.7398642" id="Fill-4"></path>
                    </g>
                </g>
            </g>
        </g>
    </g>
</svg>