<?xml version="1.0" encoding="UTF-8"?>
<svg width="10px" height="18px" viewBox="0 0 10 18" version="1.1" xmlns="http://www.w3.org/2000/svg" xmlns:xlink="http://www.w3.org/1999/xlink">
    <!-- Generator: Sketch 51.3 (57544) - http://www.bohemiancoding.com/sketch -->
    <title>FB</title>
    <desc>Created with Sketch.</desc>
    <defs></defs>
    <g id="Welcome" stroke="none" stroke-width="1" fill="none" fill-rule="evenodd">
        <g id="Home--Hamburger-Effect" transform="translate(-1146.000000, -1191.000000)" fill="#000000">
            <g id="Group-2" transform="translate(963.000000, 0.000000)">
                <g id="Media-Icons" transform="translate(124.000000, 1191.000000)">
                    <g id="FB" transform="translate(59.000000, 0.000000)">
                        <path d="M8.11500386,3.12692308 C8.65572685,3.10846154 9.19532099,3.12346154 9.73717284,3.12115385 L9.95955787,3.12115385 L9.95955787,0.250384615 C9.67169907,0.220384615 9.36916512,0.177692308 9.06776003,0.162692308 C8.51349074,0.137307692 7.95809259,0.109615385 7.40269444,0.122307692 C6.55605093,0.139615385 5.75569059,0.350769231 5.05579861,0.864230769 C4.25318056,1.45384615 3.81179707,2.28346154 3.64472608,3.26192308 C3.57473688,3.66576923 3.55667515,4.08461538 3.54651543,4.49423077 C3.53071142,5.13923077 3.54312886,5.78423077 3.54425772,6.42807692 L3.54425772,6.67038462 L0.855317901,6.67038462 L0.855317901,9.87807692 L3.52958256,9.87807692 L3.52958256,17.9423077 L6.79536883,17.9423077 L6.79536883,9.89192308 L9.45947377,9.89192308 C9.59606559,8.82346154 9.73039969,7.76769231 9.87037809,6.66807692 C9.6547662,6.66807692 9.46286034,6.66692308 9.26982562,6.66807692 C8.51349074,6.67038462 6.77392052,6.66807692 6.77392052,6.66807692 C6.77392052,6.66807692 6.78069367,5.07692308 6.79988426,4.38923077 C6.82584799,3.44192308 7.37447299,3.15346154 8.11500386,3.12692308" id="Fill-4"></path>
                    </g>
                </g>
            </g>
        </g>
    </g>
</svg>