<?xml version="1.0" encoding="UTF-8"?>
<svg width="479px" height="112px" viewBox="0 0 479 112" version="1.1" xmlns="http://www.w3.org/2000/svg" xmlns:xlink="http://www.w3.org/1999/xlink">
    <!-- Generator: Sketch 51.3 (57544) - http://www.bohemiancoding.com/sketch -->
    <title>Group 4 Copy</title>
    <desc>Created with Sketch.</desc>
    <defs></defs>
    <g id="Welcome" stroke="none" stroke-width="1" fill="none" fill-rule="evenodd">
        <g id="Home--Hamburger-Effect" transform="translate(-179.000000, -1135.000000)" fill="#C6C6C6" fill-rule="nonzero">
            <g id="Group-4-Copy" transform="translate(179.000000, 1135.000000)">
                <path d="M170.454545,173 C169.048729,173 167.909091,171.861245 167.909091,170.456522 C167.909091,169.051798 169.048729,167.913043 170.454545,167.913043 C171.860362,167.913043 173,169.051798 173,170.456522 C173,171.861245 171.860362,173 170.454545,173 Z M155.181818,173 C153.776002,173 152.636364,171.861245 152.636364,170.456522 C152.636364,169.051798 153.776002,167.913043 155.181818,167.913043 C156.587635,167.913043 157.727273,169.051798 157.727273,170.456522 C157.727273,171.861245 156.587635,173 155.181818,173 Z M139.909091,173 C138.503275,173 137.363636,171.861245 137.363636,170.456522 C137.363636,169.051798 138.503275,167.913043 139.909091,167.913043 C141.314907,167.913043 142.454545,169.051798 142.454545,170.456522 C142.454545,171.861245 141.314907,173 139.909091,173 Z M124.636364,173 C123.230547,173 122.090909,171.861245 122.090909,170.456522 C122.090909,169.051798 123.230547,167.913043 124.636364,167.913043 C126.04218,167.913043 127.181818,169.051798 127.181818,170.456522 C127.181818,171.861245 126.04218,173 124.636364,173 Z M109.363636,173 C107.95782,173 106.818182,171.861245 106.818182,170.456522 C106.818182,169.051798 107.95782,167.913043 109.363636,167.913043 C110.769453,167.913043 111.909091,169.051798 111.909091,170.456522 C111.909091,171.861245 110.769453,173 109.363636,173 Z M94.0909091,173 C92.6850927,173 91.5454545,171.861245 91.5454545,170.456522 C91.5454545,169.051798 92.6850927,167.913043 94.0909091,167.913043 C95.4967255,167.913043 96.6363636,169.051798 96.6363636,170.456522 C96.6363636,171.861245 95.4967255,173 94.0909091,173 Z M78.8181818,173 C77.4123655,173 76.2727273,171.861245 76.2727273,170.456522 C76.2727273,169.051798 77.4123655,167.913043 78.8181818,167.913043 C80.2239982,167.913043 81.3636364,169.051798 81.3636364,170.456522 C81.3636364,171.861245 80.2239982,173 78.8181818,173 Z M63.5454545,173 C62.1396382,173 61,171.861245 61,170.456522 C61,169.051798 62.1396382,167.913043 63.5454545,167.913043 C64.9512709,167.913043 66.0909091,169.051798 66.0909091,170.456522 C66.0909091,171.861245 64.9512709,173 63.5454545,173 Z M170.454545,157.73913 C169.048729,157.73913 167.909091,156.600376 167.909091,155.195652 C167.909091,153.790929 169.048729,152.652174 170.454545,152.652174 C171.860362,152.652174 173,153.790929 173,155.195652 C173,156.600376 171.860362,157.73913 170.454545,157.73913 Z M155.181818,157.73913 C153.776002,157.73913 152.636364,156.600376 152.636364,155.195652 C152.636364,153.790929 153.776002,152.652174 155.181818,152.652174 C156.587635,152.652174 157.727273,153.790929 157.727273,155.195652 C157.727273,156.600376 156.587635,157.73913 155.181818,157.73913 Z M139.909091,157.73913 C138.503275,157.73913 137.363636,156.600376 137.363636,155.195652 C137.363636,153.790929 138.503275,152.652174 139.909091,152.652174 C141.314907,152.652174 142.454545,153.790929 142.454545,155.195652 C142.454545,156.600376 141.314907,157.73913 139.909091,157.73913 Z M124.636364,157.73913 C123.230547,157.73913 122.090909,156.600376 122.090909,155.195652 C122.090909,153.790929 123.230547,152.652174 124.636364,152.652174 C126.04218,152.652174 127.181818,153.790929 127.181818,155.195652 C127.181818,156.600376 126.04218,157.73913 124.636364,157.73913 Z M109.363636,157.73913 C107.95782,157.73913 106.818182,156.600376 106.818182,155.195652 C106.818182,153.790929 107.95782,152.652174 109.363636,152.652174 C110.769453,152.652174 111.909091,153.790929 111.909091,155.195652 C111.909091,156.600376 110.769453,157.73913 109.363636,157.73913 Z M94.0909091,157.73913 C92.6850927,157.73913 91.5454545,156.600376 91.5454545,155.195652 C91.5454545,153.790929 92.6850927,152.652174 94.0909091,152.652174 C95.4967255,152.652174 96.6363636,153.790929 96.6363636,155.195652 C96.6363636,156.600376 95.4967255,157.73913 94.0909091,157.73913 Z M78.8181818,157.73913 C77.4123655,157.73913 76.2727273,156.600376 76.2727273,155.195652 C76.2727273,153.790929 77.4123655,152.652174 78.8181818,152.652174 C80.2239982,152.652174 81.3636364,153.790929 81.3636364,155.195652 C81.3636364,156.600376 80.2239982,157.73913 78.8181818,157.73913 Z M63.5454545,157.73913 C62.1396382,157.73913 61,156.600376 61,155.195652 C61,153.790929 62.1396382,152.652174 63.5454545,152.652174 C64.9512709,152.652174 66.0909091,153.790929 66.0909091,155.195652 C66.0909091,156.600376 64.9512709,157.73913 63.5454545,157.73913 Z M170.454545,142.478261 C169.048729,142.478261 167.909091,141.339506 167.909091,139.934783 C167.909091,138.530059 169.048729,137.391304 170.454545,137.391304 C171.860362,137.391304 173,138.530059 173,139.934783 C173,141.339506 171.860362,142.478261 170.454545,142.478261 Z M155.181818,142.478261 C153.776002,142.478261 152.636364,141.339506 152.636364,139.934783 C152.636364,138.530059 153.776002,137.391304 155.181818,137.391304 C156.587635,137.391304 157.727273,138.530059 157.727273,139.934783 C157.727273,141.339506 156.587635,142.478261 155.181818,142.478261 Z M139.909091,142.478261 C138.503275,142.478261 137.363636,141.339506 137.363636,139.934783 C137.363636,138.530059 138.503275,137.391304 139.909091,137.391304 C141.314907,137.391304 142.454545,138.530059 142.454545,139.934783 C142.454545,141.339506 141.314907,142.478261 139.909091,142.478261 Z M124.636364,142.478261 C123.230547,142.478261 122.090909,141.339506 122.090909,139.934783 C122.090909,138.530059 123.230547,137.391304 124.636364,137.391304 C126.04218,137.391304 127.181818,138.530059 127.181818,139.934783 C127.181818,141.339506 126.04218,142.478261 124.636364,142.478261 Z M109.363636,142.478261 C107.95782,142.478261 106.818182,141.339506 106.818182,139.934783 C106.818182,138.530059 107.95782,137.391304 109.363636,137.391304 C110.769453,137.391304 111.909091,138.530059 111.909091,139.934783 C111.909091,141.339506 110.769453,142.478261 109.363636,142.478261 Z M94.0909091,142.478261 C92.6850927,142.478261 91.5454545,141.339506 91.5454545,139.934783 C91.5454545,138.530059 92.6850927,137.391304 94.0909091,137.391304 C95.4967255,137.391304 96.6363636,138.530059 96.6363636,139.934783 C96.6363636,141.339506 95.4967255,142.478261 94.0909091,142.478261 Z M78.8181818,142.478261 C77.4123655,142.478261 76.2727273,141.339506 76.2727273,139.934783 C76.2727273,138.530059 77.4123655,137.391304 78.8181818,137.391304 C80.2239982,137.391304 81.3636364,138.530059 81.3636364,139.934783 C81.3636364,141.339506 80.2239982,142.478261 78.8181818,142.478261 Z M63.5454545,142.478261 C62.1396382,142.478261 61,141.339506 61,139.934783 C61,138.530059 62.1396382,137.391304 63.5454545,137.391304 C64.9512709,137.391304 66.0909091,138.530059 66.0909091,139.934783 C66.0909091,141.339506 64.9512709,142.478261 63.5454545,142.478261 Z M170.454545,127.217391 C169.048729,127.217391 167.909091,126.078637 167.909091,124.673913 C167.909091,123.269189 169.048729,122.130435 170.454545,122.130435 C171.860362,122.130435 173,123.269189 173,124.673913 C173,126.078637 171.860362,127.217391 170.454545,127.217391 Z M155.181818,127.217391 C153.776002,127.217391 152.636364,126.078637 152.636364,124.673913 C152.636364,123.269189 153.776002,122.130435 155.181818,122.130435 C156.587635,122.130435 157.727273,123.269189 157.727273,124.673913 C157.727273,126.078637 156.587635,127.217391 155.181818,127.217391 Z M139.909091,127.217391 C138.503275,127.217391 137.363636,126.078637 137.363636,124.673913 C137.363636,123.269189 138.503275,122.130435 139.909091,122.130435 C141.314907,122.130435 142.454545,123.269189 142.454545,124.673913 C142.454545,126.078637 141.314907,127.217391 139.909091,127.217391 Z M124.636364,127.217391 C123.230547,127.217391 122.090909,126.078637 122.090909,124.673913 C122.090909,123.269189 123.230547,122.130435 124.636364,122.130435 C126.04218,122.130435 127.181818,123.269189 127.181818,124.673913 C127.181818,126.078637 126.04218,127.217391 124.636364,127.217391 Z M109.363636,127.217391 C107.95782,127.217391 106.818182,126.078637 106.818182,124.673913 C106.818182,123.269189 107.95782,122.130435 109.363636,122.130435 C110.769453,122.130435 111.909091,123.269189 111.909091,124.673913 C111.909091,126.078637 110.769453,127.217391 109.363636,127.217391 Z M94.0909091,127.217391 C92.6850927,127.217391 91.5454545,126.078637 91.5454545,124.673913 C91.5454545,123.269189 92.6850927,122.130435 94.0909091,122.130435 C95.4967255,122.130435 96.6363636,123.269189 96.6363636,124.673913 C96.6363636,126.078637 95.4967255,127.217391 94.0909091,127.217391 Z M78.8181818,127.217391 C77.4123655,127.217391 76.2727273,126.078637 76.2727273,124.673913 C76.2727273,123.269189 77.4123655,122.130435 78.8181818,122.130435 C80.2239982,122.130435 81.3636364,123.269189 81.3636364,124.673913 C81.3636364,126.078637 80.2239982,127.217391 78.8181818,127.217391 Z M63.5454545,127.217391 C62.1396382,127.217391 61,126.078637 61,124.673913 C61,123.269189 62.1396382,122.130435 63.5454545,122.130435 C64.9512709,122.130435 66.0909091,123.269189 66.0909091,124.673913 C66.0909091,126.078637 64.9512709,127.217391 63.5454545,127.217391 Z M170.454545,111.956522 C169.048729,111.956522 167.909091,110.817767 167.909091,109.413043 C167.909091,108.00832 169.048729,106.869565 170.454545,106.869565 C171.860362,106.869565 173,108.00832 173,109.413043 C173,110.817767 171.860362,111.956522 170.454545,111.956522 Z M155.181818,111.956522 C153.776002,111.956522 152.636364,110.817767 152.636364,109.413043 C152.636364,108.00832 153.776002,106.869565 155.181818,106.869565 C156.587635,106.869565 157.727273,108.00832 157.727273,109.413043 C157.727273,110.817767 156.587635,111.956522 155.181818,111.956522 Z M139.909091,111.956522 C138.503275,111.956522 137.363636,110.817767 137.363636,109.413043 C137.363636,108.00832 138.503275,106.869565 139.909091,106.869565 C141.314907,106.869565 142.454545,108.00832 142.454545,109.413043 C142.454545,110.817767 141.314907,111.956522 139.909091,111.956522 Z M124.636364,111.956522 C123.230547,111.956522 122.090909,110.817767 122.090909,109.413043 C122.090909,108.00832 123.230547,106.869565 124.636364,106.869565 C126.04218,106.869565 127.181818,108.00832 127.181818,109.413043 C127.181818,110.817767 126.04218,111.956522 124.636364,111.956522 Z M109.363636,111.956522 C107.95782,111.956522 106.818182,110.817767 106.818182,109.413043 C106.818182,108.00832 107.95782,106.869565 109.363636,106.869565 C110.769453,106.869565 111.909091,108.00832 111.909091,109.413043 C111.909091,110.817767 110.769453,111.956522 109.363636,111.956522 Z M94.0909091,111.956522 C92.6850927,111.956522 91.5454545,110.817767 91.5454545,109.413043 C91.5454545,108.00832 92.6850927,106.869565 94.0909091,106.869565 C95.4967255,106.869565 96.6363636,108.00832 96.6363636,109.413043 C96.6363636,110.817767 95.4967255,111.956522 94.0909091,111.956522 Z M78.8181818,111.956522 C77.4123655,111.956522 76.2727273,110.817767 76.2727273,109.413043 C76.2727273,108.00832 77.4123655,106.869565 78.8181818,106.869565 C80.2239982,106.869565 81.3636364,108.00832 81.3636364,109.413043 C81.3636364,110.817767 80.2239982,111.956522 78.8181818,111.956522 Z M63.5454545,111.956522 C62.1396382,111.956522 61,110.817767 61,109.413043 C61,108.00832 62.1396382,106.869565 63.5454545,106.869565 C64.9512709,106.869565 66.0909091,108.00832 66.0909091,109.413043 C66.0909091,110.817767 64.9512709,111.956522 63.5454545,111.956522 Z M170.454545,96.6956522 C169.048729,96.6956522 167.909091,95.5568975 167.909091,94.1521739 C167.909091,92.7474503 169.048729,91.6086957 170.454545,91.6086957 C171.860362,91.6086957 173,92.7474503 173,94.1521739 C173,95.5568975 171.860362,96.6956522 170.454545,96.6956522 Z M155.181818,96.6956522 C153.776002,96.6956522 152.636364,95.5568975 152.636364,94.1521739 C152.636364,92.7474503 153.776002,91.6086957 155.181818,91.6086957 C156.587635,91.6086957 157.727273,92.7474503 157.727273,94.1521739 C157.727273,95.5568975 156.587635,96.6956522 155.181818,96.6956522 Z M139.909091,96.6956522 C138.503275,96.6956522 137.363636,95.5568975 137.363636,94.1521739 C137.363636,92.7474503 138.503275,91.6086957 139.909091,91.6086957 C141.314907,91.6086957 142.454545,92.7474503 142.454545,94.1521739 C142.454545,95.5568975 141.314907,96.6956522 139.909091,96.6956522 Z M124.636364,96.6956522 C123.230547,96.6956522 122.090909,95.5568975 122.090909,94.1521739 C122.090909,92.7474503 123.230547,91.6086957 124.636364,91.6086957 C126.04218,91.6086957 127.181818,92.7474503 127.181818,94.1521739 C127.181818,95.5568975 126.04218,96.6956522 124.636364,96.6956522 Z M109.363636,96.6956522 C107.95782,96.6956522 106.818182,95.5568975 106.818182,94.1521739 C106.818182,92.7474503 107.95782,91.6086957 109.363636,91.6086957 C110.769453,91.6086957 111.909091,92.7474503 111.909091,94.1521739 C111.909091,95.5568975 110.769453,96.6956522 109.363636,96.6956522 Z M94.0909091,96.6956522 C92.6850927,96.6956522 91.5454545,95.5568975 91.5454545,94.1521739 C91.5454545,92.7474503 92.6850927,91.6086957 94.0909091,91.6086957 C95.4967255,91.6086957 96.6363636,92.7474503 96.6363636,94.1521739 C96.6363636,95.5568975 95.4967255,96.6956522 94.0909091,96.6956522 Z M78.8181818,96.6956522 C77.4123655,96.6956522 76.2727273,95.5568975 76.2727273,94.1521739 C76.2727273,92.7474503 77.4123655,91.6086957 78.8181818,91.6086957 C80.2239982,91.6086957 81.3636364,92.7474503 81.3636364,94.1521739 C81.3636364,95.5568975 80.2239982,96.6956522 78.8181818,96.6956522 Z M63.5454545,96.6956522 C62.1396382,96.6956522 61,95.5568975 61,94.1521739 C61,92.7474503 62.1396382,91.6086957 63.5454545,91.6086957 C64.9512709,91.6086957 66.0909091,92.7474503 66.0909091,94.1521739 C66.0909091,95.5568975 64.9512709,96.6956522 63.5454545,96.6956522 Z M170.454545,81.4347826 C169.048729,81.4347826 167.909091,80.296028 167.909091,78.8913043 C167.909091,77.4865807 169.048729,76.3478261 170.454545,76.3478261 C171.860362,76.3478261 173,77.4865807 173,78.8913043 C173,80.296028 171.860362,81.4347826 170.454545,81.4347826 Z M155.181818,81.4347826 C153.776002,81.4347826 152.636364,80.296028 152.636364,78.8913043 C152.636364,77.4865807 153.776002,76.3478261 155.181818,76.3478261 C156.587635,76.3478261 157.727273,77.4865807 157.727273,78.8913043 C157.727273,80.296028 156.587635,81.4347826 155.181818,81.4347826 Z M139.909091,81.4347826 C138.503275,81.4347826 137.363636,80.296028 137.363636,78.8913043 C137.363636,77.4865807 138.503275,76.3478261 139.909091,76.3478261 C141.314907,76.3478261 142.454545,77.4865807 142.454545,78.8913043 C142.454545,80.296028 141.314907,81.4347826 139.909091,81.4347826 Z M124.636364,81.4347826 C123.230547,81.4347826 122.090909,80.296028 122.090909,78.8913043 C122.090909,77.4865807 123.230547,76.3478261 124.636364,76.3478261 C126.04218,76.3478261 127.181818,77.4865807 127.181818,78.8913043 C127.181818,80.296028 126.04218,81.4347826 124.636364,81.4347826 Z M109.363636,81.4347826 C107.95782,81.4347826 106.818182,80.296028 106.818182,78.8913043 C106.818182,77.4865807 107.95782,76.3478261 109.363636,76.3478261 C110.769453,76.3478261 111.909091,77.4865807 111.909091,78.8913043 C111.909091,80.296028 110.769453,81.4347826 109.363636,81.4347826 Z M94.0909091,81.4347826 C92.6850927,81.4347826 91.5454545,80.296028 91.5454545,78.8913043 C91.5454545,77.4865807 92.6850927,76.3478261 94.0909091,76.3478261 C95.4967255,76.3478261 96.6363636,77.4865807 96.6363636,78.8913043 C96.6363636,80.296028 95.4967255,81.4347826 94.0909091,81.4347826 Z M78.8181818,81.4347826 C77.4123655,81.4347826 76.2727273,80.296028 76.2727273,78.8913043 C76.2727273,77.4865807 77.4123655,76.3478261 78.8181818,76.3478261 C80.2239982,76.3478261 81.3636364,77.4865807 81.3636364,78.8913043 C81.3636364,80.296028 80.2239982,81.4347826 78.8181818,81.4347826 Z M63.5454545,81.4347826 C62.1396382,81.4347826 61,80.296028 61,78.8913043 C61,77.4865807 62.1396382,76.3478261 63.5454545,76.3478261 C64.9512709,76.3478261 66.0909091,77.4865807 66.0909091,78.8913043 C66.0909091,80.296028 64.9512709,81.4347826 63.5454545,81.4347826 Z M170.454545,66.173913 C169.048729,66.173913 167.909091,65.0351597 167.909091,63.6304348 C167.909091,62.2257099 169.048729,61.0869565 170.454545,61.0869565 C171.860362,61.0869565 173,62.2257099 173,63.6304348 C173,65.0351597 171.860362,66.173913 170.454545,66.173913 Z M155.181818,66.173913 C153.776002,66.173913 152.636364,65.0351597 152.636364,63.6304348 C152.636364,62.2257099 153.776002,61.0869565 155.181818,61.0869565 C156.587635,61.0869565 157.727273,62.2257099 157.727273,63.6304348 C157.727273,65.0351597 156.587635,66.173913 155.181818,66.173913 Z M139.909091,66.173913 C138.503275,66.173913 137.363636,65.0351597 137.363636,63.6304348 C137.363636,62.2257099 138.503275,61.0869565 139.909091,61.0869565 C141.314907,61.0869565 142.454545,62.2257099 142.454545,63.6304348 C142.454545,65.0351597 141.314907,66.173913 139.909091,66.173913 Z M124.636364,66.173913 C123.230547,66.173913 122.090909,65.0351597 122.090909,63.6304348 C122.090909,62.2257099 123.230547,61.0869565 124.636364,61.0869565 C126.04218,61.0869565 127.181818,62.2257099 127.181818,63.6304348 C127.181818,65.0351597 126.04218,66.173913 124.636364,66.173913 Z M109.363636,66.173913 C107.95782,66.173913 106.818182,65.0351597 106.818182,63.6304348 C106.818182,62.2257099 107.95782,61.0869565 109.363636,61.0869565 C110.769453,61.0869565 111.909091,62.2257099 111.909091,63.6304348 C111.909091,65.0351597 110.769453,66.173913 109.363636,66.173913 Z M94.0909091,66.173913 C92.6850927,66.173913 91.5454545,65.0351597 91.5454545,63.6304348 C91.5454545,62.2257099 92.6850927,61.0869565 94.0909091,61.0869565 C95.4967255,61.0869565 96.6363636,62.2257099 96.6363636,63.6304348 C96.6363636,65.0351597 95.4967255,66.173913 94.0909091,66.173913 Z M78.8181818,66.173913 C77.4123655,66.173913 76.2727273,65.0351597 76.2727273,63.6304348 C76.2727273,62.2257099 77.4123655,61.0869565 78.8181818,61.0869565 C80.2239982,61.0869565 81.3636364,62.2257099 81.3636364,63.6304348 C81.3636364,65.0351597 80.2239982,66.173913 78.8181818,66.173913 Z M63.5454545,66.173913 C62.1396382,66.173913 61,65.0351597 61,63.6304348 C61,62.2257099 62.1396382,61.0869565 63.5454545,61.0869565 C64.9512709,61.0869565 66.0909091,62.2257099 66.0909091,63.6304348 C66.0909091,65.0351597 64.9512709,66.173913 63.5454545,66.173913 Z M170.454545,50.9130435 C169.048729,50.9130435 167.909091,49.7742901 167.909091,48.3695652 C167.909091,46.9648403 169.048729,45.826087 170.454545,45.826087 C171.860362,45.826087 173,46.9648403 173,48.3695652 C173,49.7742901 171.860362,50.9130435 170.454545,50.9130435 Z M155.181818,50.9130435 C153.776002,50.9130435 152.636364,49.7742901 152.636364,48.3695652 C152.636364,46.9648403 153.776002,45.826087 155.181818,45.826087 C156.587635,45.826087 157.727273,46.9648403 157.727273,48.3695652 C157.727273,49.7742901 156.587635,50.9130435 155.181818,50.9130435 Z M139.909091,50.9130435 C138.503275,50.9130435 137.363636,49.7742901 137.363636,48.3695652 C137.363636,46.9648403 138.503275,45.826087 139.909091,45.826087 C141.314907,45.826087 142.454545,46.9648403 142.454545,48.3695652 C142.454545,49.7742901 141.314907,50.9130435 139.909091,50.9130435 Z M124.636364,50.9130435 C123.230547,50.9130435 122.090909,49.7742901 122.090909,48.3695652 C122.090909,46.9648403 123.230547,45.826087 124.636364,45.826087 C126.04218,45.826087 127.181818,46.9648403 127.181818,48.3695652 C127.181818,49.7742901 126.04218,50.9130435 124.636364,50.9130435 Z M109.363636,50.9130435 C107.95782,50.9130435 106.818182,49.7742901 106.818182,48.3695652 C106.818182,46.9648403 107.95782,45.826087 109.363636,45.826087 C110.769453,45.826087 111.909091,46.9648403 111.909091,48.3695652 C111.909091,49.7742901 110.769453,50.9130435 109.363636,50.9130435 Z M94.0909091,50.9130435 C92.6850927,50.9130435 91.5454545,49.7742901 91.5454545,48.3695652 C91.5454545,46.9648403 92.6850927,45.826087 94.0909091,45.826087 C95.4967255,45.826087 96.6363636,46.9648403 96.6363636,48.3695652 C96.6363636,49.7742901 95.4967255,50.9130435 94.0909091,50.9130435 Z M78.8181818,50.9130435 C77.4123655,50.9130435 76.2727273,49.7742901 76.2727273,48.3695652 C76.2727273,46.9648403 77.4123655,45.826087 78.8181818,45.826087 C80.2239982,45.826087 81.3636364,46.9648403 81.3636364,48.3695652 C81.3636364,49.7742901 80.2239982,50.9130435 78.8181818,50.9130435 Z M63.5454545,50.9130435 C62.1396382,50.9130435 61,49.7742901 61,48.3695652 C61,46.9648403 62.1396382,45.826087 63.5454545,45.826087 C64.9512709,45.826087 66.0909091,46.9648403 66.0909091,48.3695652 C66.0909091,49.7742901 64.9512709,50.9130435 63.5454545,50.9130435 Z M170.454545,35.6521739 C169.048729,35.6521739 167.909091,34.5134205 167.909091,33.1086957 C167.909091,31.7039708 169.048729,30.5652174 170.454545,30.5652174 C171.860362,30.5652174 173,31.7039708 173,33.1086957 C173,34.5134205 171.860362,35.6521739 170.454545,35.6521739 Z M155.181818,35.6521739 C153.776002,35.6521739 152.636364,34.5134205 152.636364,33.1086957 C152.636364,31.7039708 153.776002,30.5652174 155.181818,30.5652174 C156.587635,30.5652174 157.727273,31.7039708 157.727273,33.1086957 C157.727273,34.5134205 156.587635,35.6521739 155.181818,35.6521739 Z M139.909091,35.6521739 C138.503275,35.6521739 137.363636,34.5134205 137.363636,33.1086957 C137.363636,31.7039708 138.503275,30.5652174 139.909091,30.5652174 C141.314907,30.5652174 142.454545,31.7039708 142.454545,33.1086957 C142.454545,34.5134205 141.314907,35.6521739 139.909091,35.6521739 Z M124.636364,35.6521739 C123.230547,35.6521739 122.090909,34.5134205 122.090909,33.1086957 C122.090909,31.7039708 123.230547,30.5652174 124.636364,30.5652174 C126.04218,30.5652174 127.181818,31.7039708 127.181818,33.1086957 C127.181818,34.5134205 126.04218,35.6521739 124.636364,35.6521739 Z M109.363636,35.6521739 C107.95782,35.6521739 106.818182,34.5134205 106.818182,33.1086957 C106.818182,31.7039708 107.95782,30.5652174 109.363636,30.5652174 C110.769453,30.5652174 111.909091,31.7039708 111.909091,33.1086957 C111.909091,34.5134205 110.769453,35.6521739 109.363636,35.6521739 Z M94.0909091,35.6521739 C92.6850927,35.6521739 91.5454545,34.5134205 91.5454545,33.1086957 C91.5454545,31.7039708 92.6850927,30.5652174 94.0909091,30.5652174 C95.4967255,30.5652174 96.6363636,31.7039708 96.6363636,33.1086957 C96.6363636,34.5134205 95.4967255,35.6521739 94.0909091,35.6521739 Z M78.8181818,35.6521739 C77.4123655,35.6521739 76.2727273,34.5134205 76.2727273,33.1086957 C76.2727273,31.7039708 77.4123655,30.5652174 78.8181818,30.5652174 C80.2239982,30.5652174 81.3636364,31.7039708 81.3636364,33.1086957 C81.3636364,34.5134205 80.2239982,35.6521739 78.8181818,35.6521739 Z M63.5454545,35.6521739 C62.1396382,35.6521739 61,34.5134205 61,33.1086957 C61,31.7039708 62.1396382,30.5652174 63.5454545,30.5652174 C64.9512709,30.5652174 66.0909091,31.7039708 66.0909091,33.1086957 C66.0909091,34.5134205 64.9512709,35.6521739 63.5454545,35.6521739 Z M170.454545,20.3913043 C169.048729,20.3913043 167.909091,19.2525497 167.909091,17.8478261 C167.909091,16.4431025 169.048729,15.3043478 170.454545,15.3043478 C171.860362,15.3043478 173,16.4431025 173,17.8478261 C173,19.2525497 171.860362,20.3913043 170.454545,20.3913043 Z M155.181818,20.3913043 C153.776002,20.3913043 152.636364,19.2525497 152.636364,17.8478261 C152.636364,16.4431025 153.776002,15.3043478 155.181818,15.3043478 C156.587635,15.3043478 157.727273,16.4431025 157.727273,17.8478261 C157.727273,19.2525497 156.587635,20.3913043 155.181818,20.3913043 Z M139.909091,20.3913043 C138.503275,20.3913043 137.363636,19.2525497 137.363636,17.8478261 C137.363636,16.4431025 138.503275,15.3043478 139.909091,15.3043478 C141.314907,15.3043478 142.454545,16.4431025 142.454545,17.8478261 C142.454545,19.2525497 141.314907,20.3913043 139.909091,20.3913043 Z M124.636364,20.3913043 C123.230547,20.3913043 122.090909,19.2525497 122.090909,17.8478261 C122.090909,16.4431025 123.230547,15.3043478 124.636364,15.3043478 C126.04218,15.3043478 127.181818,16.4431025 127.181818,17.8478261 C127.181818,19.2525497 126.04218,20.3913043 124.636364,20.3913043 Z M109.363636,20.3913043 C107.95782,20.3913043 106.818182,19.2525497 106.818182,17.8478261 C106.818182,16.4431025 107.95782,15.3043478 109.363636,15.3043478 C110.769453,15.3043478 111.909091,16.4431025 111.909091,17.8478261 C111.909091,19.2525497 110.769453,20.3913043 109.363636,20.3913043 Z M94.0909091,20.3913043 C92.6850927,20.3913043 91.5454545,19.2525497 91.5454545,17.8478261 C91.5454545,16.4431025 92.6850927,15.3043478 94.0909091,15.3043478 C95.4967255,15.3043478 96.6363636,16.4431025 96.6363636,17.8478261 C96.6363636,19.2525497 95.4967255,20.3913043 94.0909091,20.3913043 Z M78.8181818,20.3913043 C77.4123655,20.3913043 76.2727273,19.2525497 76.2727273,17.8478261 C76.2727273,16.4431025 77.4123655,15.3043478 78.8181818,15.3043478 C80.2239982,15.3043478 81.3636364,16.4431025 81.3636364,17.8478261 C81.3636364,19.2525497 80.2239982,20.3913043 78.8181818,20.3913043 Z M63.5454545,20.3913043 C62.1396382,20.3913043 61,19.2525497 61,17.8478261 C61,16.4431025 62.1396382,15.3043478 63.5454545,15.3043478 C64.9512709,15.3043478 66.0909091,16.4431025 66.0909091,17.8478261 C66.0909091,19.2525497 64.9512709,20.3913043 63.5454545,20.3913043 Z M170.454545,5.13043478 C169.048729,5.13043478 167.909091,3.99168014 167.909091,2.58695652 C167.909091,1.1822329 169.048729,0.0434782609 170.454545,0.0434782609 C171.860362,0.0434782609 173,1.1822329 173,2.58695652 C173,3.99168014 171.860362,5.13043478 170.454545,5.13043478 Z M155.181818,5.13043478 C153.776002,5.13043478 152.636364,3.99168014 152.636364,2.58695652 C152.636364,1.1822329 153.776002,0.0434782609 155.181818,0.0434782609 C156.587635,0.0434782609 157.727273,1.1822329 157.727273,2.58695652 C157.727273,3.99168014 156.587635,5.13043478 155.181818,5.13043478 Z M139.909091,5.13043478 C138.503275,5.13043478 137.363636,3.99168014 137.363636,2.58695652 C137.363636,1.1822329 138.503275,0.0434782609 139.909091,0.0434782609 C141.314907,0.0434782609 142.454545,1.1822329 142.454545,2.58695652 C142.454545,3.99168014 141.314907,5.13043478 139.909091,5.13043478 Z M124.636364,5.13043478 C123.230547,5.13043478 122.090909,3.99168014 122.090909,2.58695652 C122.090909,1.1822329 123.230547,0.0434782609 124.636364,0.0434782609 C126.04218,0.0434782609 127.181818,1.1822329 127.181818,2.58695652 C127.181818,3.99168014 126.04218,5.13043478 124.636364,5.13043478 Z M109.363636,5.13043478 C107.95782,5.13043478 106.818182,3.99168014 106.818182,2.58695652 C106.818182,1.1822329 107.95782,0.0434782609 109.363636,0.0434782609 C110.769453,0.0434782609 111.909091,1.1822329 111.909091,2.58695652 C111.909091,3.99168014 110.769453,5.13043478 109.363636,5.13043478 Z M94.0909091,5.13043478 C92.6850927,5.13043478 91.5454545,3.99168014 91.5454545,2.58695652 C91.5454545,1.1822329 92.6850927,0.0434782609 94.0909091,0.0434782609 C95.4967255,0.0434782609 96.6363636,1.1822329 96.6363636,2.58695652 C96.6363636,3.99168014 95.4967255,5.13043478 94.0909091,5.13043478 Z M78.8181818,5.13043478 C77.4123655,5.13043478 76.2727273,3.99168014 76.2727273,2.58695652 C76.2727273,1.1822329 77.4123655,0.0434782609 78.8181818,0.0434782609 C80.2239982,0.0434782609 81.3636364,1.1822329 81.3636364,2.58695652 C81.3636364,3.99168014 80.2239982,5.13043478 78.8181818,5.13043478 Z M63.5454545,5.13043478 C62.1396382,5.13043478 61,3.99168014 61,2.58695652 C61,1.1822329 62.1396382,0.0434782609 63.5454545,0.0434782609 C64.9512709,0.0434782609 66.0909091,1.1822329 66.0909091,2.58695652 C66.0909091,3.99168014 64.9512709,5.13043478 63.5454545,5.13043478 Z M170.454545,-10.1304348 C169.048729,-10.1304348 167.909091,-11.2691894 167.909091,-12.673913 C167.909091,-14.0786367 169.048729,-15.2173913 170.454545,-15.2173913 C171.860362,-15.2173913 173,-14.0786367 173,-12.673913 C173,-11.2691894 171.860362,-10.1304348 170.454545,-10.1304348 Z M155.181818,-10.1304348 C153.776002,-10.1304348 152.636364,-11.2691894 152.636364,-12.673913 C152.636364,-14.0786367 153.776002,-15.2173913 155.181818,-15.2173913 C156.587635,-15.2173913 157.727273,-14.0786367 157.727273,-12.673913 C157.727273,-11.2691894 156.587635,-10.1304348 155.181818,-10.1304348 Z M139.909091,-10.1304348 C138.503275,-10.1304348 137.363636,-11.2691894 137.363636,-12.673913 C137.363636,-14.0786367 138.503275,-15.2173913 139.909091,-15.2173913 C141.314907,-15.2173913 142.454545,-14.0786367 142.454545,-12.673913 C142.454545,-11.2691894 141.314907,-10.1304348 139.909091,-10.1304348 Z M124.636364,-10.1304348 C123.230547,-10.1304348 122.090909,-11.2691894 122.090909,-12.673913 C122.090909,-14.0786367 123.230547,-15.2173913 124.636364,-15.2173913 C126.04218,-15.2173913 127.181818,-14.0786367 127.181818,-12.673913 C127.181818,-11.2691894 126.04218,-10.1304348 124.636364,-10.1304348 Z M109.363636,-10.1304348 C107.95782,-10.1304348 106.818182,-11.2691894 106.818182,-12.673913 C106.818182,-14.0786367 107.95782,-15.2173913 109.363636,-15.2173913 C110.769453,-15.2173913 111.909091,-14.0786367 111.909091,-12.673913 C111.909091,-11.2691894 110.769453,-10.1304348 109.363636,-10.1304348 Z M94.0909091,-10.1304348 C92.6850927,-10.1304348 91.5454545,-11.2691894 91.5454545,-12.673913 C91.5454545,-14.0786367 92.6850927,-15.2173913 94.0909091,-15.2173913 C95.4967255,-15.2173913 96.6363636,-14.0786367 96.6363636,-12.673913 C96.6363636,-11.2691894 95.4967255,-10.1304348 94.0909091,-10.1304348 Z M78.8181818,-10.1304348 C77.4123655,-10.1304348 76.2727273,-11.2691894 76.2727273,-12.673913 C76.2727273,-14.0786367 77.4123655,-15.2173913 78.8181818,-15.2173913 C80.2239982,-15.2173913 81.3636364,-14.0786367 81.3636364,-12.673913 C81.3636364,-11.2691894 80.2239982,-10.1304348 78.8181818,-10.1304348 Z M63.5454545,-10.1304348 C62.1396382,-10.1304348 61,-11.2691894 61,-12.673913 C61,-14.0786367 62.1396382,-15.2173913 63.5454545,-15.2173913 C64.9512709,-15.2173913 66.0909091,-14.0786367 66.0909091,-12.673913 C66.0909091,-11.2691894 64.9512709,-10.1304348 63.5454545,-10.1304348 Z M170.454545,-25.3913043 C169.048729,-25.3913043 167.909091,-26.530059 167.909091,-27.9347826 C167.909091,-29.3395062 169.048729,-30.4782609 170.454545,-30.4782609 C171.860362,-30.4782609 173,-29.3395062 173,-27.9347826 C173,-26.530059 171.860362,-25.3913043 170.454545,-25.3913043 Z M155.181818,-25.3913043 C153.776002,-25.3913043 152.636364,-26.530059 152.636364,-27.9347826 C152.636364,-29.3395062 153.776002,-30.4782609 155.181818,-30.4782609 C156.587635,-30.4782609 157.727273,-29.3395062 157.727273,-27.9347826 C157.727273,-26.530059 156.587635,-25.3913043 155.181818,-25.3913043 Z M139.909091,-25.3913043 C138.503275,-25.3913043 137.363636,-26.530059 137.363636,-27.9347826 C137.363636,-29.3395062 138.503275,-30.4782609 139.909091,-30.4782609 C141.314907,-30.4782609 142.454545,-29.3395062 142.454545,-27.9347826 C142.454545,-26.530059 141.314907,-25.3913043 139.909091,-25.3913043 Z M124.636364,-25.3913043 C123.230547,-25.3913043 122.090909,-26.530059 122.090909,-27.9347826 C122.090909,-29.3395062 123.230547,-30.4782609 124.636364,-30.4782609 C126.04218,-30.4782609 127.181818,-29.3395062 127.181818,-27.9347826 C127.181818,-26.530059 126.04218,-25.3913043 124.636364,-25.3913043 Z M109.363636,-25.3913043 C107.95782,-25.3913043 106.818182,-26.530059 106.818182,-27.9347826 C106.818182,-29.3395062 107.95782,-30.4782609 109.363636,-30.4782609 C110.769453,-30.4782609 111.909091,-29.3395062 111.909091,-27.9347826 C111.909091,-26.530059 110.769453,-25.3913043 109.363636,-25.3913043 Z M94.0909091,-25.3913043 C92.6850927,-25.3913043 91.5454545,-26.530059 91.5454545,-27.9347826 C91.5454545,-29.3395062 92.6850927,-30.4782609 94.0909091,-30.4782609 C95.4967255,-30.4782609 96.6363636,-29.3395062 96.6363636,-27.9347826 C96.6363636,-26.530059 95.4967255,-25.3913043 94.0909091,-25.3913043 Z M78.8181818,-25.3913043 C77.4123655,-25.3913043 76.2727273,-26.530059 76.2727273,-27.9347826 C76.2727273,-29.3395062 77.4123655,-30.4782609 78.8181818,-30.4782609 C80.2239982,-30.4782609 81.3636364,-29.3395062 81.3636364,-27.9347826 C81.3636364,-26.530059 80.2239982,-25.3913043 78.8181818,-25.3913043 Z M63.5454545,-25.3913043 C62.1396382,-25.3913043 61,-26.530059 61,-27.9347826 C61,-29.3395062 62.1396382,-30.4782609 63.5454545,-30.4782609 C64.9512709,-30.4782609 66.0909091,-29.3395062 66.0909091,-27.9347826 C66.0909091,-26.530059 64.9512709,-25.3913043 63.5454545,-25.3913043 Z M170.454545,-40.6521739 C169.048729,-40.6521739 167.909091,-41.7909286 167.909091,-43.1956522 C167.909091,-44.6003758 169.048729,-45.7391304 170.454545,-45.7391304 C171.860362,-45.7391304 173,-44.6003758 173,-43.1956522 C173,-41.7909286 171.860362,-40.6521739 170.454545,-40.6521739 Z M155.181818,-40.6521739 C153.776002,-40.6521739 152.636364,-41.7909286 152.636364,-43.1956522 C152.636364,-44.6003758 153.776002,-45.7391304 155.181818,-45.7391304 C156.587635,-45.7391304 157.727273,-44.6003758 157.727273,-43.1956522 C157.727273,-41.7909286 156.587635,-40.6521739 155.181818,-40.6521739 Z M139.909091,-40.6521739 C138.503275,-40.6521739 137.363636,-41.7909286 137.363636,-43.1956522 C137.363636,-44.6003758 138.503275,-45.7391304 139.909091,-45.7391304 C141.314907,-45.7391304 142.454545,-44.6003758 142.454545,-43.1956522 C142.454545,-41.7909286 141.314907,-40.6521739 139.909091,-40.6521739 Z M124.636364,-40.6521739 C123.230547,-40.6521739 122.090909,-41.7909286 122.090909,-43.1956522 C122.090909,-44.6003758 123.230547,-45.7391304 124.636364,-45.7391304 C126.04218,-45.7391304 127.181818,-44.6003758 127.181818,-43.1956522 C127.181818,-41.7909286 126.04218,-40.6521739 124.636364,-40.6521739 Z M109.363636,-40.6521739 C107.95782,-40.6521739 106.818182,-41.7909286 106.818182,-43.1956522 C106.818182,-44.6003758 107.95782,-45.7391304 109.363636,-45.7391304 C110.769453,-45.7391304 111.909091,-44.6003758 111.909091,-43.1956522 C111.909091,-41.7909286 110.769453,-40.6521739 109.363636,-40.6521739 Z M94.0909091,-40.6521739 C92.6850927,-40.6521739 91.5454545,-41.7909286 91.5454545,-43.1956522 C91.5454545,-44.6003758 92.6850927,-45.7391304 94.0909091,-45.7391304 C95.4967255,-45.7391304 96.6363636,-44.6003758 96.6363636,-43.1956522 C96.6363636,-41.7909286 95.4967255,-40.6521739 94.0909091,-40.6521739 Z M78.8181818,-40.6521739 C77.4123655,-40.6521739 76.2727273,-41.7909286 76.2727273,-43.1956522 C76.2727273,-44.6003758 77.4123655,-45.7391304 78.8181818,-45.7391304 C80.2239982,-45.7391304 81.3636364,-44.6003758 81.3636364,-43.1956522 C81.3636364,-41.7909286 80.2239982,-40.6521739 78.8181818,-40.6521739 Z M63.5454545,-40.6521739 C62.1396382,-40.6521739 61,-41.7909286 61,-43.1956522 C61,-44.6003758 62.1396382,-45.7391304 63.5454545,-45.7391304 C64.9512709,-45.7391304 66.0909091,-44.6003758 66.0909091,-43.1956522 C66.0909091,-41.7909286 64.9512709,-40.6521739 63.5454545,-40.6521739 Z M170.454545,-55.9130435 C169.048729,-55.9130435 167.909091,-57.0517981 167.909091,-58.4565217 C167.909091,-59.8612454 169.048729,-61 170.454545,-61 C171.860362,-61 173,-59.8612454 173,-58.4565217 C173,-57.0517981 171.860362,-55.9130435 170.454545,-55.9130435 Z M155.181818,-55.9130435 C153.776002,-55.9130435 152.636364,-57.0517981 152.636364,-58.4565217 C152.636364,-59.8612454 153.776002,-61 155.181818,-61 C156.587635,-61 157.727273,-59.8612454 157.727273,-58.4565217 C157.727273,-57.0517981 156.587635,-55.9130435 155.181818,-55.9130435 Z M139.909091,-55.9130435 C138.503275,-55.9130435 137.363636,-57.0517981 137.363636,-58.4565217 C137.363636,-59.8612454 138.503275,-61 139.909091,-61 C141.314907,-61 142.454545,-59.8612454 142.454545,-58.4565217 C142.454545,-57.0517981 141.314907,-55.9130435 139.909091,-55.9130435 Z M124.636364,-55.9130435 C123.230547,-55.9130435 122.090909,-57.0517981 122.090909,-58.4565217 C122.090909,-59.8612454 123.230547,-61 124.636364,-61 C126.04218,-61 127.181818,-59.8612454 127.181818,-58.4565217 C127.181818,-57.0517981 126.04218,-55.9130435 124.636364,-55.9130435 Z M109.363636,-55.9130435 C107.95782,-55.9130435 106.818182,-57.0517981 106.818182,-58.4565217 C106.818182,-59.8612454 107.95782,-61 109.363636,-61 C110.769453,-61 111.909091,-59.8612454 111.909091,-58.4565217 C111.909091,-57.0517981 110.769453,-55.9130435 109.363636,-55.9130435 Z M94.0909091,-55.9130435 C92.6850927,-55.9130435 91.5454545,-57.0517981 91.5454545,-58.4565217 C91.5454545,-59.8612454 92.6850927,-61 94.0909091,-61 C95.4967255,-61 96.6363636,-59.8612454 96.6363636,-58.4565217 C96.6363636,-57.0517981 95.4967255,-55.9130435 94.0909091,-55.9130435 Z M78.8181818,-55.9130435 C77.4123655,-55.9130435 76.2727273,-57.0517981 76.2727273,-58.4565217 C76.2727273,-59.8612454 77.4123655,-61 78.8181818,-61 C80.2239982,-61 81.3636364,-59.8612454 81.3636364,-58.4565217 C81.3636364,-57.0517981 80.2239982,-55.9130435 78.8181818,-55.9130435 Z M63.5454545,-55.9130435 C62.1396382,-55.9130435 61,-57.0517981 61,-58.4565217 C61,-59.8612454 62.1396382,-61 63.5454545,-61 C64.9512709,-61 66.0909091,-59.8612454 66.0909091,-58.4565217 C66.0909091,-57.0517981 64.9512709,-55.9130435 63.5454545,-55.9130435 Z" id="dot-grid" transform="translate(117.000000, 56.000000) rotate(90.000000) translate(-117.000000, -56.000000) "></path>
                <path d="M415.454545,173 C414.048729,173 412.909091,171.861245 412.909091,170.456522 C412.909091,169.051798 414.048729,167.913043 415.454545,167.913043 C416.860362,167.913043 418,169.051798 418,170.456522 C418,171.861245 416.860362,173 415.454545,173 Z M400.181818,173 C398.776002,173 397.636364,171.861245 397.636364,170.456522 C397.636364,169.051798 398.776002,167.913043 400.181818,167.913043 C401.587635,167.913043 402.727273,169.051798 402.727273,170.456522 C402.727273,171.861245 401.587635,173 400.181818,173 Z M384.909091,173 C383.503275,173 382.363636,171.861245 382.363636,170.456522 C382.363636,169.051798 383.503275,167.913043 384.909091,167.913043 C386.314907,167.913043 387.454545,169.051798 387.454545,170.456522 C387.454545,171.861245 386.314907,173 384.909091,173 Z M369.636364,173 C368.230547,173 367.090909,171.861245 367.090909,170.456522 C367.090909,169.051798 368.230547,167.913043 369.636364,167.913043 C371.04218,167.913043 372.181818,169.051798 372.181818,170.456522 C372.181818,171.861245 371.04218,173 369.636364,173 Z M354.363636,173 C352.95782,173 351.818182,171.861245 351.818182,170.456522 C351.818182,169.051798 352.95782,167.913043 354.363636,167.913043 C355.769453,167.913043 356.909091,169.051798 356.909091,170.456522 C356.909091,171.861245 355.769453,173 354.363636,173 Z M339.090909,173 C337.685093,173 336.545455,171.861245 336.545455,170.456522 C336.545455,169.051798 337.685093,167.913043 339.090909,167.913043 C340.496725,167.913043 341.636364,169.051798 341.636364,170.456522 C341.636364,171.861245 340.496725,173 339.090909,173 Z M323.818182,173 C322.412365,173 321.272727,171.861245 321.272727,170.456522 C321.272727,169.051798 322.412365,167.913043 323.818182,167.913043 C325.223998,167.913043 326.363636,169.051798 326.363636,170.456522 C326.363636,171.861245 325.223998,173 323.818182,173 Z M308.545455,173 C307.139638,173 306,171.861245 306,170.456522 C306,169.051798 307.139638,167.913043 308.545455,167.913043 C309.951271,167.913043 311.090909,169.051798 311.090909,170.456522 C311.090909,171.861245 309.951271,173 308.545455,173 Z M415.454545,157.73913 C414.048729,157.73913 412.909091,156.600376 412.909091,155.195652 C412.909091,153.790929 414.048729,152.652174 415.454545,152.652174 C416.860362,152.652174 418,153.790929 418,155.195652 C418,156.600376 416.860362,157.73913 415.454545,157.73913 Z M400.181818,157.73913 C398.776002,157.73913 397.636364,156.600376 397.636364,155.195652 C397.636364,153.790929 398.776002,152.652174 400.181818,152.652174 C401.587635,152.652174 402.727273,153.790929 402.727273,155.195652 C402.727273,156.600376 401.587635,157.73913 400.181818,157.73913 Z M384.909091,157.73913 C383.503275,157.73913 382.363636,156.600376 382.363636,155.195652 C382.363636,153.790929 383.503275,152.652174 384.909091,152.652174 C386.314907,152.652174 387.454545,153.790929 387.454545,155.195652 C387.454545,156.600376 386.314907,157.73913 384.909091,157.73913 Z M369.636364,157.73913 C368.230547,157.73913 367.090909,156.600376 367.090909,155.195652 C367.090909,153.790929 368.230547,152.652174 369.636364,152.652174 C371.04218,152.652174 372.181818,153.790929 372.181818,155.195652 C372.181818,156.600376 371.04218,157.73913 369.636364,157.73913 Z M354.363636,157.73913 C352.95782,157.73913 351.818182,156.600376 351.818182,155.195652 C351.818182,153.790929 352.95782,152.652174 354.363636,152.652174 C355.769453,152.652174 356.909091,153.790929 356.909091,155.195652 C356.909091,156.600376 355.769453,157.73913 354.363636,157.73913 Z M339.090909,157.73913 C337.685093,157.73913 336.545455,156.600376 336.545455,155.195652 C336.545455,153.790929 337.685093,152.652174 339.090909,152.652174 C340.496725,152.652174 341.636364,153.790929 341.636364,155.195652 C341.636364,156.600376 340.496725,157.73913 339.090909,157.73913 Z M323.818182,157.73913 C322.412365,157.73913 321.272727,156.600376 321.272727,155.195652 C321.272727,153.790929 322.412365,152.652174 323.818182,152.652174 C325.223998,152.652174 326.363636,153.790929 326.363636,155.195652 C326.363636,156.600376 325.223998,157.73913 323.818182,157.73913 Z M308.545455,157.73913 C307.139638,157.73913 306,156.600376 306,155.195652 C306,153.790929 307.139638,152.652174 308.545455,152.652174 C309.951271,152.652174 311.090909,153.790929 311.090909,155.195652 C311.090909,156.600376 309.951271,157.73913 308.545455,157.73913 Z M415.454545,142.478261 C414.048729,142.478261 412.909091,141.339506 412.909091,139.934783 C412.909091,138.530059 414.048729,137.391304 415.454545,137.391304 C416.860362,137.391304 418,138.530059 418,139.934783 C418,141.339506 416.860362,142.478261 415.454545,142.478261 Z M400.181818,142.478261 C398.776002,142.478261 397.636364,141.339506 397.636364,139.934783 C397.636364,138.530059 398.776002,137.391304 400.181818,137.391304 C401.587635,137.391304 402.727273,138.530059 402.727273,139.934783 C402.727273,141.339506 401.587635,142.478261 400.181818,142.478261 Z M384.909091,142.478261 C383.503275,142.478261 382.363636,141.339506 382.363636,139.934783 C382.363636,138.530059 383.503275,137.391304 384.909091,137.391304 C386.314907,137.391304 387.454545,138.530059 387.454545,139.934783 C387.454545,141.339506 386.314907,142.478261 384.909091,142.478261 Z M369.636364,142.478261 C368.230547,142.478261 367.090909,141.339506 367.090909,139.934783 C367.090909,138.530059 368.230547,137.391304 369.636364,137.391304 C371.04218,137.391304 372.181818,138.530059 372.181818,139.934783 C372.181818,141.339506 371.04218,142.478261 369.636364,142.478261 Z M354.363636,142.478261 C352.95782,142.478261 351.818182,141.339506 351.818182,139.934783 C351.818182,138.530059 352.95782,137.391304 354.363636,137.391304 C355.769453,137.391304 356.909091,138.530059 356.909091,139.934783 C356.909091,141.339506 355.769453,142.478261 354.363636,142.478261 Z M339.090909,142.478261 C337.685093,142.478261 336.545455,141.339506 336.545455,139.934783 C336.545455,138.530059 337.685093,137.391304 339.090909,137.391304 C340.496725,137.391304 341.636364,138.530059 341.636364,139.934783 C341.636364,141.339506 340.496725,142.478261 339.090909,142.478261 Z M323.818182,142.478261 C322.412365,142.478261 321.272727,141.339506 321.272727,139.934783 C321.272727,138.530059 322.412365,137.391304 323.818182,137.391304 C325.223998,137.391304 326.363636,138.530059 326.363636,139.934783 C326.363636,141.339506 325.223998,142.478261 323.818182,142.478261 Z M308.545455,142.478261 C307.139638,142.478261 306,141.339506 306,139.934783 C306,138.530059 307.139638,137.391304 308.545455,137.391304 C309.951271,137.391304 311.090909,138.530059 311.090909,139.934783 C311.090909,141.339506 309.951271,142.478261 308.545455,142.478261 Z M415.454545,127.217391 C414.048729,127.217391 412.909091,126.078637 412.909091,124.673913 C412.909091,123.269189 414.048729,122.130435 415.454545,122.130435 C416.860362,122.130435 418,123.269189 418,124.673913 C418,126.078637 416.860362,127.217391 415.454545,127.217391 Z M400.181818,127.217391 C398.776002,127.217391 397.636364,126.078637 397.636364,124.673913 C397.636364,123.269189 398.776002,122.130435 400.181818,122.130435 C401.587635,122.130435 402.727273,123.269189 402.727273,124.673913 C402.727273,126.078637 401.587635,127.217391 400.181818,127.217391 Z M384.909091,127.217391 C383.503275,127.217391 382.363636,126.078637 382.363636,124.673913 C382.363636,123.269189 383.503275,122.130435 384.909091,122.130435 C386.314907,122.130435 387.454545,123.269189 387.454545,124.673913 C387.454545,126.078637 386.314907,127.217391 384.909091,127.217391 Z M369.636364,127.217391 C368.230547,127.217391 367.090909,126.078637 367.090909,124.673913 C367.090909,123.269189 368.230547,122.130435 369.636364,122.130435 C371.04218,122.130435 372.181818,123.269189 372.181818,124.673913 C372.181818,126.078637 371.04218,127.217391 369.636364,127.217391 Z M354.363636,127.217391 C352.95782,127.217391 351.818182,126.078637 351.818182,124.673913 C351.818182,123.269189 352.95782,122.130435 354.363636,122.130435 C355.769453,122.130435 356.909091,123.269189 356.909091,124.673913 C356.909091,126.078637 355.769453,127.217391 354.363636,127.217391 Z M339.090909,127.217391 C337.685093,127.217391 336.545455,126.078637 336.545455,124.673913 C336.545455,123.269189 337.685093,122.130435 339.090909,122.130435 C340.496725,122.130435 341.636364,123.269189 341.636364,124.673913 C341.636364,126.078637 340.496725,127.217391 339.090909,127.217391 Z M323.818182,127.217391 C322.412365,127.217391 321.272727,126.078637 321.272727,124.673913 C321.272727,123.269189 322.412365,122.130435 323.818182,122.130435 C325.223998,122.130435 326.363636,123.269189 326.363636,124.673913 C326.363636,126.078637 325.223998,127.217391 323.818182,127.217391 Z M308.545455,127.217391 C307.139638,127.217391 306,126.078637 306,124.673913 C306,123.269189 307.139638,122.130435 308.545455,122.130435 C309.951271,122.130435 311.090909,123.269189 311.090909,124.673913 C311.090909,126.078637 309.951271,127.217391 308.545455,127.217391 Z M415.454545,111.956522 C414.048729,111.956522 412.909091,110.817767 412.909091,109.413043 C412.909091,108.00832 414.048729,106.869565 415.454545,106.869565 C416.860362,106.869565 418,108.00832 418,109.413043 C418,110.817767 416.860362,111.956522 415.454545,111.956522 Z M400.181818,111.956522 C398.776002,111.956522 397.636364,110.817767 397.636364,109.413043 C397.636364,108.00832 398.776002,106.869565 400.181818,106.869565 C401.587635,106.869565 402.727273,108.00832 402.727273,109.413043 C402.727273,110.817767 401.587635,111.956522 400.181818,111.956522 Z M384.909091,111.956522 C383.503275,111.956522 382.363636,110.817767 382.363636,109.413043 C382.363636,108.00832 383.503275,106.869565 384.909091,106.869565 C386.314907,106.869565 387.454545,108.00832 387.454545,109.413043 C387.454545,110.817767 386.314907,111.956522 384.909091,111.956522 Z M369.636364,111.956522 C368.230547,111.956522 367.090909,110.817767 367.090909,109.413043 C367.090909,108.00832 368.230547,106.869565 369.636364,106.869565 C371.04218,106.869565 372.181818,108.00832 372.181818,109.413043 C372.181818,110.817767 371.04218,111.956522 369.636364,111.956522 Z M354.363636,111.956522 C352.95782,111.956522 351.818182,110.817767 351.818182,109.413043 C351.818182,108.00832 352.95782,106.869565 354.363636,106.869565 C355.769453,106.869565 356.909091,108.00832 356.909091,109.413043 C356.909091,110.817767 355.769453,111.956522 354.363636,111.956522 Z M339.090909,111.956522 C337.685093,111.956522 336.545455,110.817767 336.545455,109.413043 C336.545455,108.00832 337.685093,106.869565 339.090909,106.869565 C340.496725,106.869565 341.636364,108.00832 341.636364,109.413043 C341.636364,110.817767 340.496725,111.956522 339.090909,111.956522 Z M323.818182,111.956522 C322.412365,111.956522 321.272727,110.817767 321.272727,109.413043 C321.272727,108.00832 322.412365,106.869565 323.818182,106.869565 C325.223998,106.869565 326.363636,108.00832 326.363636,109.413043 C326.363636,110.817767 325.223998,111.956522 323.818182,111.956522 Z M308.545455,111.956522 C307.139638,111.956522 306,110.817767 306,109.413043 C306,108.00832 307.139638,106.869565 308.545455,106.869565 C309.951271,106.869565 311.090909,108.00832 311.090909,109.413043 C311.090909,110.817767 309.951271,111.956522 308.545455,111.956522 Z M415.454545,96.6956522 C414.048729,96.6956522 412.909091,95.5568975 412.909091,94.1521739 C412.909091,92.7474503 414.048729,91.6086957 415.454545,91.6086957 C416.860362,91.6086957 418,92.7474503 418,94.1521739 C418,95.5568975 416.860362,96.6956522 415.454545,96.6956522 Z M400.181818,96.6956522 C398.776002,96.6956522 397.636364,95.5568975 397.636364,94.1521739 C397.636364,92.7474503 398.776002,91.6086957 400.181818,91.6086957 C401.587635,91.6086957 402.727273,92.7474503 402.727273,94.1521739 C402.727273,95.5568975 401.587635,96.6956522 400.181818,96.6956522 Z M384.909091,96.6956522 C383.503275,96.6956522 382.363636,95.5568975 382.363636,94.1521739 C382.363636,92.7474503 383.503275,91.6086957 384.909091,91.6086957 C386.314907,91.6086957 387.454545,92.7474503 387.454545,94.1521739 C387.454545,95.5568975 386.314907,96.6956522 384.909091,96.6956522 Z M369.636364,96.6956522 C368.230547,96.6956522 367.090909,95.5568975 367.090909,94.1521739 C367.090909,92.7474503 368.230547,91.6086957 369.636364,91.6086957 C371.04218,91.6086957 372.181818,92.7474503 372.181818,94.1521739 C372.181818,95.5568975 371.04218,96.6956522 369.636364,96.6956522 Z M354.363636,96.6956522 C352.95782,96.6956522 351.818182,95.5568975 351.818182,94.1521739 C351.818182,92.7474503 352.95782,91.6086957 354.363636,91.6086957 C355.769453,91.6086957 356.909091,92.7474503 356.909091,94.1521739 C356.909091,95.5568975 355.769453,96.6956522 354.363636,96.6956522 Z M339.090909,96.6956522 C337.685093,96.6956522 336.545455,95.5568975 336.545455,94.1521739 C336.545455,92.7474503 337.685093,91.6086957 339.090909,91.6086957 C340.496725,91.6086957 341.636364,92.7474503 341.636364,94.1521739 C341.636364,95.5568975 340.496725,96.6956522 339.090909,96.6956522 Z M323.818182,96.6956522 C322.412365,96.6956522 321.272727,95.5568975 321.272727,94.1521739 C321.272727,92.7474503 322.412365,91.6086957 323.818182,91.6086957 C325.223998,91.6086957 326.363636,92.7474503 326.363636,94.1521739 C326.363636,95.5568975 325.223998,96.6956522 323.818182,96.6956522 Z M308.545455,96.6956522 C307.139638,96.6956522 306,95.5568975 306,94.1521739 C306,92.7474503 307.139638,91.6086957 308.545455,91.6086957 C309.951271,91.6086957 311.090909,92.7474503 311.090909,94.1521739 C311.090909,95.5568975 309.951271,96.6956522 308.545455,96.6956522 Z M415.454545,81.4347826 C414.048729,81.4347826 412.909091,80.296028 412.909091,78.8913043 C412.909091,77.4865807 414.048729,76.3478261 415.454545,76.3478261 C416.860362,76.3478261 418,77.4865807 418,78.8913043 C418,80.296028 416.860362,81.4347826 415.454545,81.4347826 Z M400.181818,81.4347826 C398.776002,81.4347826 397.636364,80.296028 397.636364,78.8913043 C397.636364,77.4865807 398.776002,76.3478261 400.181818,76.3478261 C401.587635,76.3478261 402.727273,77.4865807 402.727273,78.8913043 C402.727273,80.296028 401.587635,81.4347826 400.181818,81.4347826 Z M384.909091,81.4347826 C383.503275,81.4347826 382.363636,80.296028 382.363636,78.8913043 C382.363636,77.4865807 383.503275,76.3478261 384.909091,76.3478261 C386.314907,76.3478261 387.454545,77.4865807 387.454545,78.8913043 C387.454545,80.296028 386.314907,81.4347826 384.909091,81.4347826 Z M369.636364,81.4347826 C368.230547,81.4347826 367.090909,80.296028 367.090909,78.8913043 C367.090909,77.4865807 368.230547,76.3478261 369.636364,76.3478261 C371.04218,76.3478261 372.181818,77.4865807 372.181818,78.8913043 C372.181818,80.296028 371.04218,81.4347826 369.636364,81.4347826 Z M354.363636,81.4347826 C352.95782,81.4347826 351.818182,80.296028 351.818182,78.8913043 C351.818182,77.4865807 352.95782,76.3478261 354.363636,76.3478261 C355.769453,76.3478261 356.909091,77.4865807 356.909091,78.8913043 C356.909091,80.296028 355.769453,81.4347826 354.363636,81.4347826 Z M339.090909,81.4347826 C337.685093,81.4347826 336.545455,80.296028 336.545455,78.8913043 C336.545455,77.4865807 337.685093,76.3478261 339.090909,76.3478261 C340.496725,76.3478261 341.636364,77.4865807 341.636364,78.8913043 C341.636364,80.296028 340.496725,81.4347826 339.090909,81.4347826 Z M323.818182,81.4347826 C322.412365,81.4347826 321.272727,80.296028 321.272727,78.8913043 C321.272727,77.4865807 322.412365,76.3478261 323.818182,76.3478261 C325.223998,76.3478261 326.363636,77.4865807 326.363636,78.8913043 C326.363636,80.296028 325.223998,81.4347826 323.818182,81.4347826 Z M308.545455,81.4347826 C307.139638,81.4347826 306,80.296028 306,78.8913043 C306,77.4865807 307.139638,76.3478261 308.545455,76.3478261 C309.951271,76.3478261 311.090909,77.4865807 311.090909,78.8913043 C311.090909,80.296028 309.951271,81.4347826 308.545455,81.4347826 Z M415.454545,66.173913 C414.048729,66.173913 412.909091,65.0351597 412.909091,63.6304348 C412.909091,62.2257099 414.048729,61.0869565 415.454545,61.0869565 C416.860362,61.0869565 418,62.2257099 418,63.6304348 C418,65.0351597 416.860362,66.173913 415.454545,66.173913 Z M400.181818,66.173913 C398.776002,66.173913 397.636364,65.0351597 397.636364,63.6304348 C397.636364,62.2257099 398.776002,61.0869565 400.181818,61.0869565 C401.587635,61.0869565 402.727273,62.2257099 402.727273,63.6304348 C402.727273,65.0351597 401.587635,66.173913 400.181818,66.173913 Z M384.909091,66.173913 C383.503275,66.173913 382.363636,65.0351597 382.363636,63.6304348 C382.363636,62.2257099 383.503275,61.0869565 384.909091,61.0869565 C386.314907,61.0869565 387.454545,62.2257099 387.454545,63.6304348 C387.454545,65.0351597 386.314907,66.173913 384.909091,66.173913 Z M369.636364,66.173913 C368.230547,66.173913 367.090909,65.0351597 367.090909,63.6304348 C367.090909,62.2257099 368.230547,61.0869565 369.636364,61.0869565 C371.04218,61.0869565 372.181818,62.2257099 372.181818,63.6304348 C372.181818,65.0351597 371.04218,66.173913 369.636364,66.173913 Z M354.363636,66.173913 C352.95782,66.173913 351.818182,65.0351597 351.818182,63.6304348 C351.818182,62.2257099 352.95782,61.0869565 354.363636,61.0869565 C355.769453,61.0869565 356.909091,62.2257099 356.909091,63.6304348 C356.909091,65.0351597 355.769453,66.173913 354.363636,66.173913 Z M339.090909,66.173913 C337.685093,66.173913 336.545455,65.0351597 336.545455,63.6304348 C336.545455,62.2257099 337.685093,61.0869565 339.090909,61.0869565 C340.496725,61.0869565 341.636364,62.2257099 341.636364,63.6304348 C341.636364,65.0351597 340.496725,66.173913 339.090909,66.173913 Z M323.818182,66.173913 C322.412365,66.173913 321.272727,65.0351597 321.272727,63.6304348 C321.272727,62.2257099 322.412365,61.0869565 323.818182,61.0869565 C325.223998,61.0869565 326.363636,62.2257099 326.363636,63.6304348 C326.363636,65.0351597 325.223998,66.173913 323.818182,66.173913 Z M308.545455,66.173913 C307.139638,66.173913 306,65.0351597 306,63.6304348 C306,62.2257099 307.139638,61.0869565 308.545455,61.0869565 C309.951271,61.0869565 311.090909,62.2257099 311.090909,63.6304348 C311.090909,65.0351597 309.951271,66.173913 308.545455,66.173913 Z M415.454545,50.9130435 C414.048729,50.9130435 412.909091,49.7742901 412.909091,48.3695652 C412.909091,46.9648403 414.048729,45.826087 415.454545,45.826087 C416.860362,45.826087 418,46.9648403 418,48.3695652 C418,49.7742901 416.860362,50.9130435 415.454545,50.9130435 Z M400.181818,50.9130435 C398.776002,50.9130435 397.636364,49.7742901 397.636364,48.3695652 C397.636364,46.9648403 398.776002,45.826087 400.181818,45.826087 C401.587635,45.826087 402.727273,46.9648403 402.727273,48.3695652 C402.727273,49.7742901 401.587635,50.9130435 400.181818,50.9130435 Z M384.909091,50.9130435 C383.503275,50.9130435 382.363636,49.7742901 382.363636,48.3695652 C382.363636,46.9648403 383.503275,45.826087 384.909091,45.826087 C386.314907,45.826087 387.454545,46.9648403 387.454545,48.3695652 C387.454545,49.7742901 386.314907,50.9130435 384.909091,50.9130435 Z M369.636364,50.9130435 C368.230547,50.9130435 367.090909,49.7742901 367.090909,48.3695652 C367.090909,46.9648403 368.230547,45.826087 369.636364,45.826087 C371.04218,45.826087 372.181818,46.9648403 372.181818,48.3695652 C372.181818,49.7742901 371.04218,50.9130435 369.636364,50.9130435 Z M354.363636,50.9130435 C352.95782,50.9130435 351.818182,49.7742901 351.818182,48.3695652 C351.818182,46.9648403 352.95782,45.826087 354.363636,45.826087 C355.769453,45.826087 356.909091,46.9648403 356.909091,48.3695652 C356.909091,49.7742901 355.769453,50.9130435 354.363636,50.9130435 Z M339.090909,50.9130435 C337.685093,50.9130435 336.545455,49.7742901 336.545455,48.3695652 C336.545455,46.9648403 337.685093,45.826087 339.090909,45.826087 C340.496725,45.826087 341.636364,46.9648403 341.636364,48.3695652 C341.636364,49.7742901 340.496725,50.9130435 339.090909,50.9130435 Z M323.818182,50.9130435 C322.412365,50.9130435 321.272727,49.7742901 321.272727,48.3695652 C321.272727,46.9648403 322.412365,45.826087 323.818182,45.826087 C325.223998,45.826087 326.363636,46.9648403 326.363636,48.3695652 C326.363636,49.7742901 325.223998,50.9130435 323.818182,50.9130435 Z M308.545455,50.9130435 C307.139638,50.9130435 306,49.7742901 306,48.3695652 C306,46.9648403 307.139638,45.826087 308.545455,45.826087 C309.951271,45.826087 311.090909,46.9648403 311.090909,48.3695652 C311.090909,49.7742901 309.951271,50.9130435 308.545455,50.9130435 Z M415.454545,35.6521739 C414.048729,35.6521739 412.909091,34.5134205 412.909091,33.1086957 C412.909091,31.7039708 414.048729,30.5652174 415.454545,30.5652174 C416.860362,30.5652174 418,31.7039708 418,33.1086957 C418,34.5134205 416.860362,35.6521739 415.454545,35.6521739 Z M400.181818,35.6521739 C398.776002,35.6521739 397.636364,34.5134205 397.636364,33.1086957 C397.636364,31.7039708 398.776002,30.5652174 400.181818,30.5652174 C401.587635,30.5652174 402.727273,31.7039708 402.727273,33.1086957 C402.727273,34.5134205 401.587635,35.6521739 400.181818,35.6521739 Z M384.909091,35.6521739 C383.503275,35.6521739 382.363636,34.5134205 382.363636,33.1086957 C382.363636,31.7039708 383.503275,30.5652174 384.909091,30.5652174 C386.314907,30.5652174 387.454545,31.7039708 387.454545,33.1086957 C387.454545,34.5134205 386.314907,35.6521739 384.909091,35.6521739 Z M369.636364,35.6521739 C368.230547,35.6521739 367.090909,34.5134205 367.090909,33.1086957 C367.090909,31.7039708 368.230547,30.5652174 369.636364,30.5652174 C371.04218,30.5652174 372.181818,31.7039708 372.181818,33.1086957 C372.181818,34.5134205 371.04218,35.6521739 369.636364,35.6521739 Z M354.363636,35.6521739 C352.95782,35.6521739 351.818182,34.5134205 351.818182,33.1086957 C351.818182,31.7039708 352.95782,30.5652174 354.363636,30.5652174 C355.769453,30.5652174 356.909091,31.7039708 356.909091,33.1086957 C356.909091,34.5134205 355.769453,35.6521739 354.363636,35.6521739 Z M339.090909,35.6521739 C337.685093,35.6521739 336.545455,34.5134205 336.545455,33.1086957 C336.545455,31.7039708 337.685093,30.5652174 339.090909,30.5652174 C340.496725,30.5652174 341.636364,31.7039708 341.636364,33.1086957 C341.636364,34.5134205 340.496725,35.6521739 339.090909,35.6521739 Z M323.818182,35.6521739 C322.412365,35.6521739 321.272727,34.5134205 321.272727,33.1086957 C321.272727,31.7039708 322.412365,30.5652174 323.818182,30.5652174 C325.223998,30.5652174 326.363636,31.7039708 326.363636,33.1086957 C326.363636,34.5134205 325.223998,35.6521739 323.818182,35.6521739 Z M308.545455,35.6521739 C307.139638,35.6521739 306,34.5134205 306,33.1086957 C306,31.7039708 307.139638,30.5652174 308.545455,30.5652174 C309.951271,30.5652174 311.090909,31.7039708 311.090909,33.1086957 C311.090909,34.5134205 309.951271,35.6521739 308.545455,35.6521739 Z M415.454545,20.3913043 C414.048729,20.3913043 412.909091,19.2525497 412.909091,17.8478261 C412.909091,16.4431025 414.048729,15.3043478 415.454545,15.3043478 C416.860362,15.3043478 418,16.4431025 418,17.8478261 C418,19.2525497 416.860362,20.3913043 415.454545,20.3913043 Z M400.181818,20.3913043 C398.776002,20.3913043 397.636364,19.2525497 397.636364,17.8478261 C397.636364,16.4431025 398.776002,15.3043478 400.181818,15.3043478 C401.587635,15.3043478 402.727273,16.4431025 402.727273,17.8478261 C402.727273,19.2525497 401.587635,20.3913043 400.181818,20.3913043 Z M384.909091,20.3913043 C383.503275,20.3913043 382.363636,19.2525497 382.363636,17.8478261 C382.363636,16.4431025 383.503275,15.3043478 384.909091,15.3043478 C386.314907,15.3043478 387.454545,16.4431025 387.454545,17.8478261 C387.454545,19.2525497 386.314907,20.3913043 384.909091,20.3913043 Z M369.636364,20.3913043 C368.230547,20.3913043 367.090909,19.2525497 367.090909,17.8478261 C367.090909,16.4431025 368.230547,15.3043478 369.636364,15.3043478 C371.04218,15.3043478 372.181818,16.4431025 372.181818,17.8478261 C372.181818,19.2525497 371.04218,20.3913043 369.636364,20.3913043 Z M354.363636,20.3913043 C352.95782,20.3913043 351.818182,19.2525497 351.818182,17.8478261 C351.818182,16.4431025 352.95782,15.3043478 354.363636,15.3043478 C355.769453,15.3043478 356.909091,16.4431025 356.909091,17.8478261 C356.909091,19.2525497 355.769453,20.3913043 354.363636,20.3913043 Z M339.090909,20.3913043 C337.685093,20.3913043 336.545455,19.2525497 336.545455,17.8478261 C336.545455,16.4431025 337.685093,15.3043478 339.090909,15.3043478 C340.496725,15.3043478 341.636364,16.4431025 341.636364,17.8478261 C341.636364,19.2525497 340.496725,20.3913043 339.090909,20.3913043 Z M323.818182,20.3913043 C322.412365,20.3913043 321.272727,19.2525497 321.272727,17.8478261 C321.272727,16.4431025 322.412365,15.3043478 323.818182,15.3043478 C325.223998,15.3043478 326.363636,16.4431025 326.363636,17.8478261 C326.363636,19.2525497 325.223998,20.3913043 323.818182,20.3913043 Z M308.545455,20.3913043 C307.139638,20.3913043 306,19.2525497 306,17.8478261 C306,16.4431025 307.139638,15.3043478 308.545455,15.3043478 C309.951271,15.3043478 311.090909,16.4431025 311.090909,17.8478261 C311.090909,19.2525497 309.951271,20.3913043 308.545455,20.3913043 Z M415.454545,5.13043478 C414.048729,5.13043478 412.909091,3.99168014 412.909091,2.58695652 C412.909091,1.1822329 414.048729,0.0434782609 415.454545,0.0434782609 C416.860362,0.0434782609 418,1.1822329 418,2.58695652 C418,3.99168014 416.860362,5.13043478 415.454545,5.13043478 Z M400.181818,5.13043478 C398.776002,5.13043478 397.636364,3.99168014 397.636364,2.58695652 C397.636364,1.1822329 398.776002,0.0434782609 400.181818,0.0434782609 C401.587635,0.0434782609 402.727273,1.1822329 402.727273,2.58695652 C402.727273,3.99168014 401.587635,5.13043478 400.181818,5.13043478 Z M384.909091,5.13043478 C383.503275,5.13043478 382.363636,3.99168014 382.363636,2.58695652 C382.363636,1.1822329 383.503275,0.0434782609 384.909091,0.0434782609 C386.314907,0.0434782609 387.454545,1.1822329 387.454545,2.58695652 C387.454545,3.99168014 386.314907,5.13043478 384.909091,5.13043478 Z M369.636364,5.13043478 C368.230547,5.13043478 367.090909,3.99168014 367.090909,2.58695652 C367.090909,1.1822329 368.230547,0.0434782609 369.636364,0.0434782609 C371.04218,0.0434782609 372.181818,1.1822329 372.181818,2.58695652 C372.181818,3.99168014 371.04218,5.13043478 369.636364,5.13043478 Z M354.363636,5.13043478 C352.95782,5.13043478 351.818182,3.99168014 351.818182,2.58695652 C351.818182,1.1822329 352.95782,0.0434782609 354.363636,0.0434782609 C355.769453,0.0434782609 356.909091,1.1822329 356.909091,2.58695652 C356.909091,3.99168014 355.769453,5.13043478 354.363636,5.13043478 Z M339.090909,5.13043478 C337.685093,5.13043478 336.545455,3.99168014 336.545455,2.58695652 C336.545455,1.1822329 337.685093,0.0434782609 339.090909,0.0434782609 C340.496725,0.0434782609 341.636364,1.1822329 341.636364,2.58695652 C341.636364,3.99168014 340.496725,5.13043478 339.090909,5.13043478 Z M323.818182,5.13043478 C322.412365,5.13043478 321.272727,3.99168014 321.272727,2.58695652 C321.272727,1.1822329 322.412365,0.0434782609 323.818182,0.0434782609 C325.223998,0.0434782609 326.363636,1.1822329 326.363636,2.58695652 C326.363636,3.99168014 325.223998,5.13043478 323.818182,5.13043478 Z M308.545455,5.13043478 C307.139638,5.13043478 306,3.99168014 306,2.58695652 C306,1.1822329 307.139638,0.0434782609 308.545455,0.0434782609 C309.951271,0.0434782609 311.090909,1.1822329 311.090909,2.58695652 C311.090909,3.99168014 309.951271,5.13043478 308.545455,5.13043478 Z M415.454545,-10.1304348 C414.048729,-10.1304348 412.909091,-11.2691894 412.909091,-12.673913 C412.909091,-14.0786367 414.048729,-15.2173913 415.454545,-15.2173913 C416.860362,-15.2173913 418,-14.0786367 418,-12.673913 C418,-11.2691894 416.860362,-10.1304348 415.454545,-10.1304348 Z M400.181818,-10.1304348 C398.776002,-10.1304348 397.636364,-11.2691894 397.636364,-12.673913 C397.636364,-14.0786367 398.776002,-15.2173913 400.181818,-15.2173913 C401.587635,-15.2173913 402.727273,-14.0786367 402.727273,-12.673913 C402.727273,-11.2691894 401.587635,-10.1304348 400.181818,-10.1304348 Z M384.909091,-10.1304348 C383.503275,-10.1304348 382.363636,-11.2691894 382.363636,-12.673913 C382.363636,-14.0786367 383.503275,-15.2173913 384.909091,-15.2173913 C386.314907,-15.2173913 387.454545,-14.0786367 387.454545,-12.673913 C387.454545,-11.2691894 386.314907,-10.1304348 384.909091,-10.1304348 Z M369.636364,-10.1304348 C368.230547,-10.1304348 367.090909,-11.2691894 367.090909,-12.673913 C367.090909,-14.0786367 368.230547,-15.2173913 369.636364,-15.2173913 C371.04218,-15.2173913 372.181818,-14.0786367 372.181818,-12.673913 C372.181818,-11.2691894 371.04218,-10.1304348 369.636364,-10.1304348 Z M354.363636,-10.1304348 C352.95782,-10.1304348 351.818182,-11.2691894 351.818182,-12.673913 C351.818182,-14.0786367 352.95782,-15.2173913 354.363636,-15.2173913 C355.769453,-15.2173913 356.909091,-14.0786367 356.909091,-12.673913 C356.909091,-11.2691894 355.769453,-10.1304348 354.363636,-10.1304348 Z M339.090909,-10.1304348 C337.685093,-10.1304348 336.545455,-11.2691894 336.545455,-12.673913 C336.545455,-14.0786367 337.685093,-15.2173913 339.090909,-15.2173913 C340.496725,-15.2173913 341.636364,-14.0786367 341.636364,-12.673913 C341.636364,-11.2691894 340.496725,-10.1304348 339.090909,-10.1304348 Z M323.818182,-10.1304348 C322.412365,-10.1304348 321.272727,-11.2691894 321.272727,-12.673913 C321.272727,-14.0786367 322.412365,-15.2173913 323.818182,-15.2173913 C325.223998,-15.2173913 326.363636,-14.0786367 326.363636,-12.673913 C326.363636,-11.2691894 325.223998,-10.1304348 323.818182,-10.1304348 Z M308.545455,-10.1304348 C307.139638,-10.1304348 306,-11.2691894 306,-12.673913 C306,-14.0786367 307.139638,-15.2173913 308.545455,-15.2173913 C309.951271,-15.2173913 311.090909,-14.0786367 311.090909,-12.673913 C311.090909,-11.2691894 309.951271,-10.1304348 308.545455,-10.1304348 Z M415.454545,-25.3913043 C414.048729,-25.3913043 412.909091,-26.530059 412.909091,-27.9347826 C412.909091,-29.3395062 414.048729,-30.4782609 415.454545,-30.4782609 C416.860362,-30.4782609 418,-29.3395062 418,-27.9347826 C418,-26.530059 416.860362,-25.3913043 415.454545,-25.3913043 Z M400.181818,-25.3913043 C398.776002,-25.3913043 397.636364,-26.530059 397.636364,-27.9347826 C397.636364,-29.3395062 398.776002,-30.4782609 400.181818,-30.4782609 C401.587635,-30.4782609 402.727273,-29.3395062 402.727273,-27.9347826 C402.727273,-26.530059 401.587635,-25.3913043 400.181818,-25.3913043 Z M384.909091,-25.3913043 C383.503275,-25.3913043 382.363636,-26.530059 382.363636,-27.9347826 C382.363636,-29.3395062 383.503275,-30.4782609 384.909091,-30.4782609 C386.314907,-30.4782609 387.454545,-29.3395062 387.454545,-27.9347826 C387.454545,-26.530059 386.314907,-25.3913043 384.909091,-25.3913043 Z M369.636364,-25.3913043 C368.230547,-25.3913043 367.090909,-26.530059 367.090909,-27.9347826 C367.090909,-29.3395062 368.230547,-30.4782609 369.636364,-30.4782609 C371.04218,-30.4782609 372.181818,-29.3395062 372.181818,-27.9347826 C372.181818,-26.530059 371.04218,-25.3913043 369.636364,-25.3913043 Z M354.363636,-25.3913043 C352.95782,-25.3913043 351.818182,-26.530059 351.818182,-27.9347826 C351.818182,-29.3395062 352.95782,-30.4782609 354.363636,-30.4782609 C355.769453,-30.4782609 356.909091,-29.3395062 356.909091,-27.9347826 C356.909091,-26.530059 355.769453,-25.3913043 354.363636,-25.3913043 Z M339.090909,-25.3913043 C337.685093,-25.3913043 336.545455,-26.530059 336.545455,-27.9347826 C336.545455,-29.3395062 337.685093,-30.4782609 339.090909,-30.4782609 C340.496725,-30.4782609 341.636364,-29.3395062 341.636364,-27.9347826 C341.636364,-26.530059 340.496725,-25.3913043 339.090909,-25.3913043 Z M323.818182,-25.3913043 C322.412365,-25.3913043 321.272727,-26.530059 321.272727,-27.9347826 C321.272727,-29.3395062 322.412365,-30.4782609 323.818182,-30.4782609 C325.223998,-30.4782609 326.363636,-29.3395062 326.363636,-27.9347826 C326.363636,-26.530059 325.223998,-25.3913043 323.818182,-25.3913043 Z M308.545455,-25.3913043 C307.139638,-25.3913043 306,-26.530059 306,-27.9347826 C306,-29.3395062 307.139638,-30.4782609 308.545455,-30.4782609 C309.951271,-30.4782609 311.090909,-29.3395062 311.090909,-27.9347826 C311.090909,-26.530059 309.951271,-25.3913043 308.545455,-25.3913043 Z M415.454545,-40.6521739 C414.048729,-40.6521739 412.909091,-41.7909286 412.909091,-43.1956522 C412.909091,-44.6003758 414.048729,-45.7391304 415.454545,-45.7391304 C416.860362,-45.7391304 418,-44.6003758 418,-43.1956522 C418,-41.7909286 416.860362,-40.6521739 415.454545,-40.6521739 Z M400.181818,-40.6521739 C398.776002,-40.6521739 397.636364,-41.7909286 397.636364,-43.1956522 C397.636364,-44.6003758 398.776002,-45.7391304 400.181818,-45.7391304 C401.587635,-45.7391304 402.727273,-44.6003758 402.727273,-43.1956522 C402.727273,-41.7909286 401.587635,-40.6521739 400.181818,-40.6521739 Z M384.909091,-40.6521739 C383.503275,-40.6521739 382.363636,-41.7909286 382.363636,-43.1956522 C382.363636,-44.6003758 383.503275,-45.7391304 384.909091,-45.7391304 C386.314907,-45.7391304 387.454545,-44.6003758 387.454545,-43.1956522 C387.454545,-41.7909286 386.314907,-40.6521739 384.909091,-40.6521739 Z M369.636364,-40.6521739 C368.230547,-40.6521739 367.090909,-41.7909286 367.090909,-43.1956522 C367.090909,-44.6003758 368.230547,-45.7391304 369.636364,-45.7391304 C371.04218,-45.7391304 372.181818,-44.6003758 372.181818,-43.1956522 C372.181818,-41.7909286 371.04218,-40.6521739 369.636364,-40.6521739 Z M354.363636,-40.6521739 C352.95782,-40.6521739 351.818182,-41.7909286 351.818182,-43.1956522 C351.818182,-44.6003758 352.95782,-45.7391304 354.363636,-45.7391304 C355.769453,-45.7391304 356.909091,-44.6003758 356.909091,-43.1956522 C356.909091,-41.7909286 355.769453,-40.6521739 354.363636,-40.6521739 Z M339.090909,-40.6521739 C337.685093,-40.6521739 336.545455,-41.7909286 336.545455,-43.1956522 C336.545455,-44.6003758 337.685093,-45.7391304 339.090909,-45.7391304 C340.496725,-45.7391304 341.636364,-44.6003758 341.636364,-43.1956522 C341.636364,-41.7909286 340.496725,-40.6521739 339.090909,-40.6521739 Z M323.818182,-40.6521739 C322.412365,-40.6521739 321.272727,-41.7909286 321.272727,-43.1956522 C321.272727,-44.6003758 322.412365,-45.7391304 323.818182,-45.7391304 C325.223998,-45.7391304 326.363636,-44.6003758 326.363636,-43.1956522 C326.363636,-41.7909286 325.223998,-40.6521739 323.818182,-40.6521739 Z M308.545455,-40.6521739 C307.139638,-40.6521739 306,-41.7909286 306,-43.1956522 C306,-44.6003758 307.139638,-45.7391304 308.545455,-45.7391304 C309.951271,-45.7391304 311.090909,-44.6003758 311.090909,-43.1956522 C311.090909,-41.7909286 309.951271,-40.6521739 308.545455,-40.6521739 Z M415.454545,-55.9130435 C414.048729,-55.9130435 412.909091,-57.0517981 412.909091,-58.4565217 C412.909091,-59.8612454 414.048729,-61 415.454545,-61 C416.860362,-61 418,-59.8612454 418,-58.4565217 C418,-57.0517981 416.860362,-55.9130435 415.454545,-55.9130435 Z M400.181818,-55.9130435 C398.776002,-55.9130435 397.636364,-57.0517981 397.636364,-58.4565217 C397.636364,-59.8612454 398.776002,-61 400.181818,-61 C401.587635,-61 402.727273,-59.8612454 402.727273,-58.4565217 C402.727273,-57.0517981 401.587635,-55.9130435 400.181818,-55.9130435 Z M384.909091,-55.9130435 C383.503275,-55.9130435 382.363636,-57.0517981 382.363636,-58.4565217 C382.363636,-59.8612454 383.503275,-61 384.909091,-61 C386.314907,-61 387.454545,-59.8612454 387.454545,-58.4565217 C387.454545,-57.0517981 386.314907,-55.9130435 384.909091,-55.9130435 Z M369.636364,-55.9130435 C368.230547,-55.9130435 367.090909,-57.0517981 367.090909,-58.4565217 C367.090909,-59.8612454 368.230547,-61 369.636364,-61 C371.04218,-61 372.181818,-59.8612454 372.181818,-58.4565217 C372.181818,-57.0517981 371.04218,-55.9130435 369.636364,-55.9130435 Z M354.363636,-55.9130435 C352.95782,-55.9130435 351.818182,-57.0517981 351.818182,-58.4565217 C351.818182,-59.8612454 352.95782,-61 354.363636,-61 C355.769453,-61 356.909091,-59.8612454 356.909091,-58.4565217 C356.909091,-57.0517981 355.769453,-55.9130435 354.363636,-55.9130435 Z M339.090909,-55.9130435 C337.685093,-55.9130435 336.545455,-57.0517981 336.545455,-58.4565217 C336.545455,-59.8612454 337.685093,-61 339.090909,-61 C340.496725,-61 341.636364,-59.8612454 341.636364,-58.4565217 C341.636364,-57.0517981 340.496725,-55.9130435 339.090909,-55.9130435 Z M323.818182,-55.9130435 C322.412365,-55.9130435 321.272727,-57.0517981 321.272727,-58.4565217 C321.272727,-59.8612454 322.412365,-61 323.818182,-61 C325.223998,-61 326.363636,-59.8612454 326.363636,-58.4565217 C326.363636,-57.0517981 325.223998,-55.9130435 323.818182,-55.9130435 Z M308.545455,-55.9130435 C307.139638,-55.9130435 306,-57.0517981 306,-58.4565217 C306,-59.8612454 307.139638,-61 308.545455,-61 C309.951271,-61 311.090909,-59.8612454 311.090909,-58.4565217 C311.090909,-57.0517981 309.951271,-55.9130435 308.545455,-55.9130435 Z" id="dot-grid" transform="translate(362.000000, 56.000000) rotate(90.000000) translate(-362.000000, -56.000000) "></path>
            </g>
        </g>
    </g>
</svg>