<?xml version="1.0" encoding="UTF-8"?>
<svg width="21px" height="14px" viewBox="0 0 21 14" version="1.1" xmlns="http://www.w3.org/2000/svg" xmlns:xlink="http://www.w3.org/1999/xlink">
    <!-- Generator: Sketch 51.3 (57544) - http://www.bohemiancoding.com/sketch -->
    <title>G+</title>
    <desc>Created with Sketch.</desc>
    <defs></defs>
    <g id="Welcome" stroke="none" stroke-width="1" fill="none" fill-rule="evenodd">
        <g id="Home--Hamburger-Effect" transform="translate(-1254.000000, -1193.000000)" fill="#000000">
            <g id="Group-2" transform="translate(963.000000, 0.000000)">
                <g id="Media-Icons" transform="translate(124.000000, 1191.000000)">
                    <g id="G+" transform="translate(167.000000, 2.000000)">
                        <path d="M6.63333866,5.74681818 C6.62995208,5.78886364 6.62656551,5.82068182 6.62656551,5.85363636 C6.62656551,6.65931818 6.62882323,8.40590909 6.62882323,8.40590909 L10.1474737,8.40590909 C10.1474737,8.66840909 9.83816659,9.72522727 8.85606011,10.3968182 C8.27921366,10.79 7.63237801,10.9706818 6.94603233,11.015 C6.46175224,11.0468182 5.98537415,10.9979545 5.52028465,10.8479545 C4.05164035,10.3752273 2.96003465,9.03772727 2.80989653,7.40818182 C2.77490193,7.00704545 2.79973681,6.60477273 2.89004545,6.20818182 C3.32578465,4.28318182 5.13760177,2.85590909 7.21244282,3.165 C8.13246211,3.30136364 8.66189653,3.68659091 9.14504776,4.1025 C9.77946597,3.46045455 10.4082399,2.8275 11.0562044,2.17522727 C10.8992931,2.06045455 10.5358008,1.69 9.89122292,1.31386364 C8.92604931,0.7525 7.88524221,0.471818182 6.77444591,0.460454545 C6.56447832,0.458181818 6.35451073,0.470681818 6.14454313,0.478636364 C5.77766427,0.493409091 5.41642971,0.558181818 5.06196829,0.649090909 C3.64073603,1.01386364 2.4610794,1.765 1.53541582,2.91386364 C0.647004552,4.01613636 0.169497608,5.28090909 0.0814466821,6.69340909 C0.0441943673,7.29113636 0.0893486883,7.88886364 0.220296219,8.47522727 C0.590561651,10.1138636 1.44397832,11.4354545 2.7918348,12.4275 C3.83489961,13.1979545 5.01116968,13.6081818 6.30032554,13.6809091 C7.02618125,13.7195455 7.74752153,13.6525 8.45418665,13.465 C9.77156397,13.1195455 10.8665562,12.4263636 11.6883649,11.3263636 C12.8781812,9.73090909 13.1671689,7.68772727 12.8160941,5.74681818 L6.63333866,5.74681818 Z" id="Fill-4"></path>
                        <polygon id="Fill-6" points="20.763819 5.83511364 18.5365821 5.83511364 18.5365821 3.59193182 18.5365821 3.52602273 18.4711083 3.52602273 16.8083005 3.52602273 16.7416978 3.52602273 16.7416978 3.59193182 16.7416978 5.83511364 14.5155898 5.83511364 14.450116 5.83511364 14.450116 5.90102273 14.450116 7.57261364 14.450116 7.63965909 14.5155898 7.63965909 16.7416978 7.63965909 16.7416978 9.88284091 16.7416978 9.94761364 16.8083005 9.94761364 18.4711083 9.94761364 18.5365821 9.94761364 18.5365821 9.88284091 18.5365821 7.63965909 20.763819 7.63965909 20.8304216 7.63965909 20.8304216 7.57261364 20.8304216 5.90102273 20.8304216 5.83511364"></polygon>
                    </g>
                </g>
            </g>
        </g>
    </g>
</svg>