<?xml version="1.0" encoding="UTF-8"?>
<svg width="800px" height="920px" viewBox="0 0 800 920" version="1.1" xmlns="http://www.w3.org/2000/svg" xmlns:xlink="http://www.w3.org/1999/xlink">
    <!-- Generator: Sketch 51.3 (57544) - http://www.bohemiancoding.com/sketch -->
    <title>Group 12</title>
    <desc>Created with Sketch.</desc>
    <defs>
        <rect id="path-1" x="0" y="0" width="800" height="920"></rect>
        <linearGradient x1="17.9914607%" y1="112.50961%" x2="86.8704834%" y2="0%" id="linearGradient-3">
            <stop stop-color="#8D8D8D" stop-opacity="0" offset="0%"></stop>
            <stop stop-color="#000000" offset="100%"></stop>
        </linearGradient>
        <linearGradient x1="30.286812%" y1="0%" x2="85.0355696%" y2="89.7097418%" id="linearGradient-4">
            <stop stop-color="#B3B7BA" stop-opacity="0.152485281" offset="0%"></stop>
            <stop stop-color="#7B7F85" stop-opacity="0.457455842" offset="100%"></stop>
        </linearGradient>
        <linearGradient x1="100%" y1="-2.73359643%" x2="70.9075514%" y2="58.9226058%" id="linearGradient-5">
            <stop stop-color="#F3F7FE" offset="0%"></stop>
            <stop stop-color="#959595" offset="100%"></stop>
        </linearGradient>
        <linearGradient x1="50%" y1="-142.327103%" x2="50%" y2="170.164832%" id="linearGradient-6">
            <stop stop-color="#CCD0D6" offset="0%"></stop>
            <stop stop-color="#27282B" offset="100%"></stop>
        </linearGradient>
        <linearGradient x1="181.312984%" y1="173.650231%" x2="662.835241%" y2="4.00041329%" id="linearGradient-7">
            <stop stop-color="#E5EDFF" offset="0%"></stop>
            <stop stop-color="#6B9AD9" offset="100%"></stop>
        </linearGradient>
        <linearGradient x1="-148.443031%" y1="220.755809%" x2="171.514374%" y2="220.755809%" id="linearGradient-8">
            <stop stop-color="#E5EDFF" offset="0%"></stop>
            <stop stop-color="#6B9AD9" offset="100%"></stop>
        </linearGradient>
        <linearGradient x1="50%" y1="-104.289511%" x2="50%" y2="100%" id="linearGradient-9">
            <stop stop-color="#FFFFFF" offset="0%"></stop>
            <stop stop-color="#B3CDEF" offset="100%"></stop>
        </linearGradient>
        <linearGradient x1="50%" y1="19.6859798%" x2="-33.8124944%" y2="294.476483%" id="linearGradient-10">
            <stop stop-color="#F7FAFF" offset="0%"></stop>
            <stop stop-color="#B9BDC2" offset="100%"></stop>
        </linearGradient>
        <path d="M20,-2.20268248e-13 L398.333333,-2.16715534e-13 C409.379028,-2.18744596e-13 418.333333,8.954305 418.333333,20 L418.333333,39.8888889 C418.333333,42.0980279 416.542472,43.8888889 414.333333,43.8888889 L4,43.8888889 C1.790861,43.8888889 2.705415e-16,42.0980279 0,39.8888889 L0,20 C-1.3527075e-15,8.954305 8.954305,-2.14686473e-13 20,-2.16715534e-13 Z" id="path-11"></path>
        <filter x="-5.5%" y="-52.3%" width="111.0%" height="204.6%" filterUnits="objectBoundingBox" id="filter-12">
            <feGaussianBlur stdDeviation="10.5" in="SourceAlpha" result="shadowBlurInner1"></feGaussianBlur>
            <feOffset dx="-24.9" dy="-12.7" in="shadowBlurInner1" result="shadowOffsetInner1"></feOffset>
            <feComposite in="shadowOffsetInner1" in2="SourceAlpha" operator="arithmetic" k2="-1" k3="1" result="shadowInnerInner1"></feComposite>
            <feColorMatrix values="0 0 0 0 0.664540816   0 0 0 0 0.664540816   0 0 0 0 0.664540816  0 0 0 0.43 0" type="matrix" in="shadowInnerInner1"></feColorMatrix>
        </filter>
        <linearGradient x1="111.132533%" y1="87.7928845%" x2="-19.4311786%" y2="-16.6544709%" id="linearGradient-13">
            <stop stop-color="#FFFFFF" offset="0%"></stop>
            <stop stop-color="#B7B9BD" offset="100%"></stop>
        </linearGradient>
        <linearGradient x1="109.175977%" y1="164.671288%" x2="-45.3221147%" y2="38.8205118%" id="linearGradient-14">
            <stop stop-color="#545454" offset="0%"></stop>
            <stop stop-color="#000000" offset="100%"></stop>
        </linearGradient>
        <linearGradient x1="60.7312459%" y1="0%" x2="50%" y2="100%" id="linearGradient-15">
            <stop stop-color="#FFFFFF" offset="0%"></stop>
            <stop stop-color="#B7B9BD" offset="100%"></stop>
        </linearGradient>
        <linearGradient x1="50%" y1="56.9674255%" x2="100%" y2="32.8057413%" id="linearGradient-16">
            <stop stop-color="#2266D1" offset="0%"></stop>
            <stop stop-color="#316EEA" offset="100%"></stop>
        </linearGradient>
        <linearGradient x1="60.7312459%" y1="0%" x2="11.1938561%" y2="201.48639%" id="linearGradient-17">
            <stop stop-color="#FFFFFF" offset="0%"></stop>
            <stop stop-color="#B7B9BD" offset="100%"></stop>
        </linearGradient>
        <linearGradient x1="100%" y1="100%" x2="27.9339743%" y2="50%" id="linearGradient-18">
            <stop stop-color="#CEE0FB" offset="0%"></stop>
            <stop stop-color="#E4EDFB" offset="100%"></stop>
        </linearGradient>
        <path d="M55.5149175,0.960853657 C57.3447752,4.16694653 58.3696613,7.75905568 58.3696613,11.5523433 C58.3696613,25.0962211 45.3032225,36.0757189 29.1848509,36.0757189 C13.0664793,36.0757189 4.05345151e-05,25.0962211 4.05345151e-05,11.5523433 C4.05345151e-05,7.53825364 1.14772588,3.74939239 3.1825253,0.404901704 C16.1113105,2.45172853 41.8451346,2.31985962 55.5149175,0.960853657 Z" id="path-19"></path>
        <linearGradient x1="50%" y1="0%" x2="50%" y2="100%" id="linearGradient-21">
            <stop stop-color="#99BAE9" offset="0%"></stop>
            <stop stop-color="#BCD0F2" offset="100%"></stop>
        </linearGradient>
        <path d="M26.5501074,1.29710448e-05 C41.2133609,1.29710448e-05 53.1002047,2.81292065 53.1002047,6.28284985 C53.1002047,9.75277905 41.2133609,12.5656867 26.5501074,12.5656867 C11.886854,12.5656867 -4.45879667e-05,9.75277905 -4.45879667e-05,6.28284985 C-4.45879667e-05,2.81292065 11.886854,1.29710448e-05 26.5501074,1.29710448e-05 Z" id="path-22"></path>
        <linearGradient x1="34.2329692%" y1="5.04199562%" x2="78.6018941%" y2="100%" id="linearGradient-24">
            <stop stop-color="#B1FFBE" offset="0%"></stop>
            <stop stop-color="#5CDB8E" offset="44.420721%"></stop>
            <stop stop-color="#149654" offset="100%"></stop>
        </linearGradient>
        <path d="M25.5367186,74.1781392 C24.0867876,64.1443777 20.0981496,49.6551207 8.10689452,34.0489741 C1.04322101,24.8559333 1.020167,2.46883247 3.64810636e-05,-2.59420897e-05 C5.5427727,1.90601478 15.4997423,6.81922849 25.5367186,20.6726108 C36.0583085,35.1947397 29.3835653,64.8110886 25.5367186,74.1781392 Z" id="path-25"></path>
        <filter x="-36.9%" y="-15.5%" width="173.7%" height="131.0%" filterUnits="objectBoundingBox" id="filter-27">
            <feGaussianBlur stdDeviation="6.5" in="SourceAlpha" result="shadowBlurInner1"></feGaussianBlur>
            <feOffset dx="0" dy="-10" in="shadowBlurInner1" result="shadowOffsetInner1"></feOffset>
            <feComposite in="shadowOffsetInner1" in2="SourceAlpha" operator="arithmetic" k2="-1" k3="1" result="shadowInnerInner1"></feComposite>
            <feColorMatrix values="0 0 0 0 0.221483195   0 0 0 0 0.778539541   0 0 0 0 0.473229813  0 0 0 1 0" type="matrix" in="shadowInnerInner1"></feColorMatrix>
        </filter>
        <linearGradient x1="78.6009371%" y1="-9.30161748%" x2="90.360851%" y2="88.8160124%" id="linearGradient-28">
            <stop stop-color="#B1FFBE" offset="0%"></stop>
            <stop stop-color="#5CDB8E" offset="44.420721%"></stop>
            <stop stop-color="#149654" offset="100%"></stop>
        </linearGradient>
        <path d="M44.6327224,48.4015617 C40.1532742,41.2367918 32.2388923,31.527167 17.8425112,23.6543914 C9.36203767,19.0167726 1.81871397,1.9518885 0.210306441,0.411900393 C5.08055438,0.00327762089 14.3300772,0.404977098 26.6460405,7.59768737 C39.5565397,15.1375514 44.4191842,39.9657737 44.6327224,48.4015617 Z" id="path-29"></path>
        <filter x="-25.9%" y="-23.9%" width="151.8%" height="147.8%" filterUnits="objectBoundingBox" id="filter-31">
            <feGaussianBlur stdDeviation="6.5" in="SourceAlpha" result="shadowBlurInner1"></feGaussianBlur>
            <feOffset dx="0" dy="-10" in="shadowBlurInner1" result="shadowOffsetInner1"></feOffset>
            <feComposite in="shadowOffsetInner1" in2="SourceAlpha" operator="arithmetic" k2="-1" k3="1" result="shadowInnerInner1"></feComposite>
            <feColorMatrix values="0 0 0 0 0.221483195   0 0 0 0 0.778539541   0 0 0 0 0.473229813  0 0 0 1 0" type="matrix" in="shadowInnerInner1"></feColorMatrix>
        </filter>
        <path d="M0.424404886,53.8421971 C3.95633365,46.1303921 10.5794926,35.4416229 23.8975616,25.7458317 C31.7428143,20.0343746 37.0418311,2.06965789 38.4440245,0.328799773 C33.5398788,0.549984462 24.378911,2.14282066 13.0448282,10.8930774 C1.16362433,20.0657848 -0.457754658,45.4149072 0.424404886,53.8421971 Z" id="path-32"></path>
        <filter x="-30.1%" y="-21.5%" width="160.2%" height="143.0%" filterUnits="objectBoundingBox" id="filter-34">
            <feGaussianBlur stdDeviation="6.5" in="SourceAlpha" result="shadowBlurInner1"></feGaussianBlur>
            <feOffset dx="0" dy="-10" in="shadowBlurInner1" result="shadowOffsetInner1"></feOffset>
            <feComposite in="shadowOffsetInner1" in2="SourceAlpha" operator="arithmetic" k2="-1" k3="1" result="shadowInnerInner1"></feComposite>
            <feColorMatrix values="0 0 0 0 0.221483195   0 0 0 0 0.778539541   0 0 0 0 0.473229813  0 0 0 1 0" type="matrix" in="shadowInnerInner1"></feColorMatrix>
        </filter>
        <linearGradient x1="69.4657764%" y1="75.602262%" x2="69.4657764%" y2="14.0380158%" id="linearGradient-35">
            <stop stop-color="#F4AF92" offset="0%"></stop>
            <stop stop-color="#EC906C" offset="100%"></stop>
        </linearGradient>
        <linearGradient x1="85.0973284%" y1="109.304399%" x2="4.85382204%" y2="-47.1761978%" id="linearGradient-36">
            <stop stop-color="#000000" offset="0%"></stop>
            <stop stop-color="#464748" offset="100%"></stop>
        </linearGradient>
        <linearGradient x1="211.687101%" y1="0%" x2="50%" y2="85.4739868%" id="linearGradient-37">
            <stop stop-color="#545454" offset="0%"></stop>
            <stop stop-color="#000000" offset="100%"></stop>
        </linearGradient>
        <linearGradient x1="60.7312459%" y1="0%" x2="50%" y2="100%" id="linearGradient-38">
            <stop stop-color="#FFFFFF" offset="0%"></stop>
            <stop stop-color="#E5EEFF" offset="100%"></stop>
        </linearGradient>
        <linearGradient x1="0%" y1="71.6702355%" x2="106.166257%" y2="56.8915662%" id="linearGradient-39">
            <stop stop-color="#FDAE6B" offset="0%"></stop>
            <stop stop-color="#FAE539" offset="100%"></stop>
        </linearGradient>
        <path d="M80.5226399,17.7098249 C77.0124561,26.9242786 74.63079,33.4624625 73.3776417,37.3243766 C71.4966523,43.1211524 70.766603,47.9019188 71.187494,51.6666756 C72.4497416,62.9571423 75.9615379,66.6549883 72.9191677,93.6625158 C71.7297315,104.2213 65.0514248,119.085548 63.7627342,130.858813 C61.7551793,149.199504 66.691742,155.544358 65.4551587,158.57778 C63.7627342,162.729411 45.6998399,158.914195 36.6605708,168.333333 C33.749477,162.729411 44.8091596,142.970211 44.8091596,139.952077 C44.8091596,136.933942 45.1857613,114.267714 54.4742478,97.6409981 C60.6665721,86.5565206 63.0326187,70.3422715 61.5723876,48.9982509 C46.0098496,46.0140877 34.6272528,42.1227963 27.4245973,37.3243766 C20.2219418,32.525957 11.0804094,22.1736046 0,6.26731944 C1.6531614,2.08910648 3.5489535,-2.79197646e-14 5.68737632,-2.84217094e-14 C8.89501054,-2.84217094e-14 30.6277753,19.6701841 47.4304749,22.0563479 C54.4742478,23.0566392 60.1305233,18.9053948 65.4551587,17.7098249 C73.9260988,15.8077979 80.0949832,15.879957 81.1217488,15.5296698 C82.2365266,15.1493567 82.7884838,15.4337558 82.7776205,16.382867 L80.5226399,17.7098249 Z" id="path-40"></path>
        <linearGradient x1="57.0511553%" y1="66.2072835%" x2="64.9415644%" y2="-15.737134%" id="linearGradient-42">
            <stop stop-color="#8D8D8D" stop-opacity="0" offset="0%"></stop>
            <stop stop-color="#000000" offset="100%"></stop>
        </linearGradient>
        <linearGradient x1="-78.2913918%" y1="-41.5527805%" x2="118.663922%" y2="100%" id="linearGradient-43">
            <stop stop-color="#8D8D8D" stop-opacity="0" offset="0%"></stop>
            <stop stop-color="#858585" stop-opacity="0.0585579121" offset="55.4010122%"></stop>
            <stop stop-color="#000000" offset="100%"></stop>
        </linearGradient>
    </defs>
    <g id="Welcome" stroke="none" stroke-width="1" fill="none" fill-rule="evenodd">
        <g id="Developer-Sign-Up" transform="translate(-800.000000, 0.000000)">
            <g id="Group-12" transform="translate(800.000000, 0.000000)">
                <g id="Path-20">
                    <mask id="mask-2" fill="white">
                        <use xlink:href="#path-1"></use>
                    </mask>
                    <use id="Mask" fill="#000000" xlink:href="#path-1"></use>
                    <polygon id="Path-8" fill="url(#linearGradient-3)" mask="url(#mask-2)" points="799.5 0.5 516.488919 0.5 -1.70530257e-13 0.5 287 235 408 182 490.18 235.48 714.5 118.75 799.5 182"></polygon>
                    <polygon id="Path-9" fill="url(#linearGradient-3)" mask="url(#mask-2)" points="714 119.5 0 489.5 800.510855 637.5 800.510855 182.5"></polygon>
                    <g id="Group" mask="url(#mask-2)">
                        <g transform="translate(0.000000, 415.000000)">
                            <g id="plant" stroke-width="1" fill="none" transform="translate(762.133586, 174.887120) rotate(-1.000000) translate(-762.133586, -174.887120) translate(739.633586, 138.387120)">
                                <path d="M10.8064315,72.8258285 C10.8064315,63.3412426 18.7347,33.9894947 29.4363398,17.9289139" id="stem" stroke="#2C2C2C" stroke-width="3" stroke-linecap="round"></path>
                                <path d="M20.1656274,23.5510152 C21.999314,20.9748696 22.9161573,18.0978786 22.9161573,14.920042 C22.9161573,10.1532871 21.6847031,6.2890688 20.1656274,6.2890688 C18.6465517,6.2890688 17.4150975,10.1532871 17.4150975,14.920042 C17.4150975,18.0978786 18.3319408,20.9748696 20.1656274,23.5510152 Z" id="leaf" fill="#2C2C2C" transform="translate(20.165627, 14.920042) rotate(-30.000000) translate(-20.165627, -14.920042) "></path>
                                <path d="M35.8476233,32.3574415 C37.6813099,29.781296 38.5981532,26.9043049 38.5981532,23.7264683 C38.5981532,18.9597134 37.366699,15.0954951 35.8476233,15.0954951 C34.3285476,15.0954951 33.0970934,18.9597134 33.0970934,23.7264683 C33.0970934,26.9043049 34.0139367,29.781296 35.8476233,32.3574415 Z" id="leaf" fill="#2C2C2C" transform="translate(35.847623, 23.726468) rotate(88.000000) translate(-35.847623, -23.726468) "></path>
                                <path d="M30.7259469,44.8770949 C32.5596335,42.3009494 33.4764768,39.4239583 33.4764768,36.2461217 C33.4764768,31.4793669 32.2450226,27.6151485 30.7259469,27.6151485 C29.2068712,27.6151485 27.975417,31.4793669 27.975417,36.2461217 C27.975417,39.4239583 28.8922603,42.3009494 30.7259469,44.8770949 Z" id="leaf" fill="#2C2C2C" transform="translate(30.725947, 36.246122) rotate(91.000000) translate(-30.725947, -36.246122) "></path>
                                <path d="M26.5523089,57.0178885 C28.3859956,54.4417429 29.3028389,51.5647518 29.3028389,48.3869153 C29.3028389,43.6201604 28.0713847,39.7559421 26.5523089,39.7559421 C25.0332332,39.7559421 23.801779,43.6201604 23.801779,48.3869153 C23.801779,51.5647518 24.7186223,54.4417429 26.5523089,57.0178885 Z" id="leaf" fill="#2C2C2C" transform="translate(26.552309, 48.386915) rotate(91.000000) translate(-26.552309, -48.386915) "></path>
                                <path d="M35.0438043,17.5132758 C36.8774909,14.9371303 37.7943342,12.0601392 37.7943342,8.88230261 C37.7943342,4.11554774 36.56288,0.251329419 35.0438043,0.251329419 C33.5247286,0.251329419 32.2932744,4.11554774 32.2932744,8.88230261 C32.2932744,12.0601392 33.2101177,14.9371303 35.0438043,17.5132758 Z" id="leaf" fill="#2C2C2C" transform="translate(35.043804, 8.882303) rotate(33.000000) translate(-35.043804, -8.882303) "></path>
                                <path d="M13.3416179,36.7954464 C15.1753045,34.2193009 16.0921478,31.3423098 16.0921478,28.1644732 C16.0921478,23.3977184 14.8606936,19.5335 13.3416179,19.5335 C11.8225421,19.5335 10.591088,23.3977184 10.591088,28.1644732 C10.591088,31.3423098 11.5079313,34.2193009 13.3416179,36.7954464 Z" id="leaf" fill="#2C2C2C" transform="translate(13.341618, 28.164473) rotate(-41.000000) translate(-13.341618, -28.164473) "></path>
                                <path d="M8.21994148,50.0738667 C10.0536281,47.4977212 10.9704714,44.6207301 10.9704714,41.4428935 C10.9704714,36.6761387 9.7390172,32.8119203 8.21994148,32.8119203 C6.70086575,32.8119203 5.46941156,36.6761387 5.46941156,41.4428935 C5.46941156,44.6207301 6.38625486,47.4977212 8.21994148,50.0738667 Z" id="leaf" fill="#2C2C2C" transform="translate(8.219941, 41.442894) rotate(-47.000000) translate(-8.219941, -41.442894) "></path>
                            </g>
                            <g id="plant-copy" stroke-width="1" fill="none" transform="translate(708.687242, 137.587153) scale(-1, 1) rotate(-1.000000) translate(-708.687242, -137.587153) translate(666.187242, 68.587153)">
                                <path d="M20.4001638,137.479132 C20.4001638,119.574322 35.3669894,64.1646835 55.5693293,33.8458426" id="stem" stroke="#2C2C2C" stroke-width="6" stroke-linecap="round"></path>
                                <path d="M38.0682652,44.4591321 C41.5298619,39.5959365 43.2606602,34.1648107 43.2606602,28.1657548 C43.2606602,19.1671709 40.9359458,11.8723774 38.0682652,11.8723774 C35.2005847,11.8723774 32.8758703,19.1671709 32.8758703,28.1657548 C32.8758703,34.1648107 34.6066686,39.5959365 38.0682652,44.4591321 Z" id="leaf" fill="#2C2C2C" transform="translate(38.068265, 28.165755) rotate(-30.000000) translate(-38.068265, -28.165755) "></path>
                                <path d="M67.6724213,61.0837264 C71.1340179,56.2205307 72.8648162,50.7894049 72.8648162,44.790349 C72.8648162,35.7917652 70.5401018,28.4969716 67.6724213,28.4969716 C64.8047407,28.4969716 62.4800263,35.7917652 62.4800263,44.790349 C62.4800263,50.7894049 64.2108246,56.2205307 67.6724213,61.0837264 Z" id="leaf" fill="#2C2C2C" transform="translate(67.672421, 44.790349) rotate(88.000000) translate(-67.672421, -44.790349) "></path>
                                <path d="M58.0038237,84.7180759 C61.4654204,79.8548803 63.1962187,74.4237545 63.1962187,68.4246986 C63.1962187,59.4261147 60.8715043,52.1313212 58.0038237,52.1313212 C55.1361431,52.1313212 52.8114287,59.4261147 52.8114287,68.4246986 C52.8114287,74.4237545 54.542227,79.8548803 58.0038237,84.7180759 Z" id="leaf" fill="#2C2C2C" transform="translate(58.003824, 68.424699) rotate(91.000000) translate(-58.003824, -68.424699) "></path>
                                <path d="M50.124914,107.637221 C53.5865107,102.774026 55.317309,97.3429 55.317309,91.3438441 C55.317309,82.3452602 52.9925946,75.0504667 50.124914,75.0504667 C47.2572335,75.0504667 44.9325191,82.3452602 44.9325191,91.3438441 C44.9325191,97.3429 46.6633174,102.774026 50.124914,107.637221 Z" id="leaf" fill="#2C2C2C" transform="translate(50.124914, 91.343844) rotate(91.000000) translate(-50.124914, -91.343844) "></path>
                                <path d="M66.1549879,33.0612093 C69.6165846,28.1980136 71.3473829,22.7668879 71.3473829,16.767832 C71.3473829,7.76924813 69.0226685,0.474454615 66.1549879,0.474454615 C63.2873074,0.474454615 60.9625929,7.76924813 60.9625929,16.767832 C60.9625929,22.7668879 62.6933913,28.1980136 66.1549879,33.0612093 Z" id="leaf" fill="#2C2C2C" transform="translate(66.154988, 16.767832) rotate(33.000000) translate(-66.154988, -16.767832) "></path>
                                <path d="M25.1860375,69.4617027 C28.6476342,64.598507 30.3784325,59.1673812 30.3784325,53.1683253 C30.3784325,44.1697415 28.0537181,36.874948 25.1860375,36.874948 C22.318357,36.874948 19.9936425,44.1697415 19.9936425,53.1683253 C19.9936425,59.1673812 21.7244409,64.598507 25.1860375,69.4617027 Z" id="leaf" fill="#2C2C2C" transform="translate(25.186038, 53.168325) rotate(-41.000000) translate(-25.186038, -53.168325) "></path>
                                <path d="M15.51744,94.5284371 C18.9790366,89.6652414 20.7098349,84.2341156 20.7098349,78.2350597 C20.7098349,69.2364759 18.3851205,61.9416824 15.51744,61.9416824 C12.6497594,61.9416824 10.325045,69.2364759 10.325045,78.2350597 C10.325045,84.2341156 12.0558433,89.6652414 15.51744,94.5284371 Z" id="leaf" fill="#2C2C2C" transform="translate(15.517440, 78.235060) rotate(-47.000000) translate(-15.517440, -78.235060) "></path>
                            </g>
                            <path d="M0.500325533,173.533225 C64.8399277,129.61073 149.174774,111.900047 253.504864,120.401175 C333.490159,126.918616 468,155.5 637.5,190.5 C661.002418,195.353007 681.666682,200.312357 700.5,204 C720.4839,207.912932 739.043723,211.226151 755.718371,214.308785 C769.525354,216.861276 782.03982,219.356273 793,221 C797.917219,221.737448 804.250552,222.404115 812,223 L820,505 L0,505 L0.500325533,173.533225 Z" id="Background-base" fill="url(#linearGradient-5)" opacity="0.118359375"></path>
                            <g id="Table" stroke-width="1" fill="none" transform="translate(24.444444, 240.000000)">
                                <rect id="Table-base" fill="url(#linearGradient-6)" fill-rule="nonzero" x="0" y="0.400665643" width="218.333333" height="8.88376856"></rect>
                                <rect id="Table-base" fill="url(#linearGradient-6)" fill-rule="nonzero" x="11.1111111" y="9.20444444" width="6.66666667" height="109.99488"></rect>
                                <rect id="Table-base" fill="url(#linearGradient-7)" fill-rule="nonzero" x="200.555556" y="9.44444444" width="6.66666667" height="109.99488"></rect>
                                <g id="Storage" transform="translate(17.222222, 8.888889)" fill-rule="nonzero">
                                    <rect id="Storage-base" fill="url(#linearGradient-6)" x="0" y="0" width="87.2222222" height="67.7777778"></rect>
                                    <g id="Storage-base" transform="translate(4.444444, 3.888889)">
                                        <rect id="Storeage-base" fill="url(#linearGradient-4)" x="0" y="0" width="77.7777778" height="27.7777778"></rect>
                                        <rect id="Rectangle-13-Copy-2" fill="#000000" x="15.0214592" y="4.35073628" width="47.7348593" height="3.68139224"></rect>
                                    </g>
                                    <g id="Storage-base" transform="translate(4.444444, 36.111111)">
                                        <rect id="Storeage-base" fill="url(#linearGradient-4)" x="0" y="0" width="77.7777778" height="27.7777778"></rect>
                                        <rect id="Rectangle-13-Copy-2" fill="#000000" x="15.0214592" y="4.35073628" width="47.7348593" height="3.68139224"></rect>
                                    </g>
                                </g>
                            </g>
                            <g id="Table-lamp" stroke-width="1" fill="none" transform="translate(78.611111, 205.833333) scale(-1, 1) translate(-78.611111, -205.833333) translate(37.222222, 171.111111)">
                                <path d="M20,15.6068637 C28.0199104,2.56063766 37.8890833,-2.30630181 49.6075185,1.00604523 C61.3259538,4.31839228 66.353376,26.0200809 64.6897853,66.1111111" id="Table-lamp-base" stroke="#A4C1EB" stroke-width="4" stroke-linecap="round" stroke-linejoin="round" fill-rule="nonzero"></path>
                                <path d="M51.6666667,66.1111111 L79.4444444,66.1111111 C81.2853936,66.1111111 82.7777778,67.6034953 82.7777778,69.4444444 L48.3333333,69.4444444 L48.3333333,69.4444444 C48.3333333,67.6034953 49.8257175,66.1111111 51.6666667,66.1111111 Z" id="Table-lamp-base" fill="url(#linearGradient-8)" fill-rule="nonzero"></path>
                                <path d="M19.4444444,10 L19.4444444,10 C21.8990433,10 23.8888889,11.9898456 23.8888889,14.4444444 L23.8888889,22.2222222 L15,22.2222222 L15,14.4444444 C15,11.9898456 16.9898456,10 19.4444444,10 Z" id="Table-lamp-base" fill="url(#linearGradient-8)" fill-rule="nonzero" transform="translate(19.444444, 16.111111) rotate(-330.000000) translate(-19.444444, -16.111111) "></path>
                                <path d="M14.7222222,17.2222222 L14.7222222,17.2222222 C21.3189567,17.2222222 26.6666667,22.5699322 26.6666667,29.1666667 L26.6666667,32.7777778 L2.77777778,32.7777778 L2.77777778,29.1666667 C2.77777778,22.5699322 8.12548771,17.2222222 14.7222222,17.2222222 Z" id="Table-lamp-base" fill="url(#linearGradient-9)" fill-rule="nonzero" transform="translate(14.722222, 25.000000) rotate(-330.000000) translate(-14.722222, -25.000000) "></path>
                            </g>
                            <g id="Window" stroke-width="1" fill="none" transform="translate(177.777778, 0.000000)">
                                <path d="M44.4444444,61.1111111 L462.777778,61.1111111 L462.777778,312.111111 C462.777778,314.32025 460.986917,316.111111 458.777778,316.111111 L48.4444444,316.111111 C46.2353054,316.111111 44.4444444,314.32025 44.4444444,312.111111 L44.4444444,61.1111111 Z" id="Window-base" fill="url(#linearGradient-10)" fill-rule="nonzero"></path>
                                <rect id="UI-base" fill="#000000" fill-rule="nonzero" x="253.888889" y="98.3333333" width="180.555556" height="37.2222222"></rect>
                                <g id="UI" transform="translate(253.888889, 147.222222)" fill-rule="nonzero" stroke="#8A8D90" stroke-dasharray="4,10" stroke-linecap="round" stroke-linejoin="round">
                                    <path d="M4,0 L176.555556,0 C178.764695,-4.05812251e-16 180.555556,1.790861 180.555556,4 L180.555556,126 C180.555556,128.209139 178.764695,130 176.555556,130 L4,130 C1.790861,130 2.705415e-16,128.209139 0,126 L0,4 C-2.705415e-16,1.790861 1.790861,4.05812251e-16 4,0 Z" id="Rectangle-2-Copy-3"></path>
                                    <path d="M5.33378952,124.545231 C5.33378952,124.545231 63.7472752,84.5116352 180.574247,4.44444444" id="Path-3"></path>
                                </g>
                                <g id="UI" transform="translate(78.333333, 207.222222)" fill="#000000" fill-rule="nonzero">
                                    <rect id="Rectangle-2-Copy-4" x="0" y="0" width="104.444444" height="32.2222222"></rect>
                                    <rect id="Rectangle-2-Copy-5" x="0" y="43.3333333" width="148.888889" height="32.2222222"></rect>
                                </g>
                                <g id="UI" transform="translate(72.222222, 88.333333)" fill-rule="nonzero" stroke="#8A8D90" stroke-dasharray="4,6" stroke-linecap="round" stroke-linejoin="round">
                                    <path d="M4,0 L152.111111,0 C154.32025,-4.05812251e-16 156.111111,1.790861 156.111111,4 L156.111111,97.6666667 C156.111111,99.8758057 154.32025,101.666667 152.111111,101.666667 L4,101.666667 C1.790861,101.666667 8.11897984e-15,99.8758057 0,97.6666667 L-8.8817842e-16,4 C-1.15871992e-15,1.790861 1.790861,4.05812251e-16 4,0 Z" id="Rectangle-2"></path>
                                </g>
                                <g id="Titlebar" fill-rule="nonzero">
                                    <g id="Title-bar">
                                        <use fill="#EDEDED" xlink:href="#path-11"></use>
                                        <use fill="black" fill-opacity="1" filter="url(#filter-12)" xlink:href="#path-11"></use>
                                    </g>
                                    <g id="Title-bar-button" transform="translate(13.888889, 15.000000)">
                                        <circle id="Close-restore" fill="#F43939" cx="6.94444444" cy="6.94444444" r="6.94444444"></circle>
                                        <circle id="Maximaze" fill="#F5A623" cx="28.6111111" cy="6.94444444" r="6.94444444"></circle>
                                        <circle id="Minimaze" fill="#0CCB56" cx="50.2777778" cy="6.94444444" r="6.94444444"></circle>
                                    </g>
                                </g>
                            </g>
                            <g id="Stairs" stroke-width="1" fill="none" transform="translate(410.555556, 294.224444)">
                                <path d="M8.88888889,33.3333333 L78.8888889,33.3333333 L78.8888889,40 L8.88888889,40 L8.88888889,33.3333333 Z M8.88888889,57.2222222 L78.8888889,57.2222222 L78.8888889,63.8888889 L8.88888889,63.8888889 L8.88888889,57.2222222 Z M8.88888889,81.1111111 L78.8888889,81.1111111 L78.8888889,87.7777778 L8.88888889,87.7777778 L8.88888889,81.1111111 Z" id="Stairs-base" fill="url(#linearGradient-6)" fill-rule="nonzero"></path>
                                <polygon id="Stairs-base" fill="url(#linearGradient-6)" fill-rule="nonzero" points="11.1111111 11.6666667 20.5555556 11.6666667 9.44444444 115.555556 0 115.555556"></polygon>
                                <polygon id="Stairs-base" fill="url(#linearGradient-6)" fill-rule="nonzero" transform="translate(77.500000, 63.611111) scale(-1, 1) translate(-77.500000, -63.611111) " points="78.3333333 11.6666667 87.7777778 11.6666667 76.6666667 115.555556 67.2222222 115.555556"></polygon>
                                <rect id="Stairs-base" fill="url(#linearGradient-6)" fill-rule="nonzero" x="3.88888889" y="0" width="81.6666667" height="15"></rect>
                            </g>
                            <g id="Man" stroke-width="1" fill="none" transform="translate(527.777778, 82.777778)">
                                <g id="Hand" transform="translate(83.311473, 50.548944) rotate(9.000000) translate(-83.311473, -50.548944) translate(61.811473, 4.048944)" fill-rule="nonzero">
                                    <path d="M36.5993649,12.3532087 C25.2159238,44.6914595 16.4025025,45.2262595 10.0331233,49.2885246 C5.78687058,51.9967013 3.28920131,49.419616 2.54011556,41.5572686 C15.4344331,26.1111373 21.4147899,15.7050368 20.4811862,10.3389672 C19.0807806,2.28986276 42.8055745,-5.27748471 36.5993649,12.3532087 Z" fill="#A6A6A6" transform="translate(20.088462, 25.968248) rotate(-185.000000) translate(-20.088462, -25.968248) "></path>
                                    <path d="M9.99455513,49.435042 C3.5074471,46.7502148 1.96669803,40.180489 5.3723079,29.7258646 C6.57939297,26.0203254 11.6659623,25.0085827 18.9285301,29.7258646 C27.6345377,35.3807093 44.6342583,60.2753956 38.4280487,77.906089 C38.3710301,77.8041464 37.554345,79.5368095 37.7011096,80.6436529 C37.86644,81.8905126 38.9826534,82.6268402 38.6045406,84.4587393 C37.9240311,87.7557038 35.5337794,91.0696672 35.3719844,91.055512 C31.9515148,90.7562597 27.3145327,87.6504391 22.8959172,86.4621441 C19.7975593,85.6289049 17.057681,85.3891966 15.4231514,84.2633575 C14.7803747,83.8206227 15.3009678,78.709102 16.7385349,76.0085024 C17.4056994,74.7551738 19.7785456,75.2883936 19.5965784,75.5116112 C21.0542713,65.2880955 17.8535969,56.5959058 9.99455513,49.435042 Z" id="Sleeve" fill="url(#linearGradient-13)" transform="translate(21.687279, 58.805776) rotate(-185.000000) translate(-21.687279, -58.805776) "></path>
                                </g>
                                <g id="Vest" transform="translate(107.790219, 176.029548) scale(-1, 1) rotate(-15.000000) translate(-107.790219, -176.029548) translate(40.290219, 12.029548)" fill-rule="nonzero">
                                    <path d="" id="Path-2" stroke="#979797" stroke-width="0.8"></path>
                                    <path d="" id="Path-7" stroke="#979797" stroke-width="0.8"></path>
                                    <g id="Group-10" transform="translate(101.068566, 42.971448) scale(-1, 1) rotate(-18.000000) translate(-101.068566, -42.971448) translate(77.568566, 5.971448)">
                                        <g id="Head">
                                            <path d="M17.4297455,49.5153898 C15.9566695,55.9801957 14.7602114,60.0028301 13.840371,61.5832931 C12.4606104,63.9539876 -1.97015047,67.0071434 8.96501528,72.5897632 C16.2551258,76.3115097 25.3719211,72.2456732 36.3154013,60.3922536 C33.41446,58.8252091 31.9639893,56.6206373 31.9639893,53.7785383 C31.9639893,50.9364393 32.5434013,48.5020341 33.7022252,46.4753228 C40.0060303,34.8181778 42.6766846,27.8244924 41.7141881,25.4942666 C40.7516916,23.1640407 35.5777262,19.1934693 26.1922917,13.5825522 C14.2302029,17.1057126 8.18972557,20.0013418 8.0708596,22.2694397 C7.89256063,25.6715866 9.19269334,25.4872557 9.07285791,27.7738521 C8.95302247,30.0604485 7.43504695,31.2429424 7.53267654,32.5385842 C8.11055625,40.2076229 11.1741921,44.9864393 11.7856716,46.7622301 C12.5004572,48.838031 14.3818152,49.7557509 17.4297455,49.5153898 Z" id="Face" fill="#D2D2D2"></path>
                                            <g id="Path-51-Copy" transform="translate(0.000000, 0.000000)" fill="#000000">
                                                <path d="M29.1774888,0.319700681 C33.0229193,-0.802181541 40.5499657,4.28687792 42.0606037,6.62714677 C44.0491054,9.70771832 44.4912373,12.8582433 43.3869995,16.0787216 C45.1765191,19.9431759 45.9747746,23.1479759 45.7817662,25.6931216 C45.5693081,28.4947432 47.6057122,31.5413904 46.2216592,35.0031639 C45.5852633,36.5949082 42.6334329,38.2438985 42.1585196,39.5195148 C39.1354955,47.6393523 36.9684702,47.5257833 34.6424934,48.3882215 C31.9697516,49.3792352 30.5766986,45.588175 28.5173934,40.601647 C32.9936617,38.7685206 33.5040156,32.6094754 30.8265991,30.9726668 C29.4106682,30.1070533 28.6149314,31.309543 26.9577492,35.8538024 C25.4813273,39.9023882 27.0012668,41.8444913 24.2427024,46.081033 C21.9000122,49.6788843 15.7225843,50.1240622 14.5915119,49.6781459 C8.58781332,47.3112356 8.30492897,40.6650263 8.4064151,38.6700193 C8.41676186,38.4666234 8.50933452,36.9581892 11.1626205,37.0891621 C13.8159064,37.220135 21.0399161,41.7303746 24.0329314,36.8986896 C25.0824921,35.2043626 25.4619592,32.3587028 25.1713327,28.36171 C22.9373244,26.9575266 21.5109794,25.8290101 20.8922979,24.9761603 C18.9585254,22.3104636 18.6005109,19.6308521 17.1895156,19.8016934 C7.66902452,20.9544208 2.64252179,25.0935921 0.648719786,18.9348271 C-1.34508222,12.776062 1.78535772,12.9928048 3.92279916,10.1490134 C5.92841686,7.4806088 5.81276812,3.50392705 8.43116163,3.64115124 C16.4450776,4.06114278 21.7730537,2.47990205 29.1774888,0.319700681 Z M9.9341648,40.9273618 C10.3334267,43.7429627 11.0760313,45.1792191 12.1619785,45.2361312 C13.0954502,45.2850524 11.9546566,44.2472156 12.6345349,44.2828465 C13.3144132,44.3184775 13.7749632,45.6797244 14.1304476,45.6983546 C15.6034672,45.7755523 16.0185345,44.548577 15.3756496,42.0174286 C13.9799487,40.9509551 12.8109456,40.3512058 11.8686402,40.2181807 C10.9263348,40.0851556 10.2815097,40.3215493 9.9341648,40.9273618 Z" id="Combined-Shape"></path>
                                            </g>
                                        </g>
                                    </g>
                                    <g id="Foot" transform="translate(67.147689, 215.170058) rotate(-345.000000) translate(-67.147689, -215.170058) translate(26.147689, 109.670058)">
                                        <path d="M25.2493052,176.766392 L25.2481737,188.771132 C23.1890799,191.406519 20.6466523,192.724212 17.6208907,192.724212 C14.595129,192.724212 12.2779274,191.958746 10.6692858,190.427814 L9.5386199,177.963228 L25.2493052,176.766392 Z" id="leg" fill="#A6A6A6" transform="translate(17.393963, 184.745302) scale(-1, 1) translate(-17.393963, -184.745302) "></path>
                                        <path d="M39.9033862,188.116069 C40.9454346,187.869027 41.342494,191.341382 41.3878313,194.912549 C41.4043362,196.21262 41.2276502,198.241052 40.8577731,200.997845 C40.7062037,202.12754 40.0386359,203.087595 39.2476702,203.313397 C31.600225,205.496568 21.1612479,210.002916 18.0375581,210.279965 C16.2868332,210.435242 13.6775376,210.068354 10.2096714,209.179301 L10.2096783,209.179274 C8.9951862,208.867916 8.14587399,207.773401 8.14587399,206.519632 L8.14587399,206.519632 C8.14587399,205.196936 8.76086918,203.949428 9.81001974,203.143941 L18.5581731,196.42753 C21.6185892,192.205959 23.7878182,189.435472 25.06586,188.116069 C25.721608,187.439099 26.7799764,193.346515 31.3132395,192.271799 C35.8465026,191.197084 38.8613378,188.363111 39.9033862,188.116069 Z" id="Shoes" fill="#3378E4" transform="translate(24.767381, 199.188228) scale(-1, 1) translate(-24.767381, -199.188228) "></path>
                                        <path d="M62.0285453,169.548699 L62.0274139,181.55344 C59.9683201,184.188826 57.4258924,185.506519 54.4001308,185.506519 C51.3743692,185.506519 49.0571676,184.741053 47.4485259,183.210121 L46.3178601,170.745535 L62.0285453,169.548699 Z" id="leg" fill="#A6A6A6" transform="translate(54.173203, 177.527609) scale(-1, 1) translate(-54.173203, -177.527609) "></path>
                                        <path d="M80.4854086,179.388258 C81.7694516,179.388258 81.7694516,184.094592 81.8253176,187.676507 C81.8456554,188.980491 81.6279376,190.967035 81.172164,193.63614 C80.9853957,194.729902 80.1627989,195.531694 79.1881475,195.56998 C58.5806946,196.379473 45.1221146,196.357609 45.0843835,195.504388 C43.9867577,191.621878 48.5624576,188.05091 58.8114833,184.791484 C61.6941125,182.75742 63.9228477,181.232181 65.4976888,180.215767 C66.3057209,179.694257 66.8703125,183.910737 72.456334,183.910737 C78.0423554,183.910737 79.2013657,179.388258 80.4854086,179.388258 Z" id="Shoes" fill="#3378E4" transform="translate(63.375867, 187.774695) scale(-1, 1) translate(-63.375867, -187.774695) "></path>
                                        <path d="M33.2541729,117.426449 C28.3023449,164.964862 28.3023449,180.481069 27.2459791,183.505771 C25.6614303,188.042823 8.43518557,188.042593 7.3112941,181.764525 C6.56203312,177.579146 6.56133968,154.275054 7.30921378,111.852247 C3.90461216,66.7687372 0.19117141,60.0227015 0.403278564,49.4521917 C0.615385717,38.8816819 4.65344075,22.5127528 12.5174436,0.345404493 L33.2541729,29.0858928 C35.277618,25.2759351 37.7631875,20.6415284 40.7108813,15.1826728 C51.4077949,8.39686177 54.4245537,23.0650825 57.5524664,37.0359467 C60.6803792,51.0068109 71.5327881,86.2390163 69.4769826,113.415121 C65.7358088,162.870445 65.0098889,174.080173 63.953523,177.104875 C62.3689742,181.641927 45.1427295,181.641697 44.018838,175.363629 C43.269577,171.17825 43.2709639,159.849256 44.018838,117.426449 C40.6947252,100.93329 37.2993818,79.895451 34.4053266,69.3975695 C36.3799027,75.0930295 35.9961848,91.1026559 33.2541729,117.426449 Z" id="Pants" fill="url(#linearGradient-14)"></path>
                                    </g>
                                    <g id="Body" transform="translate(39.444444, 58.333333)" fill="url(#linearGradient-15)">
                                        <path d="M62.9351351,6.95617344 C62.8925642,9.11705636 62.9821736,10.4893482 63.2039633,11.0730489 C63.4787951,11.7963442 64.846269,12.7501757 64.7402253,12.8639169 C64.249011,13.3907875 63.5647295,20.6025432 62.6106427,20.8116271 C61.281434,21.1029173 62.6639897,13.1801588 60.4403826,13.2485182 C56.9281428,13.3564934 52.218925,9.65285212 45.9786354,1.58840172 C45.8831211,1.46496665 47.1950372,0.566143523 47.0391335,0.362216661 C46.97467,0.277896393 46.3314689,0.289449557 45.1095301,0.396876155 C43.8946383,2.09019399 42.9733809,3.03640348 42.3457578,3.23550464 C34.6924344,5.66337192 29.0347938,6.08012417 25.6894575,8.36459871 C21.9326118,10.9300863 19.2507338,24.1155703 17.6438234,47.9210509 C9.2137263,71.2456451 3.38005987,86.3461365 0.142824142,93.2225252 C20.2413578,106.320518 41.0045271,110.159334 62.4323318,104.738976 C67.9716647,71.3517293 71.7988825,49.4771146 73.9139851,39.1151317 C76.0290878,28.7531488 74.6748256,20.9714845 69.8511986,15.7701387 L62.9351351,6.95617344 Z" id="Path-5"></path>
                                    </g>
                                    <path d="M93.7236063,79.0016843 C88.5914215,76.9657021 76.7874036,69.4646401 80.5564988,61.9490506 C81.0568612,61.9795698 81.9146134,61.7417208 82.4236842,61.3086826 C83.3633519,60.5093595 84.0921824,59.1956399 84.7434207,58.8557567 C85.4199767,58.7124085 86.1553932,58.7803494 86.561926,58.6485174 C86.899493,58.5390499 86.948188,58.2695604 87.1151064,57.8303777 C80.7703335,56.5183585 68.6747202,62.3368368 64.0474935,65.496693 C60.2906478,68.0621805 55.173587,82.7575534 48.6963112,109.582812 C45.2582397,122.413869 41.9890989,132.303909 38.8888889,139.252931 C44.720289,143.05319 61.2109696,154.871266 66.6085547,152.400974 C89.1159863,142.100086 94.9269394,82.0667978 93.7236063,79.0016843 Z" id="Vest-base" fill="url(#linearGradient-16)"></path>
                                    <path d="M48.9970524,129.979944 L60.1807571,134.867068 C61.7506364,135.553083 63.5830855,135.163168 64.7376639,133.897432 L70.627082,127.441009 L48.9970524,129.979944 Z" id="saku" fill="#000000"></path>
                                    <path d="M110.112951,81.9025429 C106.176552,78.8425821 105.833283,74.527467 110.005465,70.1426528 C110.314796,69.8175568 111.474567,68.220087 113.484776,65.3502436 C113.648167,64.453119 113.638654,63.6641648 113.456239,62.9833809 C110.765794,64.0082205 104.392311,68.9425175 101.610743,76.1521227 C99.2031011,82.3925406 101.293306,108.847443 102.269921,130.950341 C102.699185,140.665492 98.0021479,148.016541 99.782676,149.176891 C105.614076,152.97715 109.765502,154.466294 114.767547,153.126 C119.769592,151.785706 112.950864,134.37185 109.959863,116.237622 C107.632156,102.124907 110.784052,84.8842017 110.112951,81.9025429 Z" id="Vest-base" fill="#3378E4" transform="translate(107.962811, 108.296336) scale(-1, 1) translate(-107.962811, -108.296336) "></path>
                                </g>
                                <g id="Hand" transform="translate(80.000000, 78.333333)" fill-rule="nonzero">
                                    <path d="M34.3631335,86.904512 C34.1592343,86.9657368 33.951399,87.0273275 33.7396276,87.0892841 L28.3851992,87.9703664 C22.1700699,91.2397814 18.8321023,92.7594541 18.3712964,92.5293844 C17.9104906,92.2993148 18.6784501,91.2868121 20.6751749,89.4918764 C16.7215579,89.4818536 14.5714556,89.277538 14.2248679,88.8789297 C13.8782803,88.4803214 15.490826,87.7440004 19.0625052,86.6699667 C14.8439215,85.9062031 12.6738203,85.2435364 12.5522019,84.6819664 C12.4305834,84.1203965 14.6006845,83.6079123 19.0625052,83.1445138 C15.3311596,82.1115925 13.7186138,81.3659747 14.2248679,80.9076604 C14.731122,80.4493461 17.7999968,80.4006908 23.4314923,80.7616945 C21.9296326,78.454247 21.5145127,77.2277284 22.1861326,77.0821385 C22.8577525,76.9365486 24.9979523,77.8556212 28.6067322,79.8393564 C30.0333923,79.9318034 31.3484498,80.0346254 32.5519048,80.1478225 C53.0108893,70.6547857 64.2641587,63.3908256 66.3117175,58.3559401 C69.3894817,50.7878104 71.0794565,47.7669301 73.4559277,33.0018167 C75.8323988,18.2367032 88.7733217,16.5838435 94.6442047,22.3034487 C101.254738,28.7436449 94.9825036,61.5685477 79.2549979,72.0333548 C63.5274923,82.4981619 38.7250515,87.8239549 34.8147301,87.0202853 C34.6576249,86.9879962 34.5070927,86.9494051 34.3631335,86.904512 Z" fill="#A6A6A6" transform="translate(54.898341, 55.901872) rotate(-53.000000) translate(-54.898341, -55.901872) "></path>
                                    <path d="M59.8645719,18.0440791 C62.241043,3.27896562 75.1819659,1.62610587 81.0528489,7.34571108 C87.6633819,13.7859073 81.3911477,46.6108101 65.6636421,57.0756172 C63.8499543,58.2824133 61.9155827,59.4208679 59.9064844,60.4894619 C59.6352638,60.6337179 60.3287607,61.5122334 60.1316142,61.7559953 C59.1639287,62.9524899 57.8685043,64.7719989 56.5909193,65.0566457 C46.5694864,67.2894285 38.7817908,53.0038849 44.4732249,48.9759221 C45.7538296,48.0696079 47.0335672,47.7872791 47.9965029,46.9578854 C48.2396689,46.7484421 49.1597781,47.8668008 49.3826866,47.6622627 C51.0881611,46.0973403 52.2007195,44.6759869 52.7203617,43.3982024 C55.7981258,35.8300728 57.4881007,32.8091925 59.8645719,18.0440791 Z" id="Sleeve" fill="url(#linearGradient-17)" transform="translate(63.102953, 34.792982) rotate(-53.000000) translate(-63.102953, -34.792982) "></path>
                                </g>
                            </g>
                            <g id="Plant" stroke-width="1" fill="none" transform="translate(686.000000, 309.000000)">
                                <g id="Pot" transform="translate(16.619151, 73.367472)">
                                    <path d="M29.1848509,29.9955339 C45.3031633,29.9955339 58.3696613,32.8084687 58.3696613,36.2783927 C58.3696613,39.7483304 45.3031633,42.5612377 29.1848509,42.5612377 C13.0664793,42.5612377 -1.8645877e-05,39.7483304 -1.8645877e-05,36.2783927 C-1.8645877e-05,32.8084687 13.0664793,29.9955339 29.1848509,29.9955339 Z" id="shadow" fill="#BBCFF2" opacity="0.2"></path>
                                    <g id="Ellipse-2" transform="translate(0.810690, 4.458797)">
                                        <mask id="mask-20" fill="white">
                                            <use xlink:href="#path-19"></use>
                                        </mask>
                                        <use fill="url(#linearGradient-18)" xlink:href="#path-19"></use>
                                    </g>
                                    <g id="Ellipse-1" transform="translate(3.648106, 0.000000)">
                                        <mask id="mask-23" fill="white">
                                            <use xlink:href="#path-22"></use>
                                        </mask>
                                        <use fill="url(#linearGradient-21)" xlink:href="#path-22"></use>
                                    </g>
                                </g>
                                <g id="leaves">
                                    <g id="leaf">
                                        <g transform="translate(19.051222, 0.000000)">
                                            <g id="Shape-2">
                                                <mask id="mask-26" fill="white">
                                                    <use xlink:href="#path-25"></use>
                                                </mask>
                                                <g>
                                                    <use fill="url(#linearGradient-24)" fill-rule="evenodd" xlink:href="#path-25"></use>
                                                    <use fill="black" fill-opacity="1" filter="url(#filter-27)" xlink:href="#path-25"></use>
                                                </g>
                                                <path d="M17.1461589,29.1353912 L15.1209735,19.5517992 L12.3997482,20.685577 C14.2132895,23.4458761 15.7906266,26.2407557 17.1461589,29.1353912 Z M23.7760248,60.5092735 C23.9075897,64.7086603 23.854815,69.2193301 23.6329285,74.1102091 L26.5989773,73.8680621 L23.7760248,60.5092735 Z" id="Shape-3" stroke="#489C71" stroke-width="3" fill-opacity="0" fill="#000000" opacity="0.5" style="mix-blend-mode: multiply;" mask="url(#mask-26)"></path>
                                            </g>
                                        </g>
                                        <g transform="translate(0.000000, 36.075718)">
                                            <g id="Shape-2">
                                                <mask id="mask-30" fill="white">
                                                    <use xlink:href="#path-29"></use>
                                                </mask>
                                                <g>
                                                    <use fill="url(#linearGradient-28)" fill-rule="evenodd" xlink:href="#path-29"></use>
                                                    <use fill="black" fill-opacity="1" filter="url(#filter-31)" xlink:href="#path-29"></use>
                                                </g>
                                                <path d="M37.1125231,35.9426029 L24.6964413,18.6790449 C29.4315497,23.2139726 33.406218,28.7441751 37.1125231,35.9426029 Z M24.6964413,18.6790449 L18.5234027,10.0959338 L16.4908057,12.2311357 C19.4861018,14.1691373 22.1971953,16.2854566 24.6964413,18.6790449 Z M37.1125231,35.9426029 C39.1019011,39.8063952 41.0139619,44.1508132 42.9248017,49.0799235 L45.5411454,47.6619208 L37.1125231,35.9426029 Z" id="Shape-3" stroke="#489C71" stroke-width="3" fill-opacity="0" fill="#000000" opacity="0.5" style="mix-blend-mode: multiply;" mask="url(#mask-30)"></path>
                                            </g>
                                        </g>
                                        <g transform="translate(47.425383, 31.616922)">
                                            <g id="Shape-2">
                                                <mask id="mask-33" fill="white">
                                                    <use xlink:href="#path-32"></use>
                                                </mask>
                                                <g>
                                                    <use fill="url(#linearGradient-24)" fill-rule="evenodd" xlink:href="#path-32"></use>
                                                    <use fill="black" fill-opacity="1" filter="url(#filter-34)" xlink:href="#path-32"></use>
                                                </g>
                                                <path d="M4.90654429,40.4407856 C7.68188441,32.7225026 10.947035,26.6590352 15.1143059,21.4995921 L4.90654429,40.4407856 Z M15.1143059,21.4995921 C17.2808558,18.8172154 19.6912419,16.3791896 22.4034039,14.0800104 L20.1129858,12.2242028 L15.1143059,21.4995921 Z M4.90654429,40.4407856 L-1.92325232,53.1139361 L0.854061823,54.1827096 C2.10858453,49.0654394 3.43909582,44.5217926 4.90654429,40.4407856 Z" id="Shape-3" stroke="#489C71" stroke-width="3" fill-opacity="0" fill="#000000" opacity="0.5" style="mix-blend-mode: multiply;" mask="url(#mask-33)"></path>
                                            </g>
                                        </g>
                                    </g>
                                </g>
                            </g>
                            <g id="Girl" stroke-width="1" fill="none" transform="translate(191.833333, 259.055556) scale(-1, 1) translate(-191.833333, -259.055556) translate(75.333333, 90.555556)">
                                <path d="M56.6659907,243.436594 C62.2876177,251.793782 89.5956576,256.574177 138.59011,257.777778 L162.222222,257.777778 L147.1935,225.797264 L103.835512,206.111111 C66.7675376,222.637578 51.0443637,235.079405 56.6659907,243.436594 Z" id="Jacket" fill="#BF8D30" fill-rule="nonzero"></path>
                                <g id="Head" transform="translate(75.555556, 32.222222)">
                                    <path d="M26.7265276,44.3307196 C22.5771287,46.2303316 20.5684325,47.0099134 20.7004391,46.6694649 C21.1433265,45.5272465 33.6558383,41.2768086 34.1547792,38.3472238 C34.4565989,36.5750572 34.4565989,34.6058075 34.1547792,32.4394744 L44.8549736,39.2322124 C43.8877847,43.2824976 44.1725592,46.6316571 45.7092971,49.279691 C47.2460349,51.9277248 50.2669385,54.2747531 54.7720078,56.3207759 C42.3210938,67.1334681 33.2541655,72.8719624 27.5712229,73.536259 C19.0468089,74.5327038 19.9519609,67.7303026 26.7060284,57.7251872 C31.20874,51.0551102 31.2155731,46.5902877 26.7265276,44.3307196 Z" id="neck" fill="url(#linearGradient-35)"></path>
                                    <path d="M45.5985057,7.54551046 C60.998019,31.2601746 63.635347,33.6266765 62.046232,41.1973531 C58.7789167,56.7631153 13.4343012,72.8253725 7.96508809,59.3144876 C2.49587499,45.8036027 15.0315146,52.8173005 14.4265737,41.1973531 C14.2047224,36.9359441 9.44944905,27.6687317 0.160753652,13.3957157 C23.2206186,-1.64137915 38.366536,-3.59144756 45.5985057,7.54551046 Z" id="Hair" fill="url(#linearGradient-36)" fill-rule="nonzero"></path>
                                    <path d="M9.22931486,11.3939542 L13.1423329,11.3263057 C20.3862027,9.77439351 27.4055407,10.8614796 34.2003468,14.5875639 C40.995153,18.3136483 43.7655504,22.5949832 42.511539,27.4315686 L45.332172,39.1982764 C44.3607049,43.2649838 44.6432266,46.6268805 46.1797371,49.2839667 C47.7162475,51.9410529 50.7389147,54.2948164 55.2477386,56.3452572 C42.7737123,67.2094537 33.6916049,72.9771917 28.0014162,73.6484715 C19.4661331,74.6553911 20.3776182,67.8259676 27.1474246,57.7768962 C31.6606288,51.0775153 31.670923,46.5954124 27.1783071,44.3305875 C22.9324332,46.2893338 20.2429001,47.3456154 19.1097076,47.4994322 C17.5685073,47.7086312 12.9276959,41.2861272 9.69874973,33.5935824 C9.36649342,32.8020249 6.70335103,30.1803259 6.40590849,29.367715 C5.74445185,27.5606201 7.26944994,27.439119 7.05054656,25.478929 C6.8838576,23.9862976 5.49979364,21.9950955 5.82445064,19.5323884 C6.02738797,17.992994 7.16234271,15.2801826 9.22931486,11.3939542 Z" id="Face" fill="#D2D2D2" fill-rule="nonzero"></path>
                                </g>
                                <g id="Foot" transform="translate(60.000000, 163.333333)" fill-rule="nonzero">
                                    <path d="M29.3680532,151.059169 L30.8506364,160.282631 C29.0465385,162.738012 26.8189622,163.965703 24.1679075,163.965703 C21.5168528,163.965703 19.1569276,163.346601 17.0881318,162.108398 L15.6029615,152.027159 L29.3680532,151.059169 Z" id="leg" fill="#A6A6A6" transform="translate(23.226799, 157.512436) rotate(-360.000000) translate(-23.226799, -157.512436) "></path>
                                    <path d="M75.3513027,151.059169 L76.8338858,160.282631 C75.0297879,162.738012 72.8022116,163.965703 70.1511569,163.965703 C67.5001022,163.965703 65.140177,163.346601 63.0713813,162.108398 L61.586211,152.027159 L75.3513027,151.059169 Z" id="leg" fill="#A6A6A6" transform="translate(69.210048, 157.512436) rotate(-360.000000) translate(-69.210048, -157.512436) "></path>
                                    <path d="M76.8800291,159.017311 C78.0050576,159.017311 78.0050576,162.823749 78.0540052,165.720768 C78.0718245,166.775418 77.8810685,168.382116 77.4817375,170.540863 C77.3180984,171.425487 76.597371,172.073969 75.7434193,172.104934 C57.6879702,172.759644 46.8083708,172.741961 46.7753122,172.051884 C45.3327667,167.341678 46.118574,166.833612 54.3065109,163.138674 C57.634632,161.636807 60.6896002,160.919691 62.7593219,159.686592 C63.4672883,159.2648 64.9510112,162.675049 69.845266,162.675049 C74.7395208,162.675049 75.7550006,159.017311 76.8800291,159.017311 Z" id="Shoes" fill="#3378E4" transform="translate(62.123601, 165.800182) rotate(-360.000000) translate(-62.123601, -165.800182) "></path>
                                    <path d="M81.4843956,0.378144852 C81.0349267,10.5054368 81.0349267,16.155905 81.4843956,17.3295495 C82.158599,19.0900163 78.2052583,41.0545888 69.6243734,83.2232669 C70.359094,124.368203 76.4774383,146.970299 75.7437691,151.029557 C74.6432654,157.118443 61.8513289,157.118271 60.2990617,152.717797 C59.2642169,149.784148 54.9816273,125.946968 47.451293,81.2062568 L46.1297682,46.1156409 C40.8640814,55.3103246 33.4990631,67.8349674 24.0347134,83.6895696 C25.5828908,127.32815 31.4540497,150.425401 29.4125529,152.981324 C27.593082,155.259274 15.6029615,156.867109 14.8834434,152.981774 C7.58587337,122.878746 3.93748254,99.6280249 3.93827088,83.2296105 C3.93905923,66.8311961 11.4544892,39.2140409 26.4845607,0.378144852 L81.4843956,0.378144852 Z" id="Pants" fill="url(#linearGradient-37)" transform="translate(42.748168, 78.105456) rotate(-360.000000) translate(-42.748168, -78.105456) "></path>
                                    <path d="M30.8967796,159.017311 C32.0218081,159.017311 32.0218081,162.823749 32.0707558,165.720768 C32.088575,166.775418 31.8978191,168.382116 31.498488,170.540863 C31.3348489,171.425487 30.6141215,172.073969 29.7601698,172.104934 C11.7047207,172.759644 0.825121331,172.741961 0.792062766,172.051884 C-0.650482803,167.341678 0.135324527,166.833612 8.32326138,163.138674 C11.6513826,161.636807 14.7063507,160.919691 16.7760725,159.686592 C17.4840388,159.2648 18.9677617,162.675049 23.8620165,162.675049 C28.7562714,162.675049 29.7717511,159.017311 30.8967796,159.017311 Z" id="Shoes" fill="#3378E4" transform="translate(16.140351, 165.800182) rotate(-360.000000) translate(-16.140351, -165.800182) "></path>
                                    <path d="M24.0433357,83.6751255 L23.8620165,83.6225287 L39.1565628,40.3856399 C40.1761993,41.2460755 42.500601,43.1560758 46.1297682,46.1156409 C40.8656806,55.3075322 33.5035364,67.8273603 24.0433357,83.6751255 Z" id="Shadow" fill="#1D1D1D" transform="translate(34.995892, 62.030383) rotate(-360.000000) translate(-34.995892, -62.030383) "></path>
                                </g>
                                <path d="M103.22564,89.2061614 C100.138461,94.1303569 97.9984836,97.4377928 101.759449,99.2643017 C105.520414,101.090811 114.044614,96.7064137 127.332049,86.1111111 C143.392518,92.2194958 145.041086,97.0707018 148.33109,100.664729 C151.621093,104.258756 139.48866,171.380286 134.63427,175.821175 C127.58876,182.266543 116.944444,184.503827 104.038313,182.765875 C104.038313,182.765875 104.038313,182.765875 104.038313,182.765875 L104.038313,182.765875 C94.8673409,181.530904 88.4339413,173.09522 89.6689127,163.924248 C89.6983251,163.70583 89.7320442,163.488012 89.7700501,163.270924 C91.332128,154.348303 92.1132313,148.826133 92.113346,146.704412 C92.1135878,142.229616 89.7424725,131.307316 85,113.937511 L95.4465212,92.2399046 L103.22564,89.2061614 Z" id="Body" fill="url(#linearGradient-38)" fill-rule="nonzero" transform="translate(116.944444, 134.722222) rotate(-360.000000) translate(-116.944444, -134.722222) "></path>
                                <g id="Jacket" transform="translate(124.444444, 85.555556)" fill-rule="nonzero">
                                    <path d="M3.72366884,85.627057 C10.9334483,110.117937 -0.821202094,138.5791 1.93672331,152.095377 C15.6774205,153.531927 27.6757155,160.510915 37.9316084,173.03234 C42.2667688,167.4591 44.2094226,155.220158 43.7595699,136.315516 C43.0847908,107.958553 36.3176601,106.381516 35.2738102,93.4729638 C34.5779103,84.8672621 34.5779103,74.1565564 35.2738102,61.3408467 L29.0212214,12.4193382 L3.72366884,0.433890056 C-1.0828508,40.9020811 -1.0828508,69.2998034 3.72366884,85.627057 Z" fill="url(#linearGradient-39)"></path>
                                    <path d="M34.7811269,75.0943851 C29.0837811,69.2955704 23.4689557,60.7729035 19.0922935,48.2963191 C14.8576901,36.2247025 19.2761369,21.2980553 25.3952798,10.7014433 L29.0212214,12.4193382 L35.2738102,61.3408467 C35.0082197,66.2319682 34.8439919,70.816481 34.7811269,75.0943851 Z" id="Shadow" fill="#EFB84F" opacity="0.5"></path>
                                </g>
                                <g id="Hand" transform="translate(172.998068, 126.935848) scale(-1, 1) rotate(39.000000) translate(-172.998068, -126.935848) translate(143.998068, 67.935848)" fill-rule="nonzero">
                                    <path d="M16.0988556,111.046365 L14.5119689,105.941931 C10.4875371,100.32512 8.55561155,97.2760911 8.71619232,96.7948461 C8.8767731,96.313601 9.96516759,96.924171 11.9813758,98.6265561 C11.4513556,94.7669292 11.3562923,92.6406672 11.6961858,92.24777 C12.0360794,91.8548729 12.9714941,93.3275356 14.5024301,96.6657581 C14.6684242,92.4441794 15.0158756,90.2355377 15.5447843,90.039833 C16.073693,89.8441282 16.8677901,91.891597 17.9270756,96.1822391 C18.4210499,92.3992308 18.9251991,90.7233189 19.4395232,91.1545035 C19.9538473,91.5856881 20.4200808,94.5738658 20.8382238,100.119037 C22.8746545,98.3369347 24.0094288,97.7636098 24.2425467,98.3990618 C24.4756646,99.0345139 23.8750568,101.249142 22.4407234,105.042946 C23.6419389,121.120537 21.527983,123.121676 16.0988556,111.046365 Z" fill="#A6A6A6" transform="translate(16.499192, 104.421193) scale(-1, -1) rotate(68.000000) translate(-16.499192, -104.421193) "></path>
                                    <path d="M27.3205647,33.7711772 C19.8759201,22.6114287 19.8759201,14.7236957 27.3205647,10.1079781 C33.1844044,6.4723676 36.1718067,-0.34489448 37.3763003,0.0685750129 C38.4656178,0.442507692 37.8275849,7.75649318 41.4129439,10.1079781 C50.4632796,16.0437093 61.692765,44.4298289 55.241096,62.9362714 C43.4074326,96.8808227 32.6870307,97.585536 26.0657386,101.849581 C21.6515439,104.692278 19.1155556,102.82985 18.4577738,96.2622959 C30.8996724,78.0019478 36.6353575,66.0554677 35.6648292,60.4228555 C34.6943008,54.7902433 31.9128793,45.9063505 27.3205647,33.7711772 Z" id="Sleeve" fill="url(#linearGradient-39)"></path>
                                </g>
                                <path d="M14.0448515,77.7594249 L12.4609104,72.6371615 C8.44394865,67.0007301 6.51560914,63.9410514 6.67589184,63.4581254 C6.83617455,62.9751993 7.92254878,63.5879021 9.93501453,65.2962336 C9.40597817,61.423125 9.3110913,59.2894359 9.65035393,58.8951664 C9.98961655,58.5008969 10.923295,59.9787036 12.4513893,63.3285865 C12.6170753,59.0922619 12.9638818,56.8759054 13.4918087,56.679517 C14.0197356,56.4831287 14.8123587,58.5377492 15.869678,62.8433786 C16.3627354,59.0471562 16.8659488,57.3653904 17.3793182,57.7980811 C17.8926876,58.2307718 18.3580557,61.2293873 18.7754225,66.7939274 C20.8080733,65.0056006 21.9407413,64.430273 22.1734264,65.0679447 C22.4061116,65.7056163 21.8066187,67.92798 20.3749477,71.7350357 C21.5739335,87.8687856 19.4639015,89.8769153 14.0448515,77.7594249 Z" id="Hand" fill="#A6A6A6" fill-rule="nonzero" transform="translate(14.444444, 71.111111) rotate(-33.000000) translate(-14.444444, -71.111111) "></path>
                                <g id="Jacket" transform="translate(18.888889, 73.888889)">
                                    <mask id="mask-41" fill="white">
                                        <use xlink:href="#path-40"></use>
                                    </mask>
                                    <use fill="url(#linearGradient-39)" fill-rule="nonzero" xlink:href="#path-40"></use>
                                    <path d="M60.9587145,51.1953323 C61.0273044,47.2726743 61.653458,44.086145 62.8371753,41.6357442 C64.0208926,39.1853435 64.3528316,37.7413573 63.8329924,37.3037858 C50.920402,43.6714424 40.111175,45.1154285 31.4053115,41.6357442 C22.6994481,38.1560599 24.8921589,42.9293714 37.9834441,55.9556787 L60.9587145,51.1953323 Z" id="Shadow" fill="#EFB84F" fill-rule="nonzero" opacity="0.5" mask="url(#mask-41)"></path>
                                </g>
                                <path d="M140.022218,65.747373 C138.254246,67.290149 164.626804,59.8840968 164.443493,46.088328 C164.260182,32.2925593 152.905269,32.6170101 149.772587,31.6026955 C146.639904,30.5883809 133.426443,9.83666992 114.625441,16.2157803 C105.279821,19.3867147 104.533259,27.3064628 95.9062591,36.761337 C92.4835285,40.5125238 86.5275596,38.4775284 83.0202242,42.3890826 C79.5128887,46.3006367 77.6520005,52.4010155 75.5548286,55.8237357 C72.7288761,60.4358728 60.7374648,63.3157305 61.7242147,72.6003547 C62.7109646,81.8849788 73.0416724,85.1240311 87.6838452,87.1461311 C94.450731,88.0806453 93.9538191,80.1419007 97.1714783,77.878798 C100.916183,75.2450041 106.197365,76.0774775 107.986956,73.7415103 C111.314264,69.3983498 109.286019,68.3933373 110.770309,65.6705735 C111.759836,63.8553976 113.214679,62.1750451 115.13484,60.6295159 C111.945713,59.1607018 111.362133,56.5602052 113.3841,52.8280263 C116.417051,47.2297579 121.592856,50.0523768 121.592856,54.984434 L124.309477,51.8147394 C127.595292,53.7622089 130.883981,54.8221416 134.175543,54.9945375 C137.467106,55.1669334 140.231482,55.0480881 142.468673,54.6380016 C142.738133,60.4423544 141.922648,64.1454782 140.022218,65.747373 Z" id="Face" fill="url(#linearGradient-36)" fill-rule="nonzero" transform="translate(113.055556, 51.111111) scale(-1, 1) rotate(-19.000000) translate(-113.055556, -51.111111) "></path>
                            </g>
                        </g>
                    </g>
                </g>
                <polygon id="Path-25" fill="url(#linearGradient-42)" points="407.5 182.6 1 355.5 1 489 490.1 235.5"></polygon>
                <path d="M799.5,43 C787.139688,47.5287104 772.264298,54.6688973 754.873832,64.4205607 C737.483365,74.1722242 720.525421,84.8825046 704,96.5514019 L799.5,69.7757009 L799.5,43 Z" id="Path-26" fill="url(#linearGradient-43)"></path>
                <path d="M627.299263,48 C625.187824,52.2297896 624,57.0012202 624,62.050082 C624,79.4470516 638.10303,93.550082 655.5,93.550082 C659.825988,93.550082 663.948301,92.678043 667.70074,91.1001625 C662.536746,101.44505 651.848108,108.550082 639.5,108.550082 C622.10303,108.550082 608,94.4470516 608,77.050082 C608,63.9790992 615.961258,52.767568 627.299263,48 Z" id="Combined-Shape" fill="#FFFFFF"></path>
                <path d="M620.064498,43 C617.325382,48.4871985 615.784447,54.6770541 615.784447,61.2268141 C615.784447,83.7954606 634.07995,102.090963 656.648597,102.090963 C662.260591,102.090963 667.608363,100.959689 672.476307,98.912745 C665.777189,112.332904 651.91109,121.550082 635.892203,121.550082 C613.323557,121.550082 595.028054,103.254579 595.028054,80.6859328 C595.028054,63.7292792 605.355992,49.1848448 620.064498,43 Z" id="Combined-Shape-Copy" fill-opacity="0.1" fill="#FFFFFF"></path>
                <circle id="Oval-6" fill="#FFFFFF" cx="736" cy="20" r="3"></circle>
                <circle id="Oval-6-Copy" fill="#FFFFFF" cx="682" cy="52" r="2"></circle>
                <circle id="Oval-6-Copy-2" fill="#FFFFFF" cx="593" cy="139" r="2"></circle>
                <circle id="Oval-6-Copy-8" fill="#FFFFFF" cx="510" cy="183" r="2"></circle>
                <circle id="Oval-6-Copy-5" fill="#FFFFFF" cx="498" cy="84" r="2"></circle>
                <circle id="Oval-6-Copy-7" fill-opacity="0.4" fill="#FFFFFF" cx="390" cy="30" r="2"></circle>
                <circle id="Oval-6-Copy-10" fill="#FFFFFF" cx="295" cy="149" r="2"></circle>
                <circle id="Oval-6-Copy-6" fill="#FFFFFF" cx="398" cy="107" r="2"></circle>
                <circle id="Oval-6-Copy-3" fill-opacity="0.3" fill="#FFFFFF" cx="532" cy="30" r="2"></circle>
                <circle id="Oval-6-Copy-9" fill-opacity="0.3" fill="#FFFFFF" cx="295" cy="63" r="2"></circle>
                <circle id="Oval-6-Copy-11" fill-opacity="0.1" fill="#FFFFFF" cx="164" cy="34" r="2"></circle>
                <circle id="Oval-6-Copy-4" fill-opacity="0.3" fill="#FFFFFF" cx="775" cy="139" r="2"></circle>
            </g>
        </g>
    </g>
</svg>