<?xml version="1.0" encoding="UTF-8"?>
<svg width="90px" height="83px" viewBox="0 0 90 83" version="1.1" xmlns="http://www.w3.org/2000/svg" xmlns:xlink="http://www.w3.org/1999/xlink">
    <!-- Generator: Sketch 51.3 (57544) - http://www.bohemiancoding.com/sketch -->
    <title>Group</title>
    <desc>Created with Sketch.</desc>
    <defs>
        <polygon id="path-1" points="0.0202449438 0.0291337079 4.59778652 0.0291337079 4.59778652 9.42361685 0.0202449438 9.42361685"></polygon>
    </defs>
    <g id="Welcome" stroke="none" stroke-width="1" fill="none" fill-rule="evenodd">
        <g id="Developer-Sign-Up" transform="translate(-343.000000, -74.000000)">
            <g id="Group-8" transform="translate(165.000000, 74.000000)">
                <g id="Group" transform="translate(178.000000, 0.000000)">
                    <polygon id="Fill-1" fill="#000000" points="3.95771461 72.771118 3.95771461 78.545882 4.00008539 80.6443989 3.97177079 80.6726124 1.18308539 72.771118 4.04494382e-05 72.771118 4.04494382e-05 82.1656011 0.943725843 82.1656011 0.943725843 76.4048933 0.90145618 74.2781629 0.929568539 74.2500506 3.71835506 82.1656011 4.9014 82.1656011 4.9014 72.771118"></polygon>
                    <path d="M11.324164,72.771118 L8.94391685,82.0952191 L9.87344494,82.348736 L10.6058831,79.2641629 L13.1692652,79.2641629 L13.9017034,82.348736 L14.8313326,82.0952191 L12.4509843,72.771118 L11.324164,72.771118 Z M11.8734674,74.0246461 L11.9016809,74.0246461 L12.9438607,78.419073 L10.8312876,78.419073 L11.8734674,74.0246461 Z" id="Fill-2" fill="#000000"></path>
                    <polygon id="Fill-3" fill="#000000" points="20.8738213 73.6161573 18.8455854 73.6161573 18.8455854 72.7710674 23.803473 72.7710674 23.803473 73.6161573 21.8174056 73.6161573 21.8174056 82.1655506 20.8738213 82.1655506"></polygon>
                    <polygon id="Fill-4" fill="#000000" points="30.3107157 73.6161573 28.2824798 73.6161573 28.2824798 72.7710674 33.2403674 72.7710674 33.2403674 73.6161573 31.2543 73.6161573 31.2543 82.1655506 30.3107157 82.1655506"></polygon>
                    <polygon id="Fill-5" fill="#000000" points="38.1841281 72.7710775 42.7616899 72.7710775 42.7616899 73.6161674 39.1278135 73.6161674 39.1278135 76.7147966 42.1278472 76.7147966 42.1278472 77.5598865 39.1278135 77.5598865 39.1278135 81.3204708 42.7616899 81.3204708 42.7616899 82.1655607 38.1841281 82.1655607"></polygon>
                    <g id="Group-25" transform="translate(25.078652, 0.034079)">
                        <path d="M23.5564685,77.1032831 L24.9367045,77.1032831 C25.7537831,77.1032831 26.2607157,76.4976539 26.2607157,75.2300697 C26.2607157,74.0046539 25.6692438,73.5820584 24.7114011,73.5820584 L23.5564685,73.5820584 L23.5564685,77.1032831 Z M22.6127831,72.7369685 L25.1480528,72.7369685 C26.077682,72.7369685 27.2466708,73.5398899 27.2466708,75.2300697 C27.2466708,76.3849011 26.7819067,77.483609 25.6269742,77.8778899 L27.5705697,81.9061483 L26.7255809,82.3145865 L24.6128056,77.948373 L23.5564685,77.948373 L23.5564685,82.1315528 L22.6127831,82.1315528 L22.6127831,72.7369685 Z" id="Fill-6" fill="#000000"></path>
                        <path d="M34.4722854,81.2864326 C35.3172742,81.2864326 35.894791,80.6667472 35.894791,79.3004663 C35.894791,77.906073 35.2046225,77.441309 34.2187685,77.441309 L33.1905438,77.441309 L33.1905438,81.2864326 L34.4722854,81.2864326 Z M34.0356337,76.5962191 C35.0074315,76.5962191 35.4581393,76.0891854 35.4581393,75.1032303 C35.4581393,73.9482978 34.8807236,73.5820281 33.7398472,73.5820281 L33.1905438,73.5820281 L33.1905438,76.5962191 L34.0356337,76.5962191 Z M31.4863079,82.1315225 L31.4863079,81.2864326 L32.2468584,81.2864326 L32.2468584,73.5820281 L31.4863079,73.5820281 L31.4863079,72.7370393 L34.3596337,72.7370393 C35.3877573,72.7370393 36.4440944,73.5961854 36.4440944,75.1032303 C36.4440944,75.8779382 36.1342517,76.5398933 35.4440831,76.9202191 C36.5005213,77.3849831 36.8807461,78.1878034 36.8807461,79.3145225 C36.8807461,81.2723764 35.8102517,82.1315225 34.5145551,82.1315225 L31.4863079,82.1315225 Z" id="Fill-8" fill="#000000"></path>
                        <path d="M43.4443348,73.9905775 L43.4162225,73.9905775 L42.3739416,78.3850045 L44.4866157,78.3850045 L43.4443348,73.9905775 Z M42.1486382,79.2300944 L41.4160989,82.3145663 L40.4865708,82.0611506 L42.866818,72.7370494 L43.9936382,72.7370494 L46.3739865,82.0611506 L45.4443573,82.3145663 L44.7119191,79.2300944 L42.1486382,79.2300944 Z" id="Fill-10" fill="#000000"></path>
                        <path d="M54.219327,74.8778764 C54.0644056,74.1877079 53.7263494,73.4976404 52.9235292,73.4976404 C52.0361697,73.4976404 51.6840573,74.2159213 51.6840573,75.0046854 C51.6840573,75.765236 51.8389787,76.0046966 53.3179112,76.8919551 C54.4728438,77.5821236 55.2616079,78.1596404 55.2616079,79.6103596 C55.2616079,81.0892921 54.4728438,82.2582809 52.8953157,82.2582809 C51.2333494,82.2582809 50.6276191,81.1596742 50.4868551,79.6666854 L51.4305404,79.5399775 C51.5572483,80.5821573 51.7825517,81.3709213 52.9235292,81.3709213 C53.7404056,81.3709213 54.3179225,80.821618 54.3179225,79.6948989 C54.3179225,78.455427 53.5150011,78.0328315 52.5432034,77.4694719 C51.4586528,76.8356292 50.7403719,76.3849213 50.7403719,75.0046854 C50.7403719,73.737 51.5854618,72.6102809 52.9235292,72.6102809 C54.2474393,72.6102809 54.8954393,73.5539663 55.1347989,74.7370112 L54.219327,74.8778764 Z" id="Fill-12" fill="#000000"></path>
                        <g id="Group-16" transform="translate(60.269663, 72.707865)">
                            <mask id="mask-2" fill="white">
                                <use xlink:href="#path-1"></use>
                            </mask>
                            <g id="Clip-15"></g>
                            <polygon id="Fill-14" fill="#000000" mask="url(#mask-2)" points="0.0202449438 0.0291337079 4.59780674 0.0291337079 4.59780674 0.874223596 0.963930337 0.874223596 0.963930337 3.97285281 3.96396404 3.97285281 3.96396404 4.8179427 0.963930337 4.8179427 0.963930337 8.57852697 4.59780674 8.57852697 4.59780674 9.42361685 0.0202449438 9.42361685"></polygon>
                        </g>
                        <path d="M4.64575955,16.3863708 L4.59519775,16.3523933 L4.66709663,16.3038539 L4.7175573,16.3379326 L4.64575955,16.3863708 Z M4.81129888,22.5274045 L4.85417528,17.0037303 L19.7586809,6.94264045 L26.9094337,11.5590337 L35.5745124,17.0995955 L35.6104112,22.3583258 L40.3345011,19.341809 L40.2875798,13.3340562 L28.9691191,6.09704494 L19.6289393,0.0670449438 L0.160422472,13.2089663 L0.1044,19.341809 L4.81129888,22.5274045 Z" id="Fill-17" fill="#000000"></path>
                        <polygon id="Fill-19" fill="#000000" points="8.44075843 39.8078775 8.71275843 39.6243775 8.52125843 39.4953775 8.24925843 39.6788775"></polygon>
                        <path d="M4.64575955,42.6702034 L4.59519775,42.6361247 L4.66709663,42.5876865 L4.7175573,42.6217652 L4.64575955,42.6702034 Z M0.0309842697,39.6178888 L0.109961798,45.6256416 L19.6063888,58.7266079 L40.305782,45.6256416 L40.3292427,39.6178888 L35.6064674,36.6061247 L35.5883663,41.8211697 L19.741591,51.8510124 L4.81564719,41.8211697 L4.78793933,36.832136 L0.0309842697,39.6178888 Z" id="Fill-21" fill="#000000"></path>
                        <polygon id="Fill-23" fill="#000000" points="8.44075843 19.6856674 8.71275843 19.5021674 8.52125843 19.3731674 8.24925843 19.5566674"></polygon>
                    </g>
                </g>
            </g>
        </g>
    </g>
</svg>