<?xml version="1.0" encoding="UTF-8"?>
<svg width="17px" height="14px" viewBox="0 0 17 14" version="1.1" xmlns="http://www.w3.org/2000/svg" xmlns:xlink="http://www.w3.org/1999/xlink">
    <!-- Generator: Sketch 51.3 (57544) - http://www.bohemiancoding.com/sketch -->
    <title>TW</title>
    <desc>Created with Sketch.</desc>
    <defs></defs>
    <g id="Welcome" stroke="none" stroke-width="1" fill="none" fill-rule="evenodd">
        <g id="Home--Hamburger-Effect" transform="translate(-1201.000000, -1193.000000)" fill="#000000">
            <g id="Group-2" transform="translate(963.000000, 0.000000)">
                <g id="Media-Icons" transform="translate(124.000000, 1191.000000)">
                    <g id="TW" transform="translate(114.000000, 2.000000)">
                        <path d="M5.47617778,10.8132955 C3.73922051,10.7519318 2.65475897,9.50761364 2.36716068,8.49511364 C2.84914359,8.58715909 3.32544274,8.56670455 3.79833162,8.45193182 C3.8108359,8.44965909 3.82334017,8.44056818 3.84607521,8.42920455 C2.9059812,8.21215909 2.18187009,7.70875 1.67601538,6.89738636 C1.3406735,6.35988636 1.18266496,5.77011364 1.18721197,5.12011364 C1.6566906,5.37125 2.14663077,5.51102273 2.67408376,5.52579545 C1.96702393,5.01670455 1.49186154,4.35193182 1.29861368,3.50079545 C1.10536581,2.65079545 1.2315453,1.84170455 1.6566906,1.07920455 C3.4664,3.21102273 5.75695556,4.37920455 8.54995556,4.56897727 C8.53176752,4.43829545 8.51016923,4.32238636 8.49652821,4.20534091 C8.40331453,3.42011364 8.56018632,2.68602273 8.98419487,2.02011364 C9.51619487,1.18715909 10.2766821,0.667840909 11.2508786,0.511022727 C12.3739897,0.326931818 13.3561436,0.64625 14.1757419,1.44170455 C14.2314427,1.49511364 14.2780496,1.51329545 14.3553487,1.49511364 C15.0408103,1.34511364 15.688759,1.09852273 16.2991949,0.747386364 C16.3128359,0.739431818 16.3276137,0.730340909 16.3435282,0.725795455 C16.3458017,0.723522727 16.3514855,0.723522727 16.3651265,0.723522727 C16.1002632,1.49965909 15.6194171,2.09965909 14.9339556,2.54170455 C15.5819043,2.47125 16.1991607,2.29738636 16.7948188,2.04056818 C16.8005026,2.04738636 16.8039128,2.05079545 16.8084598,2.05420455 C16.6800068,2.22352273 16.5572376,2.39397727 16.4242376,2.55647727 C16.0695709,2.99397727 15.6626137,3.37806818 15.2101863,3.71102273 C15.1704,3.73943182 15.1533487,3.76556818 15.1544855,3.81670455 C15.1726735,4.31215909 15.1533487,4.80647727 15.0919641,5.29965909 C14.9635111,6.33715909 14.6736393,7.32693182 14.230306,8.27352273 C13.7733316,9.24852273 13.1754,10.1314773 12.4240068,10.9076136 C11.1519812,12.2235227 9.61850256,13.0701136 7.83152821,13.4644318 C7.21995556,13.5996591 6.59701538,13.6689773 5.97066496,13.6860227 C4.04273333,13.7428409 2.26144274,13.2632955 0.622246154,12.2530682 C0.601784615,12.2405682 0.580186325,12.2246591 0.543810256,12.2007955 C1.71011795,12.3269318 2.81845128,12.1757955 3.88699829,11.7382955 C4.45423761,11.5076136 4.97941709,11.2030682 5.47617778,10.8132955" id="Fill-4"></path>
                    </g>
                </g>
            </g>
        </g>
    </g>
</svg>