<?xml version="1.0" encoding="UTF-8"?>
<svg width="53px" height="44px" viewBox="0 0 53 44" version="1.1" xmlns="http://www.w3.org/2000/svg" xmlns:xlink="http://www.w3.org/1999/xlink">
    <!-- Generator: Sketch 51.3 (57544) - http://www.bohemiancoding.com/sketch -->
    <title>Group 20</title>
    <desc>Created with Sketch.</desc>
    <defs></defs>
    <g id="Welcome" stroke="none" stroke-width="1" fill="none" fill-rule="evenodd">
        <g id="Home" transform="translate(-1073.000000, -3421.000000)" stroke="#FFFFFF" stroke-width="2.5">
            <g id="Group-20" transform="translate(1074.000000, 3421.000000)">
                <path d="M21.9391304,22.1608696 C21.9391304,24.5608696 19.9913043,26.5086957 17.5913043,26.5086957 C15.1913043,26.5086957 13.2434783,24.5608696 13.2434783,22.1608696 C13.2434783,19.7608696 15.1913043,17.8130435 17.5913043,17.8130435 C19.9913043,17.8130435 21.9391304,19.7608696 21.9391304,22.1608696 Z" id="Path"></path>
                <path d="M38.9956522,29.3478261 C38.9956522,31.7478261 37.0478261,33.6956522 34.6478261,33.6956522 C32.2478261,33.6956522 30.3,31.7478261 30.3,29.3478261 C30.3,26.9478261 32.2478261,25 34.6478261,25 C37.0478261,25 38.9956522,26.9478261 38.9956522,29.3478261 Z" id="Path"></path>
                <path d="M43.3,14.5 L36.2565217,25.1304348 L43.3,14.5 Z" id="Path"></path>
                <path d="M49.9956522,11.3478261 C49.9956522,13.7478261 48.0478261,15.6956522 45.6478261,15.6956522 C43.2478261,15.6956522 41.3,13.7478261 41.3,11.3478261 C41.3,8.94782609 43.2478261,7 45.6478261,7 C48.0478261,7 49.9956522,8.94782609 49.9956522,11.3478261 Z" id="Path-Copy"></path>
                <path d="M31.2478261,27.6608696 L21.6391304,22.8347826 L31.2478261,27.6608696 Z" id="Path"></path>
                <path d="M14.5,25 L1,42.1565217 L14.5,25 Z" id="Path"></path>
                <path d="M1,0.5 L1,43.2 L1,0.5 Z" id="Path"></path>
                <path d="M50.5,42 L0.5,42 L50.5,42 Z" id="Path"></path>
            </g>
        </g>
    </g>
</svg>