<?xml version="1.0" encoding="UTF-8"?>
<svg width="811px" height="816px" viewBox="0 0 811 816" version="1.1" xmlns="http://www.w3.org/2000/svg" xmlns:xlink="http://www.w3.org/1999/xlink">
    <!-- Generator: Sketch 51.3 (57544) - http://www.bohemiancoding.com/sketch -->
    <title>Artwork</title>
    <desc>Created with Sketch.</desc>
    <defs>
        <linearGradient x1="41.1273882%" y1="68.6905885%" x2="41.1273867%" y2="-30.4774921%" id="linearGradient-1">
            <stop stop-color="#F3F7FE" offset="0%"></stop>
            <stop stop-color="#B3B1B1" offset="100%"></stop>
        </linearGradient>
        <linearGradient x1="87.3414517%" y1="108.886096%" x2="74.4690114%" y2="57.2090839%" id="linearGradient-2">
            <stop stop-color="#F3F7FE" offset="0%"></stop>
            <stop stop-color="#B3B1B1" offset="100%"></stop>
        </linearGradient>
        <linearGradient x1="31.669258%" y1="-9.21335019%" x2="107.51516%" y2="70.945656%" id="linearGradient-3">
            <stop stop-color="#CACACA" offset="0%"></stop>
            <stop stop-color="#6D7480" offset="100%"></stop>
        </linearGradient>
        <filter x="-84.4%" y="-1494.7%" width="268.9%" height="3089.4%" filterUnits="objectBoundingBox" id="filter-4">
            <feGaussianBlur stdDeviation="31.1272321 0" in="SourceGraphic"></feGaussianBlur>
        </filter>
        <linearGradient x1="42.27792%" y1="75.2935433%" x2="42.2779202%" y2="0%" id="linearGradient-5">
            <stop stop-color="#F3F7FE" offset="0%"></stop>
            <stop stop-color="#B3B1B1" offset="100%"></stop>
        </linearGradient>
        <linearGradient x1="50%" y1="-13.7050775%" x2="100%" y2="91.3638256%" id="linearGradient-6">
            <stop stop-color="#EDF3FD" stop-opacity="0" offset="0%"></stop>
            <stop stop-color="#DFE0E1" offset="100%"></stop>
        </linearGradient>
        <radialGradient cx="71.8863801%" cy="15.4650789%" fx="71.8863801%" fy="15.4650789%" r="96.655816%" gradientTransform="translate(0.718864,0.154651),scale(1.000000,0.596774),rotate(150.840166),scale(1.000000,2.177299),translate(-0.718864,-0.154651)" id="radialGradient-7">
            <stop stop-color="#64CF9B" offset="0%"></stop>
            <stop stop-color="#ADF9A9" offset="100%"></stop>
        </radialGradient>
        <path d="M69.7053611,224.828679 C52.2585634,220.255141 0.791668228,198.141382 15.8415475,172.260538 C30.8914268,146.379694 45.9413062,138.927563 30.8914268,127.099673 C15.8415475,115.271784 26.5340616,88.9651697 41.4123758,78.1380245 C56.29069,67.3106468 21.057293,35.0567377 37.1974498,17.9906264 C53.337468,0.924747479 104.931269,27.287139 106.125983,59.5561547 C107.320698,91.8251703 119.324013,89.5910417 125.42463,104.160869 C131.525246,118.730465 89.2653083,140.600196 95.4406811,156.430367 C101.615915,172.260538 137.637097,188.770267 116.538889,210.096166 C95.4406811,231.422066 87.1521589,229.402449 69.7053611,224.828679 Z" id="path-8"></path>
        <filter x="-13.7%" y="-8.2%" width="127.4%" height="116.4%" filterUnits="objectBoundingBox" id="filter-9">
            <feGaussianBlur stdDeviation="15" in="SourceAlpha" result="shadowBlurInner1"></feGaussianBlur>
            <feOffset dx="-8" dy="-6" in="shadowBlurInner1" result="shadowOffsetInner1"></feOffset>
            <feComposite in="shadowOffsetInner1" in2="SourceAlpha" operator="arithmetic" k2="-1" k3="1" result="shadowInnerInner1"></feComposite>
            <feColorMatrix values="0 0 0 0 0.269084458   0 0 0 0 0.794509991   0 0 0 0 0.470313157  0 0 0 0.5 0" type="matrix" in="shadowInnerInner1"></feColorMatrix>
        </filter>
        <linearGradient x1="50%" y1="0%" x2="50%" y2="100%" id="linearGradient-10">
            <stop stop-color="#80D4AE" offset="0%"></stop>
            <stop stop-color="#4CB67D" offset="100%"></stop>
        </linearGradient>
        <linearGradient x1="50%" y1="0%" x2="50%" y2="100%" id="linearGradient-11">
            <stop stop-color="#64DEA8" offset="0%"></stop>
            <stop stop-color="#4CB67D" offset="100%"></stop>
        </linearGradient>
        <linearGradient x1="62.5723088%" y1="6.85063844%" x2="60.1290094%" y2="78.9477907%" id="linearGradient-12">
            <stop stop-color="#B6B7B9" offset="0%"></stop>
            <stop stop-color="#FFFFFF" offset="100%"></stop>
        </linearGradient>
        <filter x="-36.6%" y="-467.1%" width="173.3%" height="1034.2%" filterUnits="objectBoundingBox" id="filter-13">
            <feGaussianBlur stdDeviation="31.1272321 0" in="SourceGraphic"></feGaussianBlur>
        </filter>
        <rect id="path-14" x="0" y="0" width="259.896007" height="372.35101" rx="3"></rect>
        <filter x="-3.6%" y="-11.8%" width="114.5%" height="147.0%" filterUnits="objectBoundingBox" id="filter-16">
            <feOffset dx="17" dy="17" in="SourceAlpha" result="shadowOffsetOuter1"></feOffset>
            <feColorMatrix values="0 0 0 0 1   0 0 0 0 0.706612669   0 0 0 0 0.0893702652  0 0 0 0.17334692 0" type="matrix" in="shadowOffsetOuter1" result="shadowMatrixOuter1"></feColorMatrix>
            <feMerge>
                <feMergeNode in="shadowMatrixOuter1"></feMergeNode>
                <feMergeNode in="SourceGraphic"></feMergeNode>
            </feMerge>
        </filter>
        <linearGradient x1="90.6083424%" y1="172.734811%" x2="32.9575052%" y2="50%" id="linearGradient-17">
            <stop stop-color="#FFE883" offset="0%"></stop>
            <stop stop-color="#FECC4C" offset="100%"></stop>
        </linearGradient>
        <linearGradient x1="92.0924801%" y1="16.0556086%" x2="-46.0292161%" y2="16.0556093%" id="linearGradient-18">
            <stop stop-color="#BABEC4" offset="0%"></stop>
            <stop stop-color="#FFFFFF" stop-opacity="0" offset="100%"></stop>
        </linearGradient>
        <path d="M3.81287483,7.82134723 C3.81287483,18.9857577 -5.38288093,40.8633047 6.60842719,46.5353396 C14.6026326,50.3166962 22.1344145,42.3874466 29.2037727,22.7475908 C28.5944253,8.32585242 24.6761975,1.11498325 17.4490894,1.11498325 C6.60842719,1.11498325 3.81287483,-3.34306326 3.81287483,7.82134723 Z" id="path-19"></path>
        <path d="M89.3229036,0.357252311 C105.024354,57.8853662 113.897177,93.1944393 115.941374,106.284471 C119.007669,125.91952 126.511283,192.289481 125.452068,202.993191 C120.326637,208.219534 111.093431,205.090255 109.485073,204.131659 C107.876715,203.173064 97.9674704,148.566461 89.3229036,127.383063 C80.6783369,106.199664 61.2248222,86.7035582 48.4063967,65.3905103 C48.4063967,74.6385127 45.1069719,91.6368641 38.5081224,116.385564 C28.8858497,160.09069 22.4374848,185.480446 19.1630277,192.554833 C16.8324271,196.319531 5.06709157,193.558933 0.503635039,192.554833 C0.503635039,182.611741 10.3429483,132.377789 10.3429483,114.938966 C10.3429483,97.5001434 7.62181099,65.8960896 6.60517164,52.9401095 C5.58853229,39.9841295 3.10460715,14.8482905 6.60517164,0.357252311 C12.5210242,0.357252311 40.0936015,0.357252311 89.3229036,0.357252311 Z" id="path-21"></path>
        <linearGradient x1="89.2651436%" y1="83.2202103%" x2="79.8543348%" y2="25.681003%" id="linearGradient-23">
            <stop stop-color="#CECECE" stop-opacity="0.477723053" offset="0%"></stop>
            <stop stop-color="#A1A1A1" offset="100%"></stop>
        </linearGradient>
        <path d="M28.9251283,0.604249782 C31.0466209,4.71407153 33.9041601,7.64138465 37.4977459,9.38618914 C41.0913317,11.1309936 43.786065,12.4302482 45.5819459,13.2839528 L43.2903508,22.1726053 C46.1378572,30.8865384 46.9017222,36.7124342 45.5819459,39.6502927 C43.6022814,44.0570804 37.4977459,46.9847892 33.9447475,50.9139952 C31.5760819,53.5334659 29.2968,59.2863955 27.1069016,68.172784 L3.6889286,68.172784 L2.62856247,50.9139952 C-1.53507186,34.3114463 -0.0848684493,21.7680989 6.97917271,13.2839528 C14.0432139,4.79980683 21.3585324,0.573239143 28.9251283,0.604249782 Z" id="path-24"></path>
        <path d="M52.1968443,1.02108109 C63.2950047,3.94976232 72.1138832,9.28359224 78.6534798,17.0225708 C88.4628746,28.6310387 86.2768597,63.5554243 89.055269,84.3412523 C91.8336783,105.12708 103.922952,120.23601 85.2495311,131.966241 C66.57611,143.696471 13.7787668,141.032748 9.46099137,131.966241 C6.58247441,125.921902 3.50273517,104.325147 0.221773647,67.1759761 C0.221773647,33.7403726 2.18763946,15.6133193 6.1193711,12.7948163 C10.0511027,9.97631325 16.6062312,5.84348484 25.7847565,0.396331072 C25.5789549,1.22514868 27.6898408,2.05021874 32.1174142,2.87154127 C36.5449876,3.6928638 43.238131,3.07604374 52.1968443,1.02108109 Z" id="path-26"></path>
        <path d="M28.7021926,85.3556653 L43.8846474,96.5385889 C60.5432505,72.3403869 69.6078768,58.5848959 71.0785263,55.2721159 C73.2845005,50.3029459 71.0785263,41.9638686 71.0785263,39.1869255 C71.0785263,36.4099825 72.7181141,30.2842112 75.1009695,28.4869883 C77.4838249,26.6897655 77.7640459,27.6137274 79.2093393,27.6137274 C80.6546327,27.6137274 93.0463672,12.3098917 94.5045711,10.3624463 C95.962775,8.41500091 97.93575,7.45705677 99.4155061,8.59595088 C100.895262,9.73484499 100.258034,11.6316074 99.1752827,13.1796869 C98.092531,14.7277664 92.0146604,23.4151723 92.0146604,25.191316 C92.0146604,26.9674598 97.962634,30.7479515 99.4959098,32.3096383 C101.029186,33.8713251 103.201695,38.2909565 100.343933,43.1887026 C97.4861711,48.0864488 87.9876347,55.8879924 87.9876347,58.0508919 C87.9876347,60.2137914 72.2034302,92.9313124 66.4772454,106.162575 C60.7510606,119.393838 55.3507642,128.327713 43.8846474,124.62054 C36.2405695,122.149091 25.4382917,114.58047 11.477814,101.914677 C14.2063049,95.4602011 16.8931271,91.2168855 19.5382806,89.1847306 C22.1834342,87.1525756 25.2380715,85.8762205 28.7021926,85.3556653 Z" id="path-28"></path>
        <path d="M31.3213748,0 L239.776558,0 C246.629333,-5.02797817e-15 253.937356,4.65715133 256.099485,10.4020386 L270.58454,48.8895816 C272.746668,54.6344689 267.881309,59.2916203 259.717456,59.2916203 L11.3804769,59.2916203 C3.21662416,59.2916203 -1.64873479,54.6344689 0.513393564,48.8895816 L14.9984484,10.4020386 C17.1605768,4.65715133 24.4685998,2.51398909e-15 31.3213748,0 Z" id="path-30"></path>
        <path d="M31.3213748,0 L239.776558,0 C246.629333,-5.02797817e-15 253.937356,4.65715133 256.099485,10.4020386 L270.58454,48.8895816 C272.746668,54.6344689 267.881309,59.2916203 259.717456,59.2916203 L11.3804769,59.2916203 C3.21662416,59.2916203 -1.64873479,54.6344689 0.513393564,48.8895816 L14.9984484,10.4020386 C17.1605768,4.65715133 24.4685998,2.51398909e-15 31.3213748,0 Z" id="path-32"></path>
        <path d="M31.3213748,0 L239.776558,0 C246.629333,-5.02797817e-15 253.937356,4.65715133 256.099485,10.4020386 L270.58454,48.8895816 C272.746668,54.6344689 267.881309,59.2916203 259.717456,59.2916203 L11.3804769,59.2916203 C3.21662416,59.2916203 -1.64873479,54.6344689 0.513393564,48.8895816 L14.9984484,10.4020386 C17.1605768,4.65715133 24.4685998,2.51398909e-15 31.3213748,0 Z" id="path-34"></path>
    </defs>
    <g id="Welcome" stroke="none" stroke-width="1" fill="none" fill-rule="evenodd">
        <g id="Home" transform="translate(0.000000, -2302.000000)">
            <g id="Artwork" transform="translate(-89.000000, 2302.000000)">
                <polygon id="Mask" fill="#F7F7F7" points="-5.34967483e-14 0 899.640025 0 899.640025 815.298773 -5.59555957e-13 815.298773"></polygon>
                <path d="M261.762363,252.498055 C260.941417,228.958194 199.607667,234.264386 175.948188,236.5353 C152.288373,238.806213 150.140226,206.558492 170.553832,201.76507 C190.967103,196.971648 227.985153,199.445363 247.16516,195.020638 C266.345167,190.595914 242.083146,166.865672 268.21687,164.005339 C294.350593,161.145183 348.388425,163.793311 364.498021,163.212231 C389.802076,162.299536 402.784562,192.762145 358.453148,194.144494 C346.227865,194.525612 343.775427,221.588148 385.041126,214.154405 C410.936987,209.489442 461.745721,209.381742 472.315357,221.291841 C478.379688,228.125342 476.278174,246.484276 465.852463,256.622037 C458.107659,264.153011 433.477605,265.621414 423.829226,267.36217 C401.193329,271.446585 405.668105,293.363858 413.386405,297.876765 C431.651193,308.555684 481.77888,288.401524 483.122521,317.725748 C483.716339,330.683743 438.106371,332.775808 419.404774,332.617541 C373.537148,332.229504 343.400349,336.316049 341.285415,320.66965 C339.16243,304.962215 369.787704,315.56413 368.27766,296.253822 C367.488585,286.163079 369.603519,264.721139 349.955167,265.846571 C376.855823,264.3056 262.87116,284.291026 261.762363,252.498055 Z" id="cloud" fill="url(#linearGradient-1)" opacity="0.232645089"></path>
                <path d="M540.43138,160.559949 C540.49219,137.005833 479.003021,140.01192 455.274963,141.395249 C431.546574,142.778757 430.607644,110.473147 451.186107,106.447521 C471.764899,102.421715 508.664416,106.279742 527.996259,102.576272 C547.328433,98.8728028 523.972179,74.2507261 550.194797,72.3710283 C576.417084,70.4913304 630.317809,75.1609144 646.437924,75.1834279 C671.758296,75.2188063 683.591259,106.146269 639.23913,105.867709 C627.008254,105.790877 623.544029,132.742385 665.059208,126.859038 C691.111952,123.167004 741.888859,124.961651 752.004912,137.259199 C757.809026,144.315035 755.02165,162.582232 744.223791,172.322533 C736.202401,179.558477 711.534752,180.103446 701.827849,181.481951 C679.054915,184.715674 682.705869,206.785329 690.250027,211.583918 C708.101924,222.939295 758.949226,204.676207 759.194121,234.030048 C759.302192,247.001393 713.645609,247.384122 694.963184,246.525751 C649.142346,244.420561 618.873506,247.375903 617.345968,231.661307 C615.812482,215.885246 646.01952,227.626568 645.233608,208.273184 C644.822806,198.159981 647.739074,176.812188 628.062196,177.201171 C655.001983,176.668709 540.349087,192.372048 540.43138,160.559949 Z" id="cloud" fill="url(#linearGradient-2)" opacity="0.232645089"></path>
                <g id="tree" opacity="0.300000012" transform="translate(52.479001, 269.267257)">
                    <path d="M88.1736806,248.425044 C81.7305031,254.124858 57.2271372,242.72523 47.5121018,225.030921 C37.7970664,207.336611 55.8184734,201.038356 31.3061597,172.738625 C6.79384595,144.438894 -8.93466844,133.600694 5.94091103,86.9535847 C20.8164905,40.3064751 0.266014506,14.3821857 27.4195534,2.21220082 C54.5730923,-9.957784 70.2107234,30.4330273 67.0960711,65.960828 C63.9814188,101.488629 70.351921,108.851667 96.9115995,105.170148 C123.471278,101.488629 101.079004,153.646597 101.079004,165.031689 C101.079004,176.416781 117.183833,197.563194 113.84285,213.472838 C110.501866,229.382482 94.616858,242.72523 88.1736806,248.425044 Z" id="leaves" fill="url(#linearGradient-3)"></path>
                    <path d="M72.6608925,198.827185 C77.4347687,191.105165 86.8786892,165.299115 86.8786892,146.281282" id="branch" stroke="#C5C6C7" stroke-width="6" stroke-linecap="round"></path>
                    <path d="M17.34037,147.838612 C17.34037,139.10026 41.8747297,132.965468 53.8847579,116.384387" id="branch" stroke="#C5C6C7" stroke-width="6" stroke-linecap="round" transform="translate(35.612564, 132.111500) scale(-1, 1) translate(-35.612564, -132.111500) "></path>
                    <path d="M108.425628,326.515595 C106.793287,318.416612 102.521792,286.644734 90.1226605,249.458893 C70.5037488,190.620437 40.0787513,113.777184 40.0787513,61.8912741" id="branch" stroke="#C5C6C7" stroke-width="6" stroke-linecap="round"></path>
                </g>
                <ellipse id="shadow" fill="#8699BF" opacity="0.0849330357" filter="url(#filter-4)" cx="699.407644" cy="577.893766" rx="55.2903765" ry="3.12375009"></ellipse>
                <path d="M1.24950003,589.179005 C58.2397979,571.231614 203.412797,528.538515 331.074618,528.538515 C458.736438,528.538515 616.988531,597.643134 719.114039,605.485142 C787.197711,610.713147 823.514035,680.651024 828.063011,815.298773 L1.24950003,815.298773 C1.24950003,710.414634 1.24950003,635.041378 1.24950003,589.179005 Z" id="ground" fill="url(#linearGradient-5)" opacity="0.232645089"></path>
                <path d="M195.526187,574.633134 C193.450125,573.352712 144.347688,551.912546 148.881528,547.326114 C151.904088,544.268493 160.787399,542.739682 175.53146,542.739682 C190.245319,564.855599 196.910228,575.486749 195.526187,574.633134 Z" id="shadow" fill="url(#linearGradient-6)" style="mix-blend-mode: multiply;"></path>
                <g id="tree" transform="translate(120.576753, 312.999759)">
                    <g id="leaves">
                        <use fill="url(#radialGradient-7)" fill-rule="evenodd" xlink:href="#path-8"></use>
                        <use fill="black" fill-opacity="1" filter="url(#filter-9)" xlink:href="#path-8"></use>
                    </g>
                    <path d="M74.3452683,258.646603 C76.3806439,222.15584 38.7605382,206.939707 65.5188413,155.570303 C92.277087,104.20112 73.6840529,59.8462948 65.5188413,42.9557483" id="stem" stroke="url(#linearGradient-10)" stroke-width="6" fill-opacity="0" fill="#000000" stroke-linecap="round" stroke-linejoin="round"></path>
                    <path d="M71.846232,133.071756 C67.1825656,130.852598 58.5997299,124.601498 54.353204,114.954024" id="branch" stroke="url(#linearGradient-11)" stroke-width="5" fill-opacity="0" fill="#000000" opacity="0.3" stroke-linecap="round" stroke-linejoin="round"></path>
                    <path d="M57.4770266,199.295242 C50.2310728,196.295431 35.4117525,188.05981 34.361226,175.55474" id="branch" stroke="url(#linearGradient-11)" stroke-width="5" fill-opacity="0" fill="#000000" opacity="0.3" stroke-linecap="round" stroke-linejoin="round"></path>
                    <path d="M59.9759904,168.682512 C66.4977446,170.518018 76.1700582,168.847541 84.3412636,156.812269" id="branch" stroke="url(#linearGradient-11)" stroke-width="5" fill-opacity="0" fill="#000000" opacity="0.3" stroke-linecap="round" stroke-linejoin="round"></path>
                    <path d="M78.0937665,75.5947421 C82.3429463,72.2440316 90.6057407,59.0120461 89.964005,47.4810444" id="branch" stroke="url(#linearGradient-11)" stroke-width="5" fill-opacity="0" fill="#000000" opacity="0.3" stroke-linecap="round" stroke-linejoin="round"></path>
                </g>
                <polyline id="shadow" fill="url(#linearGradient-12)" opacity="0.5" points="166.183505 667.469732 358.5757 592.887766 625.374767 592.887766 482.631217 688.474519"></polyline>
                <ellipse id="shadow" fill="#919191" filter="url(#filter-13)" cx="499.800014" cy="594.137267" rx="127.449004" ry="9.99600028"></ellipse>
                <g id="phone" transform="translate(334.241259, 74.970002)">
                    <rect id="side" fill="#1C1C1C" x="36.235501" y="0" width="283.011758" height="522.291015" rx="10"></rect>
                    <rect id="front" fill="#000000" x="13.1197504" y="0" width="283.011758" height="522.291015" rx="10"></rect>
                    <rect id="speaker" fill="#1C1C1C" x="80.5927522" y="33.7365009" width="148.690504" height="9.37125026" rx="4.68562513"></rect>
                    <circle id="button" fill="#1C1C1C" cx="154.313254" cy="484.806013" r="26.2395007"></circle>
                    <g id="screen" transform="translate(24.990001, 74.970002)">
                        <mask id="mask-15" fill="white">
                            <use xlink:href="#path-14"></use>
                        </mask>
                        <use fill="#FFFFFF" xlink:href="#path-14"></use>
                        <g id="4" opacity="0.600000024" mask="url(#mask-15)">
                            <g transform="translate(12.495000, 285.510758)">
                                <rect id="Rectangle-16" fill="#F0F0F0" x="0" y="0" width="234.906007" height="71.221502" rx="5"></rect>
                                <circle id="Oval-Copy-2" fill="#FFFFFF" cx="35.610751" cy="35.610751" r="26.2395007"></circle>
                                <rect id="Rectangle" fill="#FFFFFF" x="71.221502" y="12.4950003" width="145.566754" height="10.6207503" rx="5.31037515"></rect>
                                <rect id="Rectangle-Copy" fill="#FFFFFF" x="71.221502" y="29.9880008" width="111.205503" height="10.6207503" rx="5.31037515"></rect>
                                <rect id="Rectangle-Copy-2" fill="#FFFFFF" opacity="0.5" x="71.221502" y="51.2295014" width="41.2335011" height="7.49700021" rx="3.7485001"></rect>
                            </g>
                        </g>
                        <g id="3" opacity="0.600000024" mask="url(#mask-15)">
                            <g transform="translate(12.495000, 199.295256)">
                                <rect id="Rectangle-16" fill="#E6E6E6" x="0" y="0" width="234.906007" height="71.221502" rx="5"></rect>
                                <circle id="Oval-Copy-2" fill="#FFFFFF" cx="35.610751" cy="35.610751" r="26.2395007"></circle>
                                <rect id="Rectangle" fill="#FFFFFF" x="71.221502" y="12.4950003" width="145.566754" height="10.6207503" rx="5.31037515"></rect>
                                <rect id="Rectangle-Copy" fill="#FFFFFF" x="71.221502" y="29.9880008" width="111.205503" height="10.6207503" rx="5.31037515"></rect>
                                <rect id="Rectangle-Copy-2" fill="#FFFFFF" opacity="0.5" x="73.3403731" y="52" width="36.995759" height="6.72650163" rx="3.36325082"></rect>
                            </g>
                        </g>
                        <g id="1" opacity="0.600000024" mask="url(#mask-15)">
                            <g transform="translate(12.495000, 19.367251)">
                                <rect id="Rectangle-16" fill="#D5D5D5" x="0" y="0" width="234.906007" height="71.221502" rx="5"></rect>
                                <circle id="Oval-Copy-2" fill="#FFFFFF" cx="35.610751" cy="35.610751" r="26.2395007"></circle>
                                <rect id="Rectangle" fill="#FFFFFF" x="71.221502" y="12.4950003" width="145.566754" height="10.6207503" rx="5.31037515"></rect>
                                <rect id="Rectangle-Copy" fill="#FFFFFF" x="71.221502" y="29.9880008" width="111.205503" height="10.6207503" rx="5.31037515"></rect>
                                <rect id="Rectangle-Copy-2" fill="#FFFFFF" opacity="0.5" x="71.221502" y="51.2295014" width="41.2335011" height="7.49700021" rx="3.7485001"></rect>
                            </g>
                        </g>
                    </g>
                    <g id="yellow-comment" filter="url(#filter-16)" transform="translate(0.000000, 178.678505)">
                        <rect id="Rectangle-16" fill="url(#linearGradient-17)" x="0" y="0" width="234.906007" height="71.221502" rx="5"></rect>
                        <circle id="Oval-Copy-2" fill="#FFB417" cx="35.610751" cy="35.610751" r="26.2395007"></circle>
                        <rect id="Rectangle" fill="#FFB417" x="71.221502" y="12.4950003" width="145.566754" height="10.6207503" rx="5.31037515"></rect>
                        <rect id="Rectangle-Copy" fill="#FFB417" x="71.221502" y="29.9880008" width="111.205503" height="10.6207503" rx="5.31037515"></rect>
                        <rect id="Rectangle-Copy-2" fill="#FFB417" opacity="0.5" x="71.221502" y="51.2295014" width="41.2335011" height="7.49700021" rx="3.7485001"></rect>
                    </g>
                </g>
                <path d="M175.715607,730.307929 L429.185895,714.041674 L429.185895,714.041674 C423.314622,719.269692 415.992024,722.588186 408.190339,723.556553 L222.747948,746.574184" id="shadow" fill="url(#linearGradient-18)" opacity="0.5"></path>
                <path d="M69.2897325,705.77339 L319.40148,705.77339 L319.40148,705.77339 C315.116323,709.784109 309.527713,712.113684 303.662572,712.33405 L130.040439,718.857421" id="shadow" fill="url(#linearGradient-18)" opacity="0.5"></path>
                <g id="person" transform="translate(250.524757, 283.011758)">
                    <g id="elbow" transform="translate(0.624750, 146.816254)">
                        <mask id="mask-20" fill="white">
                            <use xlink:href="#path-19"></use>
                        </mask>
                        <use id="Mask" fill="#BCBCBC" xlink:href="#path-19"></use>
                        <path d="M3.1226291,12.820615 C4.08964083,14.7856933 17.2672244,25.1808537 19.4462357,27.6389268 C21.6252469,30.0969999 22.1234176,36.5218914 23.3746669,35.8580952 C24.2088331,35.4155644 24.2088331,28.9121733 23.3746669,16.3479219 C9.22863388,12.6863318 2.47795462,11.5105629 3.1226291,12.820615 Z" id="Path-7" fill="#6E6E6F" style="mix-blend-mode: multiply;" opacity="0.5" mask="url(#mask-20)"></path>
                    </g>
                    <g id="shoe" transform="translate(47.985508, 414.960642) rotate(2.000000) translate(-47.985508, -414.960642) translate(24.985508, 400.460642)" fill="#3378E4">
                        <path d="M0.662423036,8.08664964 C0.662423036,13.856 -0.828028795,21.0651243 0.662423036,23.9303154 C2.15287487,26.7955065 9.54029149,28.3019366 11.9774442,28.3019366 C14.414597,28.3019366 15.2297602,24.1918128 19.0147112,26.3063525 C22.7996622,28.4208923 44.3718451,28.3019366 45.77337,19.7222583 C47.174895,11.14258 36.2387394,11.14258 31.3746234,11.14258 C26.5105075,11.14258 21.3592318,8.77372123 14.1367004,2.62289227 C6.91416909,-3.52793668 0.662423036,2.31729924 0.662423036,8.08664964 Z" id="Path-90"></path>
                    </g>
                    <g id="shoe" transform="translate(156.710714, 424.345602) rotate(-5.000000) translate(-156.710714, -424.345602) translate(133.710714, 409.845602)" fill="#3378E4">
                        <path d="M0.662423036,8.08664964 C0.662423036,13.856 -0.828028795,21.0651243 0.662423036,23.9303154 C2.15287487,26.7955065 9.54029149,28.3019366 11.9774442,28.3019366 C14.414597,28.3019366 15.2297602,24.1918128 19.0147112,26.3063525 C22.7996622,28.4208923 44.3718451,28.3019366 45.77337,19.7222583 C47.174895,11.14258 36.2387394,11.14258 31.3746234,11.14258 C26.5105075,11.14258 21.3592318,8.77372123 14.1367004,2.62289227 C6.91416909,-3.52793668 0.662423036,2.31729924 0.662423036,8.08664964 Z" id="Path-90"></path>
                    </g>
                    <g id="jeans" transform="translate(24.990001, 213.039756)">
                        <mask id="mask-22" fill="white">
                            <use xlink:href="#path-21"></use>
                        </mask>
                        <use id="Mask" fill="#1C1C1C" xlink:href="#path-21"></use>
                        <path d="M35.9850111,126.462775 C35.9850111,118.016295 40.3368274,48.998793 41.336583,51.8311015 C42.0030867,53.7193071 44.9315452,59.7615574 50.1219586,69.9578525 C40.6973269,113.258788 35.9850111,132.093762 35.9850111,126.462775 Z" id="Path-10" fill="#000000" style="mix-blend-mode: multiply;" opacity="0.5" mask="url(#mask-22)"></path>
                        <path d="M41.5727265,51.8699558 C42.7915927,56.9826571 47.4841862,64.0855916 49.6503395,68.3203926" id="Path-5" stroke="#FFFFFF" stroke-width="2" stroke-linecap="round" mask="url(#mask-22)"></path>
                        <path d="M12.0552425,14.7738694 C17.5606665,17.7347788 39.120375,30.3377845 66.9009349,25.287175 C80.6269427,22.7917355 89.4565478,19.5258931 93.4172274,14.7738694 C93.4172274,12.4331584 90.0879756,2.58768226 89.1582724,-1.1790866 C88.2285692,-4.94585546 5.31304851,11.1478045 12.0552425,14.7738694 Z" id="Path-6" fill="url(#linearGradient-23)" style="mix-blend-mode: multiply;" opacity="0.5" mask="url(#mask-22)"></path>
                    </g>
                    <g id="face" transform="translate(43.732501, 29.363251)">
                        <mask id="mask-25" fill="white">
                            <use xlink:href="#path-24"></use>
                        </mask>
                        <use id="Mask" fill="#D2D2D2" xlink:href="#path-24"></use>
                        <path d="M36.8628241,48.5675 C30.9515528,48.5675 21.7302473,43.3333403 19.9554336,41.5450711 C18.1806198,39.7568019 34.7333108,59.1026423 33.3516113,62.1837877 C32.2615727,64.6145385 28.3700904,65.3581322 30.8243773,65.3581322 C39.6758757,65.3581322 42.7740954,48.5675 36.8628241,48.5675 Z" id="Path-3" fill="#CACACA" style="mix-blend-mode: multiply;" opacity="0.5" mask="url(#mask-25)"></path>
                    </g>
                    <path d="M46.3621335,79.5491542 C25.7145203,60.2503372 9.36514972,43.7803482 23.4653752,20.8307189 C37.5656007,-2.11891047 70.3736715,-9.83374255 76.5061411,18.0635196 C76.5061411,26.0433657 73.5601304,32.1647746 67.6681089,36.4277464 C66.5658526,38.6707759 67.4677068,40.9819806 70.3736715,43.3613604 C73.2796363,45.7407402 73.2796363,47.9136217 70.3736715,49.8800048 C64.6352603,46.1891136 61.0167829,46.8012612 59.5182394,51.7164475 C57.2704241,59.0892269 65.5675916,61.7283235 65.5675916,63.5737459 C67.4741396,68.0950258 66.4600033,72.4235547 62.5251829,76.5593328 C60.5107439,78.5525471 55.1230608,79.5491542 46.3621335,79.5491542 Z" id="hair" fill="#000000"></path>
                    <path d="M25.0648814,105.582753 C10.3296716,131.43184 2.07314612,147.200398 0.295305057,152.888425 C-1.48253601,158.576452 6.77398943,163.06519 25.0648814,166.354641 L36.5140875,117.58107 L25.0648814,105.582753 Z" id="sleeve" fill="#838486"></path>
                    <g id="shirt" transform="translate(20.616751, 91.213503)">
                        <mask id="mask-27" fill="white">
                            <use xlink:href="#path-26"></use>
                        </mask>
                        <use id="Mask" fill="#E3E3E3" xlink:href="#path-26"></use>
                        <path d="M66.0234349,40.6951673 C72.0097087,68.6764313 76.8039464,85.2894056 80.4061479,90.5340902 C85.8094502,98.401117 89.3227296,122.207164 93.6476374,125.045804 C97.9725452,127.884443 104.185416,95.41004 101.07898,84.29135 C99.0080236,76.87889 93.3051583,64.0947139 83.9703846,45.9388218 L66.0234349,40.6951673 Z" id="Path-4" fill="#CDCECF" opacity="0.5" mask="url(#mask-27)"></path>
                    </g>
                    <path d="M45.6445368,92.2341248 C45.3011965,87.9542847 45.1295264,85.1241722 45.1295264,83.7437873 C45.1295264,81.6732098 62.37215,84.59718 74.7804309,85.7576578 C76.126833,90.9227319 75.888412,91.2644449 75.888412,92.2341248 C75.888412,92.7188363 72.7896335,96.8739131 56.1176551,95.5267426 C52.0603727,95.198896 48.5693333,94.1013567 45.6445368,92.2341248 Z" id="colar" fill="#838486"></path>
                    <g id="hand" transform="translate(141.066511, 96.796189) rotate(-26.000000) translate(-141.066511, -96.796189) translate(74.566511, 29.796189)">
                        <path d="M32.9819124,101.951311 C42.1254699,101.951311 54.7677593,98.6257582 54.7677593,94.3127593 C54.7677593,89.9997605 44.365539,88.5155391 35.2219814,88.5155391 C26.0784239,88.5155391 22.0750073,92.8267325 20.9445291,95.8260433 C21.502179,98.3771707 23.8383548,101.951311 32.9819124,101.951311 Z" id="Oval" fill="#454547" transform="translate(37.856144, 95.233425) rotate(-40.000000) translate(-37.856144, -95.233425) "></path>
                        <g id="Path-2" transform="translate(19.992001, 0.000000)">
                            <mask id="mask-29" fill="white">
                                <use xlink:href="#path-28"></use>
                            </mask>
                            <use id="Mask" fill="#BCBCBC" transform="translate(56.608546, 66.785691) rotate(12.000000) translate(-56.608546, -66.785691) " xlink:href="#path-28"></use>
                            <path d="M29.7577153,83.3732434 C21.2251085,95.2471186 16.7240837,103.428607 16.2546411,107.91771 C15.7851985,112.406812 13.0516908,110.103668 8.05411795,101.008279 C10.9097624,95.5297932 13.5383917,91.8148468 15.9400058,89.8634398 C18.3416199,87.9120329 22.9475231,85.7486341 29.7577153,83.3732434 Z" fill="#2C2D2E" style="mix-blend-mode: multiply;" opacity="0.5" mask="url(#mask-29)"></path>
                            <path d="M37.8723877,92.6211535 C38.5572924,93.4567001 39.922269,94.9029496 40.4089291,97.7110141" id="Path-9" stroke="#050505" stroke-linecap="round" mask="url(#mask-29)"></path>
                        </g>
                        <path d="M25.1704479,106.432378 C31.2428749,98.461412 39.7147751,87.5477004 50.3298477,83.7200263 C30.4153144,60.5462535 24.3491206,52.8150363 18.0726164,45.5613392 C11.7961121,38.3076421 -6.29860524,57.0973167 3.43172884,75.5796072 C13.1620629,94.0618977 21.8688215,102.521277 25.1704479,106.432378 Z" id="Path-85" fill="#838486"></path>
                    </g>
                </g>
                <g id="top-comment" transform="translate(610.500000, 709.600000) rotate(-3.000000) translate(-610.500000, -709.600000) translate(474.000000, 674.600000)">
                    <path d="M0,52.3642515 L271.115819,52.3642515 L271.115819,52.3642515 C271.115819,61.7437036 263.512271,69.3472519 254.132819,69.3472519 L16.9830005,69.3472519 C7.6035483,69.3472519 1.14865161e-15,61.7437036 0,52.3642515 Z" id="side" fill="#DBDBDB"></path>
                    <g id="top" transform="translate(0.620402, 0.000000)">
                        <mask id="mask-31" fill="white">
                            <use xlink:href="#path-30"></use>
                        </mask>
                        <use id="Mask" fill="#E6E6E6" xlink:href="#path-30"></use>
                        <path d="M40.5067359,51.4724375 C57.2885552,51.4724375 72.6354036,41.6924197 74.7848812,29.6281564 C76.9343588,17.563893 66.7171051,7.78387522 51.9640062,7.78387522 C37.2109073,7.78387522 21.8640589,17.563893 17.6858609,29.6281564 C13.5076628,41.6924197 23.7249166,51.4724375 40.5067359,51.4724375 Z" id="Oval-Copy-2" fill="#FFFFFF" opacity="0.5" mask="url(#mask-31)"></path>
                        <path d="M93.6207574,10.6143753 L232.125608,10.6143753 C235.135793,10.6143753 238.206042,12.5936646 238.983201,15.0352417 C239.760359,17.4768188 237.882774,19.4561081 234.789496,19.4561081 L92.4613907,19.4561081 C89.3681131,19.4561081 87.1537291,17.4768188 87.5154256,15.0352417 C87.8771221,12.5936646 90.6105722,10.6143753 93.6207574,10.6143753 Z" id="Rectangle" fill="#FFFFFF" opacity="0.5" mask="url(#mask-31)"></path>
                        <path d="M91.3853328,25.4745007 L199.316435,25.4745007 C202.463479,25.4745007 205.426744,27.45379 205.935075,29.8953671 C206.443405,32.3369442 204.236945,34.3162336 201.00681,34.3162336 L90.2259662,34.3162336 C86.9958304,34.3162336 84.670501,32.3369442 85.0321975,29.8953671 C85.3938939,27.45379 88.2382895,25.4745007 91.3853328,25.4745007 Z" id="Rectangle-Copy" fill="#FFFFFF" opacity="0.5" mask="url(#mask-31)"></path>
                        <path d="M87.8559673,43.1651262 L125.968089,43.1651262 C128.306838,43.1651262 130.180393,44.5622716 130.152792,46.2857378 C130.12519,48.009204 128.17332,49.4063494 125.793169,49.4063494 L87.0063551,49.4063494 C84.6262033,49.4063494 82.903683,48.009204 83.1589981,46.2857378 C83.4143133,44.5622716 85.517218,43.1651262 87.8559673,43.1651262 Z" id="Rectangle-Copy-2" fill="#FFFFFF" opacity="0.300000012" mask="url(#mask-31)"></path>
                    </g>
                </g>
                <g id="comment-stack" transform="translate(464.000000, 626.000000)">
                    <g id="top-comment" transform="translate(20.000000, 24.600000)">
                        <path d="M0,52.3642515 L271.115819,52.3642515 L271.115819,52.3642515 C271.115819,61.7437036 263.512271,69.3472519 254.132819,69.3472519 L16.9830005,69.3472519 C7.6035483,69.3472519 1.14865161e-15,61.7437036 0,52.3642515 Z" id="side" fill="#DBDBDB"></path>
                        <g id="top" transform="translate(0.620402, 0.000000)">
                            <mask id="mask-33" fill="white">
                                <use xlink:href="#path-32"></use>
                            </mask>
                            <use id="Mask" fill="#E6E6E6" xlink:href="#path-32"></use>
                            <path d="M40.5067359,51.4724375 C57.2885552,51.4724375 72.6354036,41.6924197 74.7848812,29.6281564 C76.9343588,17.563893 66.7171051,7.78387522 51.9640062,7.78387522 C37.2109073,7.78387522 21.8640589,17.563893 17.6858609,29.6281564 C13.5076628,41.6924197 23.7249166,51.4724375 40.5067359,51.4724375 Z" id="Oval-Copy-2" fill="#FFFFFF" opacity="0.5" mask="url(#mask-33)"></path>
                            <path d="M93.6207574,10.6143753 L232.125608,10.6143753 C235.135793,10.6143753 238.206042,12.5936646 238.983201,15.0352417 C239.760359,17.4768188 237.882774,19.4561081 234.789496,19.4561081 L92.4613907,19.4561081 C89.3681131,19.4561081 87.1537291,17.4768188 87.5154256,15.0352417 C87.8771221,12.5936646 90.6105722,10.6143753 93.6207574,10.6143753 Z" id="Rectangle" fill="#FFFFFF" opacity="0.5" mask="url(#mask-33)"></path>
                            <path d="M91.3853328,25.4745007 L199.316435,25.4745007 C202.463479,25.4745007 205.426744,27.45379 205.935075,29.8953671 C206.443405,32.3369442 204.236945,34.3162336 201.00681,34.3162336 L90.2259662,34.3162336 C86.9958304,34.3162336 84.670501,32.3369442 85.0321975,29.8953671 C85.3938939,27.45379 88.2382895,25.4745007 91.3853328,25.4745007 Z" id="Rectangle-Copy" fill="#FFFFFF" opacity="0.5" mask="url(#mask-33)"></path>
                            <path d="M87.8559673,43.1651262 L125.968089,43.1651262 C128.306838,43.1651262 130.180393,44.5622716 130.152792,46.2857378 C130.12519,48.009204 128.17332,49.4063494 125.793169,49.4063494 L87.0063551,49.4063494 C84.6262033,49.4063494 82.903683,48.009204 83.1589981,46.2857378 C83.4143133,44.5622716 85.517218,43.1651262 87.8559673,43.1651262 Z" id="Rectangle-Copy-2" fill="#FFFFFF" opacity="0.300000012" mask="url(#mask-33)"></path>
                        </g>
                    </g>
                    <g id="top-comment">
                        <path d="M0,52.3642515 L271.115819,52.3642515 L271.115819,52.3642515 C271.115819,61.7437036 263.512271,69.3472519 254.132819,69.3472519 L16.9830005,69.3472519 C7.6035483,69.3472519 1.14865161e-15,61.7437036 0,52.3642515 Z" id="side" fill="#DBDBDB"></path>
                        <g id="top" transform="translate(0.620402, 0.000000)">
                            <mask id="mask-35" fill="white">
                                <use xlink:href="#path-34"></use>
                            </mask>
                            <use id="Mask" fill="#E6E6E6" xlink:href="#path-34"></use>
                            <path d="M40.5067359,51.4724375 C57.2885552,51.4724375 72.6354036,41.6924197 74.7848812,29.6281564 C76.9343588,17.563893 66.7171051,7.78387522 51.9640062,7.78387522 C37.2109073,7.78387522 21.8640589,17.563893 17.6858609,29.6281564 C13.5076628,41.6924197 23.7249166,51.4724375 40.5067359,51.4724375 Z" id="Oval-Copy-2" fill="#FFFFFF" opacity="0.5" mask="url(#mask-35)"></path>
                            <path d="M93.6207574,10.6143753 L232.125608,10.6143753 C235.135793,10.6143753 238.206042,12.5936646 238.983201,15.0352417 C239.760359,17.4768188 237.882774,19.4561081 234.789496,19.4561081 L92.4613907,19.4561081 C89.3681131,19.4561081 87.1537291,17.4768188 87.5154256,15.0352417 C87.8771221,12.5936646 90.6105722,10.6143753 93.6207574,10.6143753 Z" id="Rectangle" fill="#FFFFFF" opacity="0.5" mask="url(#mask-35)"></path>
                            <path d="M91.3853328,25.4745007 L199.316435,25.4745007 C202.463479,25.4745007 205.426744,27.45379 205.935075,29.8953671 C206.443405,32.3369442 204.236945,34.3162336 201.00681,34.3162336 L90.2259662,34.3162336 C86.9958304,34.3162336 84.670501,32.3369442 85.0321975,29.8953671 C85.3938939,27.45379 88.2382895,25.4745007 91.3853328,25.4745007 Z" id="Rectangle-Copy" fill="#FFFFFF" opacity="0.5" mask="url(#mask-35)"></path>
                            <path d="M87.8559673,43.1651262 L125.968089,43.1651262 C128.306838,43.1651262 130.180393,44.5622716 130.152792,46.2857378 C130.12519,48.009204 128.17332,49.4063494 125.793169,49.4063494 L87.0063551,49.4063494 C84.6262033,49.4063494 82.903683,48.009204 83.1589981,46.2857378 C83.4143133,44.5622716 85.517218,43.1651262 87.8559673,43.1651262 Z" id="Rectangle-Copy-2" fill="#FFFFFF" opacity="0.300000012" mask="url(#mask-35)"></path>
                        </g>
                    </g>
                </g>
            </g>
        </g>
    </g>
</svg>