<?xml version="1.0" encoding="UTF-8"?>
<svg width="52px" height="43px" viewBox="0 0 52 43" version="1.1" xmlns="http://www.w3.org/2000/svg" xmlns:xlink="http://www.w3.org/1999/xlink">
    <!-- Generator: Sketch 51.3 (57544) - http://www.bohemiancoding.com/sketch -->
    <title>Group 3</title>
    <desc>Created with Sketch.</desc>
    <defs>
        <rect id="path-1" x="0.258333333" y="14.9666667" width="47.5416667" height="24.3333333"></rect>
        <path d="M18.4933053,3.60641026 L17.4420232,0.641025641 C15.1343309,0.641025641 15.1343309,0.641025641 12.8266386,0.641025641 L11.7753565,3.60641026 C10.8522796,3.8525641 9.99330527,4.21923077 9.17279245,4.67435897 L6.35227962,3.32564103 C4.71125398,4.96025641 4.71125398,4.96282051 3.07022834,6.5974359 L4.4292027,9.42820513 C3.96766424,10.2371795 3.59586937,11.1076923 3.35227962,12.0269231 L0.390741163,13.0807692 C0.390741163,15.3820513 0.390741163,15.3871795 0.390741163,17.6884615 L3.35227962,18.7423077 C3.59586937,19.6615385 3.96766424,20.5320513 4.4292027,21.3410256 L3.07022834,24.1717949 C4.71125398,25.8064103 4.71125398,25.8089744 6.35227962,27.4435897 L9.17279245,26.0948718 C9.99330527,26.55 10.8522796,26.9166667 11.7753565,27.1628205 L12.8266386,30.1282051 C15.1343309,30.1282051 15.1343309,30.1282051 17.4420232,30.1282051 L18.4933053,27.1628205 C19.4163822,26.9166667 20.2753565,26.55 21.0958694,26.0948718 L23.9163822,27.4435897 C25.5574078,25.8089744 25.5574078,25.8064103 27.1984335,24.1717949 L25.8394591,21.3410256 C26.3009976,20.5320513 26.6727924,19.6615385 26.9163822,18.7423077 L29.8779207,17.6884615 C29.8779207,15.3871795 29.8779207,15.3820513 29.8779207,13.0807692 L26.9163822,12.0269231 C26.6727924,11.1076923 26.3009976,10.2371795 25.8394591,9.42820513 L27.1984335,6.5974359 C25.5574078,4.96282051 25.5574078,4.96025641 23.9163822,3.32564103 L21.0958694,4.67435897 C20.2753565,4.21923077 19.4163822,3.8525641 18.4933053,3.60641026 Z" id="path-3"></path>
    </defs>
    <g id="Welcome" stroke="none" stroke-width="1" fill="none" fill-rule="evenodd">
        <g id="Home" transform="translate(-596.000000, -3423.000000)">
            <g id="Group-3" transform="translate(598.000000, 3425.000000)">
                <mask id="mask-2" fill="white">
                    <use xlink:href="#path-1"></use>
                </mask>
                <g id="Mask"></g>
                <g id="Group-2" mask="url(#mask-2)">
                    <g transform="translate(8.800000, 21.650000)">
                        <path d="M21.9035617,15.3846154 C21.9035617,19.2076923 18.811254,22.3076923 14.9804848,22.3076923 C11.1497155,22.3076923 8.05740783,19.2076923 8.05740783,15.3846154 C8.05740783,11.5615385 11.1497155,8.46153846 14.9804848,8.46153846 C18.811254,8.46153846 21.9035617,11.5615385 21.9035617,15.3846154 Z" id="Path" stroke="#FFFFFF" stroke-width="2.5" fill="none" stroke-linecap="round" stroke-linejoin="round"></path>
                        <mask id="mask-4" fill="white">
                            <use xlink:href="#path-3"></use>
                        </mask>
                        <use id="Mask" stroke="#FFFFFF" stroke-width="2.5" fill="none" stroke-linecap="round" stroke-linejoin="round" xlink:href="#path-3"></use>
                    </g>
                </g>
                <g id="Group" stroke="#FFFFFF" stroke-width="2.5">
                    <polygon id="Path" stroke-linecap="round" points="47.9583333 39.625 0.0416666667 39.625 0.0416666667 0.0416666667 47.9583333 0.0416666667"></polygon>
                    <path d="M0.0416666667,8.375 L47.9583333,8.375 L0.0416666667,8.375 Z" id="Path" stroke-linecap="square" stroke-linejoin="round"></path>
                </g>
            </g>
        </g>
    </g>
</svg>