<?xml version="1.0" encoding="UTF-8"?>
<svg width="84px" height="84px" viewBox="0 0 84 84" version="1.1" xmlns="http://www.w3.org/2000/svg" xmlns:xlink="http://www.w3.org/1999/xlink">
    <!-- Generator: Sketch 51.3 (57544) - http://www.bohemiancoding.com/sketch -->
    <title>ic_play_circle_outline</title>
    <desc>Created with Sketch.</desc>
    <defs></defs>
    <g id="Welcome" stroke="none" stroke-width="1" fill="none" fill-rule="evenodd">
        <g id="Home--Hamburger-Effect" transform="translate(-758.000000, -855.000000)" fill="#FFFFFF">
            <g id="ic_play_circle_outline" transform="translate(758.000000, 855.000000)">
                <path d="M33.6,60.9 L58.8,42 L33.6,23.1 L33.6,60.9 L33.6,60.9 Z M42,0 C18.816,0 0,18.816 0,42 C0,65.184 18.816,84 42,84 C65.184,84 84,65.184 84,42 C84,18.816 65.184,0 42,0 L42,0 Z M42,75.6 C23.478,75.6 8.4,60.522 8.4,42 C8.4,23.478 23.478,8.4 42,8.4 C60.522,8.4 75.6,23.478 75.6,42 C75.6,60.522 60.522,75.6 42,75.6 L42,75.6 Z" id="Shape"></path>
            </g>
        </g>
    </g>
</svg>