<?xml version="1.0" encoding="UTF-8"?>
<svg width="34px" height="31px" viewBox="0 0 34 31" version="1.1" xmlns="http://www.w3.org/2000/svg" xmlns:xlink="http://www.w3.org/1999/xlink">
    <!-- Generator: Sketch 51.3 (57544) - http://www.bohemiancoding.com/sketch -->
    <title>Group 2</title>
    <desc>Created with Sketch.</desc>
    <defs></defs>
    <g id="Welcome" stroke="none" stroke-width="1" fill="none" fill-rule="evenodd">
        <g id="Home" transform="translate(-800.000000, -5555.000000)" fill="#000000">
            <g id="Group-7" transform="translate(256.000000, 5372.000000)">
                <g id="Group-2" transform="translate(544.000000, 183.000000)">
                    <path d="M14,16.4285714 L14,31 L0,31 L0,20.7142857 C0,16.7142657 0.640516471,13.0476357 1.92156863,9.71428571 C3.20262078,6.38093571 5.35292608,3.14287286 8.37254902,0 L13.5882353,4.28571429 C10.01959,8.38097286 8.00653824,12.4285514 7.54901961,16.4285714 L14,16.4285714 Z" id="‘" transform="translate(7.000000, 15.500000) scale(-1, -1) translate(-7.000000, -15.500000) "></path>
                    <path d="M34,16.4285714 L34,31 L20,31 L20,20.7142857 C20,16.7142657 20.6405165,13.0476357 21.9215686,9.71428571 C23.2026208,6.38093571 25.3529261,3.14287286 28.372549,0 L33.5882353,4.28571429 C30.01959,8.38097286 28.0065382,12.4285514 27.5490196,16.4285714 L34,16.4285714 Z" id="‘-copy" transform="translate(27.000000, 15.500000) scale(-1, -1) translate(-27.000000, -15.500000) "></path>
                </g>
            </g>
        </g>
    </g>
</svg>