<?xml version="1.0" encoding="UTF-8"?>
<svg width="47px" height="47px" viewBox="0 0 47 47" version="1.1" xmlns="http://www.w3.org/2000/svg" xmlns:xlink="http://www.w3.org/1999/xlink">
    <!-- Generator: Sketch 51.3 (57544) - http://www.bohemiancoding.com/sketch -->
    <title>Group 22</title>
    <desc>Created with Sketch.</desc>
    <defs></defs>
    <g id="Welcome" stroke="none" stroke-width="1" fill="none" fill-rule="evenodd">
        <g id="Home" transform="translate(-1072.000000, -3843.000000)" stroke="#FFFFFF" stroke-width="2.5">
            <g id="Group-22" transform="translate(1074.000000, 3845.000000)">
                <polygon id="Path" points="43 43 1.49186219e-16 43 0 0 43 0"></polygon>
                <g id="Group-27" transform="translate(5.733333, 7.644444)">
                    <g id="Group-25" transform="translate(0.095556, 0.000000)">
                        <path d="M4.13381643,0.789371981 L4.13381643,13.8763285 L4.13381643,0.789371981 Z" id="Path"></path>
                        <path d="M7.83555556,17.2 C7.83555556,19.3098667 6.1232,21.0222222 4.01333333,21.0222222 C1.90346667,21.0222222 0.191111111,19.3098667 0.191111111,17.2 C0.191111111,15.0901333 1.90346667,13.3777778 4.01333333,13.3777778 C6.1232,13.3777778 7.83555556,15.0901333 7.83555556,17.2 Z" id="Path"></path>
                        <path d="M4.13381643,21.0222222 L4.13381643,26.963285 L4.13381643,21.0222222 Z" id="Path"></path>
                    </g>
                    <g id="Group-24" transform="translate(11.180000, 0.000000)">
                        <path d="M8.12222222,9.55555556 C8.12222222,11.6654222 6.40986667,13.3777778 4.3,13.3777778 C2.19013333,13.3777778 0.477777778,11.6654222 0.477777778,9.55555556 C0.477777778,7.44568889 2.19013333,5.73333333 4.3,5.73333333 C6.40986667,5.73333333 8.12222222,7.44568889 8.12222222,9.55555556 Z" id="Path-Copy-2"></path>
                        <path d="M4.27922705,0.789371981 L4.27922705,5.73333333 L4.27922705,0.789371981 Z" id="Path"></path>
                        <path d="M4.27922705,13.8763285 L4.27922705,26.963285 L4.27922705,13.8763285 Z" id="Path"></path>
                    </g>
                    <g id="Group-23" transform="translate(23.315556, 0.000000)">
                        <path d="M7.93111111,14.3333333 C7.93111111,16.4432 6.21875556,18.1555556 4.10888889,18.1555556 C1.99902222,18.1555556 0.286666667,16.4432 0.286666667,14.3333333 C0.286666667,12.2234667 1.99902222,10.5111111 4.10888889,10.5111111 C6.21875556,10.5111111 7.93111111,12.2234667 7.93111111,14.3333333 Z" id="Path-Copy-3"></path>
                        <path d="M3.9884058,0.789371981 L3.9884058,10.1371981 L3.9884058,0.789371981 Z" id="Path"></path>
                        <path d="M3.9884058,18.1555556 L3.9884058,26.963285 L3.9884058,18.1555556 Z" id="Path"></path>
                    </g>
                </g>
            </g>
        </g>
    </g>
</svg>